<?xml version="1.0" standalone="no"?><svg xmlns="http://www.w3.org/2000/svg"><defs><font id="vodafone_rgbold" horiz-adv-x="1050"><font-face ascent="1638" descent="-410" units-per-em="2048"/><missing-glyph horiz-adv-x="389"/><glyph horiz-adv-x="411"/><glyph horiz-adv-x="411"/><glyph horiz-adv-x="389"/><glyph horiz-adv-x="389"/><glyph horiz-adv-x="389"/><glyph horiz-adv-x="389"/><glyph d="M76 143q0 66 44 116t116 50q70 0 113.5-50T393 143 349.5 27 236-23q-72 0-116 50.5T76 143zm33 289v934h258V432H109z" horiz-adv-x="468" unicode="!"/><glyph d="M123 760v606h242V760H123zm391 0v606h244V760H514z" horiz-adv-x="880" unicode="&quot;"/><glyph d="M0 422v244h270v186H0v242h270v272h232v-272h176v272h229v-272h273V852H907V666h273V422H907V152H678v270H502V152H270v270H0zm502 244h176v186H502V666z" horiz-adv-x="1120" unicode="#"/><glyph d="M33 182l164 199q66-80 143.5-124T506 213q92 0 147.5 40T709 367q0 76-49.5 117.5T518 565q-84 33-164 66t-143.5 81-102 118.5T70 1010q0 125 63 207 63 86 145 121.5t154 45.5v302h178v-295q106-14 200.5-67.5T958 1184l-163-168q-70 78-134.5 110.5T524 1159q-88 0-139-37t-51-102q0-35 17.5-61.5t43-47 56-35T506 852q82-35 165-69.5t150.5-86 110.5-127T975 377q0-121-62-213-55-86-136-128T610-20v-265H432v262Q303-7 199.5 46.5T33 182z" unicode="$"/><glyph d="M8 1061q0 76 26.5 136t73 102 105.5 62.5 121 20.5q121 0 203-65 84-66 104-139 20-86 21-115 0-61-20.5-118.5T580 842t-102.5-73T334 741t-142.5 28T90 842 28.5 944 8 1061zm12-926l1278 1247 136-141L156-12zm195 930q0-27 7-53.5t21.5-47 36-33.5 52.5-13q45 0 69.5 27.5t36 62T449 1065q0 63-35 104t-82 41q-55 0-86-44t-31-101zm565-762q0 74 27 134.5T880 540t106.5 63.5T1110 625q119 0 201-66 61-57 92-125.5t31-128.5q0-61-20.5-118.5T1352 84t-101.5-72.5T1108-16 964.5 11.5 862 84t-61.5 102.5T780 303zm209 2q0-53 29-99t88-46 88 46 29 99-29 99.5-88 46.5-88-46.5-29-99.5z" horiz-adv-x="1439" unicode="%"/><glyph d="M27 373q0 123 65.5 232.5T299 801l55 33q-39 51-69.5 109T254 1075q0 76 31.5 132.5t82 92 112 51T594 1366q125 0 206-46t156-146l-163-148q-47 66-93.5 103.5T598 1167q-47 0-73.5-22.5T498 1083q0-53 57-122l272-375 209 305 174-158-237-344L1257 0H961L834 176Q758 84 689.5 40T557-13.5 446-23q-111 0-190.5 33T125 98.5t-74.5 126T27 373zm252 12q0-86 45-137t131-51q70 0 129 48t108 122L479 657l-43-24q-74-43-115.5-106.5T279 385z" horiz-adv-x="1277" unicode="&amp;"/><glyph d="M123 760v606h242V760H123z" horiz-adv-x="487" unicode="'"/><glyph d="M78 684q0 215 69 385 70 174 168.5 275.5T512 1501l113-145q-141-104-216-270t-75-402 74.5-401.5T625 12L512-133Q414-78 334 4T197.5 189.5t-88 228.5T78 684z" horiz-adv-x="645" unicode="("/><glyph d="M20 12q141 104 216 270.5T311 684q0 236-74.5 401.5T20 1356l113 145q82-45 148.5-106.5T399 1251q94-150 131-292t37-275q0-215-69.5-387t-168-273.5T133-133z" horiz-adv-x="645" unicode=")"/><glyph d="M53 1235l111 166 178-121v205h193v-205l186 121 113-166-216-137 209-137-100-177-192 125V694H342v215L156 784 57 961l211 135z" horiz-adv-x="884" unicode="*"/><glyph d="M45 563v225h373v412h213V788h373V563H631V158H418v405H45z" unicode="+"/><glyph d="M53 139q0 57 37 101.5T197 285q72 0 110.5-51.5T346 102q0-76-45-169T145-246l-67 92q35 29 65.5 69T178-10q-49 4-87 46T53 139z" horiz-adv-x="417" unicode=","/><glyph d="M74 412v243h493V412H74z" horiz-adv-x="643" unicode="-"/><glyph d="M74 125q0 57 35.5 103T217 274t106.5-46T358 125q0-55-34.5-101.5T217-23 109.5 23.5 74 125z" horiz-adv-x="432" unicode="."/><glyph d="M0 51l864 1518 193-109L197-66z" horiz-adv-x="1056" unicode="/"/><glyph d="M37 676q0 203 59 375 61 168 177 248.5t253 80.5q188 0 305-131 119-125 150-291 33-152 33-282 0-123-24.5-248t-82-226.5-151-166T526-29q-139 0-232 64.5t-150.5 166-82 226.5T37 676zm266 2q0-98 13.5-183t40-149.5T425 244t101-37q66-2 110 45t69.5 118.5 35 154.5 7.5 153q0 123-18.5 211T680 1033.5t-71 84-83 27.5q-92 2-149.5-92.5T311 854q-4-53-7-97t-1-79z" unicode="0"/><glyph d="M129 1083l428 273h203V0H494v1040L250 885z" unicode="1"/><glyph d="M57 1182q47 53 138.5 105t175.5 72.5 143 20.5q145 0 246-63 104-63 144-156.5T944 975q0-133-50-224.5T735 580L530 428q-106-80-140-113.5T356 238h605V0H84v162q-4 98 38 190t120 144l284 219q82 57 113 110.5T670 956q0 86-51.5 134.5T475 1139q-57 0-105-19.5t-86-45-63.5-51.5-38.5-38z" unicode="2"/><glyph d="M31 129l114 215q72-63 154-102t180-39q125 0 181.5 63.5T717 422q0 123-79 175t-210 52q-59 0-117-8v168q41 72 70 106 41 53 98 115 41 41 68.5 66.5T586 1133H63v233h855v-227q-80-55-148-113-86-70-126-116t-56-72q139 4 235-66 84-61 121-149t37-189q0-117-40-203T833.5 87t-159-87T483-29q-147 0-259.5 44T31 129z" unicode="3"/><glyph d="M53 266v203l613 897h211V502h133V266H877V0H621v266H53zm279 236h289v438z" unicode="4"/><glyph d="M35 104l106 228q72-55 149-89t169-34q63-2 111 15.5t80 50 47.5 75.5 13.5 92q0 125-78 182.5T408 682q-90 0-252-35v719h757v-233H387V905q16 4 59 4 248 0 382.5-111.5T963 451q0-186-86-299Q793 37 676 4 570-29 457-29T252-3 110.5 50.5 35 104z" unicode="5"/><glyph d="M86 500q0 137 32 266t103 252q39 70 90 124t115 95q129 82 249 105.5t214 23.5l59-205h-14q-188 0-309-65-119-63-162-142-41-78-55-123 39 25 85 39.5T596 885q100 2 175-42t123-114 67.5-151.5T981 422q0-84-27.5-165t-83-144.5T731.5 10 537-29q-131 0-246 72-111 72-158 194.5T86 500zm272-25q0-104 31-172 31-66 74-81t78-15q78 0 125 57.5T713 420q0 111-50.5 173T532 655q-47 0-91-15t-70-32q-12-37-13-133z" unicode="6"/><glyph d="M84 1133v233h903v-223Q780 854 655 576.5T481 0H207q41 287 165 567.5T694 1133H84z" unicode="7"/><glyph d="M80 383q0 68 29 141 31 74 68.5 115t70.5 61q-78 59-113 138.5T100 991q0 115 68 211 68 98 163 138t195 40q139 0 242-67 76-49 119-120t54-120 11-78q0-74-36.5-156.5T805 702q57-35 97-92t54.5-119.5T971 385q0-78-30-151.5t-86-132T715.5 7 526-29 337 6 196.5 99.5t-87 132T80 383zm258 16q-2-45 14.5-82.5t44-64.5 61-40 68.5-9q92 0 140.5 57T715 395t-49.5 135.5T524 588q-88 0-137-56.5T338 399zm22 586q-2-39 11.5-73.5t37-61.5 54-40 63.5-9q61 0 103.5 45t53.5 86 9 55q0 57-33.5 100t-72.5 57.5-60 14.5q-51 0-98-35-43-33-55.5-70.5T360 985z" unicode="8"/><glyph d="M74 930q0 141 65 250 66 111 167.5 155.5T518 1380q154 0 262.5-91T926 1071q20-63 27.5-120.5T961 840q0-182-47.5-339T775 227.5 549 44 238-23q-49 0-74 5l26 219q18-4 43-4 174 0 274.5 90T647 543q-35-25-86-39.5T459 489q-94 0-166 33t-121 92.5T98.5 754 74 930zm270 2q0-92 46-152.5T522 719q45 0 85 9t77 32q12 61 12 112 0 117-41 179.5t-82 78-57 15.5q-70 0-113-47t-51-93.5-8-72.5z" unicode="9"/><glyph d="M74 125q0 57 35.5 103T217 274t106.5-46T358 125q0-55-34.5-101.5T217-23 109.5 23.5 74 125zm0 727q0 57 35.5 103t107.5 46 106.5-46T358 852q0-55-34.5-101.5T217 704t-107.5 46.5T74 852z" horiz-adv-x="432" unicode=":"/><glyph d="M53 139q0 57 37 101.5T197 285q72 0 110.5-51.5T346 102q0-76-45-169T145-246l-67 92q35 29 65.5 69T178-10q-49 4-87 46T53 139zm21 713q0 57 35.5 103t107.5 46 106.5-46T358 852q0-55-34.5-101.5T217 704t-107.5 46.5T74 852z" horiz-adv-x="423" unicode=";"/><glyph d="M45 596v170l883 313 76-221-512-174 532-192-70-228z" unicode="&lt;"/><glyph d="M45 317v226h959V317H45zm0 441v225h959V758H45z" unicode="="/><glyph d="M27 492l532 192L47 858l78 221 881-313V596L96 264z" unicode="&gt;"/><glyph d="M-10 1171q57 78 137 127 86 55 158.5 76t134.5 21q147 0 242-66 68-53 100.5-107.5T803 1118t8-76q0-98-43-176T645 702Q514 565 514 481v-49H266v86q0 84 40 149.5T428 815q49 49 87 99.5t38 121.5q0 63-41 100.5T395 1174q-55 0-118.5-38T145 1012zM231 143q0 66 44 116t114 50q72 0 116-50t44-116-44-116-116-50q-70 0-114 50.5T231 143z" horiz-adv-x="821" unicode="?"/><glyph d="M98 479q0 266 105 473 109 211 272 293 168 88 348 88 211 0 334-86 125-82 158-192 35-115 35-189V70h-234v49q-41-35-97-52.5T913 49q-174 0-272 116t-98 320q0 145 59 248 45 74 105.5 113t115 51 82.5 12q72 0 123-22.5t86-42.5q0 123-69.5 199.5T813 1120q-123 0-213-54T451.5 923t-87-205T336 479q0-53 8-116.5t30.5-127 62.5-124T540.5 5 694-68.5 905-96q154 0 271.5 19.5T1382-25l54-223q-80-29-227.5-51.5T885-322q-250 0-413 88.5T225-6q-82 141-104.5 263T98 479zm678 15q0-119 46-176.5T940 260q57 0 98 15.5t76 52.5v311q-102 59-176 59-162 0-162-204z" horiz-adv-x="1476" unicode="@"/><glyph d="M0 0l492 1366h260L1245 0H977l-94 274H360L268 0H0zm440 506h365l-182 538z" horiz-adv-x="1245" unicode="A"/><glyph d="M150 0v1366h462q150 0 258-68 104-66 140-153 31-84 30-148 0-92-41-159.5T883 723q104-39 167.5-124t63.5-214q0-109-58.5-207T879 33q-43-16-95.5-24.5T682 0H150zm260 233h186q68 0 106.5 6.5T766 260q43 25 62.5 60.5T848 395q0 45-24.5 88T752 553q-31 16-72 23.5t-88 7.5H410V233zm0 574h127q111 0 145 18 49 25 71.5 63t22.5 79q0 49-30.5 91t-90.5 62q-4 0-19 2t-35.5 4-43 4.5-41.5 2.5H410V807z" horiz-adv-x="1163" unicode="B"/><glyph d="M88 678q0 184 50 318t132 223.5T457.5 1352t216.5 43q139 0 243.5-51.5T1069 1235t59-82L936 991q-10 18-29.5 46t-51.5 53.5-76 44-101 18.5q-66 0-124-27.5t-103-86T380 892t-26-214q0-223 96.5-343T707 215q117 0 200.5 40t120.5 77l84-228q-47-55-189.5-94T676-29q-129 0-236.5 45T253 150.5 131 372 88 678z" horiz-adv-x="1169" unicode="C"/><glyph d="M150 0v1366h385q74 0 163.5-12.5T870 1305q129-63 209-189 82-123 103-239 20-137 20-187 0-178-70.5-330.5T986 145.5 868 70Q729 0 545 0H150zm262 246h106q143 0 234 51 94 51 139 156.5T936 678q0 117-41 220t-127 161q-45 31-111.5 46T524 1120H412V246z" horiz-adv-x="1286" unicode="D"/><glyph d="M150 0v1366h890v-248H412V807h520V559H412V248h673V0H150z" horiz-adv-x="1140" unicode="E"/><glyph d="M150 0v1366h882v-248H412V795h495V551H412V0H150z" horiz-adv-x="1042" unicode="F"/><glyph d="M88 678q0 184 47 318t127 223.5T445.5 1352t218.5 43q180 0 290.5-66.5T1122 1157L942 991q-39 68-110.5 115T666 1153h-5q-106 0-180-80-78-80-104-192-14-57-19-107-5-38-5-72 0-12 1-24 0-156 56-272 31-66 70.5-104t81.5-57.5 80-24.5 65-5q82 0 132 9t58 14v245H684v236h459V61Q1092 28 975-.5T692-29q-133 0-244.5 47.5T256 157 132 379 88 678z" horiz-adv-x="1245" unicode="G"/><glyph d="M150 0v1366h262V825h516v541h262V0H928v578H412V0H150z" horiz-adv-x="1341" unicode="H"/><glyph d="M150 0v1366h262V0H150z" horiz-adv-x="563" unicode="I"/><glyph d="M41 53l76 219q18-23 66-41t80-22 56-4q72 0 114 35.5T475 377v989h262V375q0-205-97-304.5T350-29Q241-29 159.5 1T41 53z" horiz-adv-x="870" unicode="J"/><glyph d="M150 0v1366h262V815h137q39 0 67.5 19.5T676 926l194 440h277L932 889q-29-61-55.5-94T811 739q47-25 77-61.5t52-95.5L1171 0H887L719 426q-33 82-63.5 121T565 586H412V0H150z" horiz-adv-x="1206" unicode="K"/><glyph d="M150 0v1366h262V248h635V0H150z" horiz-adv-x="1087" unicode="L"/><glyph d="M117 0l65 1366h269l333-971 299 971h271L1419 0h-260l-37 805L870-8H696L414 813 377 0H117z" horiz-adv-x="1536" unicode="M"/><glyph d="M150 0v1366h268l526-852v852h258V0H973L410 903V0H150z" horiz-adv-x="1351" unicode="N"/><glyph d="M88 684q0 131 37 259t111.5 228.5 186.5 162 261 61.5q209 0 354.5-123T1235 981q53-176 53-297 0-131-38-259t-112.5-228.5-188-163T684-29q-150 0-261.5 62.5t-186 163T125 425 88 684zm264 0q0-90 21.5-175T437 358.5 541.5 254 684 215q82 0 151.5 44T940 363.5 991 481q31 113 31 203 0 135-49 252-47 117-127 167t-162 50q-80 0-142.5-39T437 1009.5 373.5 859 352 684z" horiz-adv-x="1376" unicode="O"/><glyph d="M150 0v1366h409q98 0 182-13.5t162-52.5q98-49 145.5-146t47.5-208q0-109-47.5-208T947 594t-81-51q-70-29-139.5-40T586 492H408V0H150zm258 727h145q55 0 101 6t79 23q55 27 80 74t25 100q0 57-28 106t-83 70q-69 24-157 24H408V727z" horiz-adv-x="1124" unicode="P"/><glyph d="M88 684q0 131 37 259t111.5 228.5 186.5 162 261 61.5q209 0 354.5-123T1235 981q53-176 53-297 0-92-18.5-182T1214 330q98-86 154.5-151.5T1438 92L1288-61q-10 18-61 74.5T1096 145q-74-80-175.5-127T684-29q-150 0-261.5 62.5t-186 163T125 425 88 684zm264 0q0-90 21.5-175T437 358.5 541.5 254 684 215q121 0 207 86-72 47-213 109l82 192q66-23 126-53.5T993 485q29 98 29 199 0 135-49 252-47 117-127 167t-162 50q-80 0-142.5-39T437 1009.5 373.5 859 352 684z" horiz-adv-x="1396" unicode="Q"/><glyph d="M150 0v1366h477q152 0 268-63 117-63 156-158 34-88 34-179v-5q0-104-47-192.5T893 621q57-29 92-82.5t70-165.5L1157 0H885L782 342q-25 68-45 111-14 31-50 45t-81 14H408V0H150zm258 748h184q233 0 233 186 0 98-55 146t-178 48H408V748z" horiz-adv-x="1204" unicode="R"/><glyph d="M61 106l111 228q18-16 51-39t77-43.5T400.5 218 524 205q98 0 154.5 43T735 362q0 86-55 134-59 49-242 112-152 43-239 115-61 51-91 110.5T76 937q-1 22-1 41.5t1 35.5q0 129 63 217 63 92 172 128t221 36q111 0 204-31t156.5-76 94.5-80l-137-182q-39 43-117 80t-131 50q-46 11-72 11h-8q-106 0-149-42t-43-101q0-72 49-109 27-18 79-42.5T592 819q182-63 272-141 90-76 109-154 16-72 22-151 0-139-84-242Q827 33 718.5 2T526-29q-92 0-169.5 16.5t-137 38-99.5 44T61 106z" horiz-adv-x="1067" unicode="S"/><glyph d="M10 1118v248h1037v-248H659V0H397v1118H10z" horiz-adv-x="1056" unicode="T"/><glyph d="M141 469v897h262V496q0-123 69-202t198-79 195.5 79T932 496v870h262V469q0-117-41-209t-112.5-156.5T874 5 668-29q-174 0-299 76-127 78-177.5 191.5T141 469z" horiz-adv-x="1337" unicode="U"/><glyph d="M0 1366h281L627 332l340 1034h258L748 0H504z" horiz-adv-x="1224" unicode="V"/><glyph d="M20 1366h261l155-922 221 922h240l231-922 154 922h252L1274 0h-260L772 983 541 0H279z" horiz-adv-x="1554" unicode="W"/><glyph d="M0 0l422 711-393 655h297l237-416 236 416h297L705 711 1126 0H834L563 471 293 0H0z" horiz-adv-x="1126" unicode="X"/><glyph d="M0 1366h293l280-543 269 543h288L700 549V0H438v549z" horiz-adv-x="1130" unicode="Y"/><glyph d="M51 0v225l662 893H106v248h928v-233L379 248h668V0H51z" horiz-adv-x="1101" unicode="Z"/><glyph d="M129-293v1800h455v-225H371V-68h213v-225H129z" horiz-adv-x="614" unicode="["/><glyph d="M0 1460l193 109L1057 51 860-66z" horiz-adv-x="1056" unicode="\"/><glyph d="M31-68h215v1350H31v225h454V-293H31v225z" horiz-adv-x="614" unicode="]"/><glyph d="M119 659l321 707h189l327-676-227-92-194 436-181-454z" horiz-adv-x="1073" unicode="^"/><glyph d="M0-307h1024v-144H0v144z" horiz-adv-x="1024" unicode="_"/><glyph d="M174 1331l121 170 391-289-68-110z" horiz-adv-x="860" unicode="`"/><glyph d="M66 291q0 80 33.5 138t88 98 117 61.5T418 616q29 4 205 25v14q0 82-42 117t-116 35-141.5-32T221 713l-84 178q43 43 160 82 123 39 211 39 94 0 164.5-29t117-81 68-121.5T879 635V0H645l-10 74Q594 29 530.5 3T391-23q-63 0-121.5 21.5T166 60t-72.5 98.5T66 291zm247 6q0-49 36-79t102-30q49 0 95 20.5t79 51.5v201q-125-14-166-21-82-16-114-56t-32-87z" horiz-adv-x="999" unicode="a"/><glyph d="M127 61v1305h254V989q100 23 166 23 170 0 276-88 109-90 146-203 39-109 39-209 0-143-41-244.5t-111-166T693 7 498-23q-98 0-188.5 23T127 61zm254 150q79-18 106-18 123 0 198 79.5T760 506q0 145-74 218t-180 73q-51 0-125-23V211z" horiz-adv-x="1075" unicode="b"/><glyph d="M68 489q0 184 73 312 76 125 182.5 168t196.5 43q156 0 250-74t137-158L719 653q-31 53-77 99.5T522 799q-82 0-142.5-73T319 500q0-147 61.5-225T559 197q104 0 166.5 31.5T821 293l74-209q-55-41-150.5-74T526-23q-90 0-173 31t-146.5 94.5-101 159.5T68 489z" horiz-adv-x="948" unicode="c"/><glyph d="M68 498q0 158 63 276 47 96 130 150t158 72q67 16 109 16h9q72 0 168-29v383h251V0H725l-10 76q-35-39-92.5-69T487-23q-102 0-180 43T176 135 95.5 301 68 498zm247 6q0-61 13.5-117.5t41-98.5 70-67.5T539 195q47 0 96 25.5t70 60.5v487q-80 29-138 29-106 0-171-69-64-68-74-134-8-47-8-74 0-9 1-16z" horiz-adv-x="1083" unicode="d"/><glyph d="M68 494q0 125 35.5 221t98 161.5T347 977t177 35q166 0 271-92 106-92 137-218 31-123 31-227v-45H324q8-125 77.5-180T582 195q98 0 171.5 30.5T854 283l68-207q-45-33-86-47-25-12-121-31-94-21-168-21-96 0-183.5 31t-153 95.5-104 160.5T68 494zm262 118h375q-6 84-48.5 129t-81 56.5T524 809q-66 0-125-49.5T330 612z" horiz-adv-x="1021" unicode="e"/><glyph d="M31 782v205h131v53q0 143 59 228 57 86 135 104 74 20 131 21 92 0 152.5-17.5T711 1352l-29-211q-12 6-48 17t-95 11q-53 0-89-31.5T414 1034v-47h213V782H416V0H162v782H31z" horiz-adv-x="651" unicode="f"/><glyph d="M68 506q0 162 73 282 76 123 198 173.5t259 50.5q106 0 202.5-11.5T952 979V25q0-211-115.5-321T504-406q-66 0-126.5 7.5T260-377q-106 27-143 45l53 223q51-29 135-53t178-24q111 0 162 41t51 106v57Q624 0 557 0 436 0 345 40T192.5 148.5 99.5 309 68 506zm247 0q0-129 69-208t210-79q37 0 60.5 8.5T696 246v545q-53 8-96 8-121 0-190-62-43-39-67-88t-26-86-2-57z" horiz-adv-x="1077" unicode="g"/><glyph d="M127 0v1366h254V922q47 37 111.5 63.5T649 1012h7q138 0 222-76 86-78 103-178 20-96 20-172V0H748v567q0 123-48.5 177.5T590 799t-111.5-28-97.5-69V0H127z" horiz-adv-x="1122" unicode="h"/><glyph d="M100 1225q0 53 38 98t116 45q76 0 114-45t38-98q0-55-38-100.5T254 1079q-78 0-116 45t-38 101zM127 0v987h252V0H127z" horiz-adv-x="505" unicode="i"/><glyph d="M-8-217q86 57 119.5 116.5T145 39v948h254V39q0-170-70.5-276.5T104-416zm131 1442q0 53 38 98t113 45q74 0 112-45t38-98q0-55-38-100.5T274 1079q-76 0-113.5 45T123 1225z" horiz-adv-x="526" unicode="j"/><glyph d="M127 0v1366h254V653h61q37 0 66 21.5t59 93.5l90 219h275L813 711q-41-92-115-140 45-23 75-54.5t50-80.5L1004 0H727L614 266q-39 92-68.5 129T461 432h-80V0H127z" horiz-adv-x="1024" unicode="k"/><glyph d="M127 240v1126h254V289q0-53 21.5-72.5T463 197t82 18l45-192q-8-8-74-27-61-19-127-19-84 0-136 26t-81 66-37 87-8 84z" horiz-adv-x="630" unicode="l"/><glyph d="M127 0v987h233l11-74q45 41 111.5 70t133.5 29q70 0 138.5-21.5T883 915q68 41 148.5 69t172.5 28q168 0 258-74 92-78 111-174 20-94 20-172V0h-252v580q0 98-36.5 158.5T1167 799q-49 0-105-27t-89-53q12-74 12-123V0H731v580q0 111-41 165t-115 54q-57 0-108-31t-86-66V0H127z" horiz-adv-x="1714" unicode="m"/><glyph d="M127 0v987h231l13-78q59 49 134 76t150 27q119 0 203-53.5t118-157 34-217.5V0H756v563q0 113-46 174.5T578 799q-59 0-109.5-31T381 700V0H127z" horiz-adv-x="1130" unicode="n"/><glyph d="M68 498q0 150 65 276 68 127 178.5 182.5T541 1012q166 0 280-90 113-88 152-209 41-127 41-215 0-150-68-279-51-100-134-157.5t-154.5-71T541-23q-119 0-208 45.5t-147.5 119-88 166.5T68 498zm249 0q0-63 14.5-117.5t42-95.5 70-64.5T541 197h13q58-1 98 31 44 36 70 85t36 101q7 38 7 65 0 11-1 19 0 111-46 186.5T620 780q-48 18-74 17h-5q-86 0-144-62-47-51-63.5-113.5T317 498z" horiz-adv-x="1081" unicode="o"/><glyph d="M127-387V987h231l13-74q35 35 93 67t138 32q141 0 239.5-86T975 717q35-127 35-221 0-156-70-284T755.5 30.5 512-23q-61 0-131 29v-393H127zm252 614q68-28 119-28h9q70 0 119 29 52 30 82.5 75t43.5 97q10 44 10 80v21q0 85-35 161-35 80-88 110-47 27-81 27h-9q-53 0-100.5-30T379 705V227z" horiz-adv-x="1077" unicode="p"/><glyph d="M68 496q0 156 71 282 74 127 198 180.5t261 53.5q76 0 165-9.5T952 979V-387H696V-4q-72-18-139-19-121 0-212 42T192.5 132t-93 165T68 496zm247 0q0-63 17.5-117.5T385 284t87-63.5T594 197q53 0 102 24v570q-53 8-96 8h-10q-77 0-129-31-55-33-89-80t-48-100q-10-41-10-73 0-10 1-19z" horiz-adv-x="1077" unicode="q"/><glyph d="M127 0v987h231l17-104q35 41 77 66.5t87 42 79 16.5q80 0 111-15l-37-221q-27 8-86 8-72 0-129-37.5T381 664V0H127z" horiz-adv-x="729" unicode="r"/><glyph d="M57 109l93 194q39-41 110-76 72-31 130.5-41t96.5-10q92 0 128 26.5t36 71.5q0 39-47 70t-182 66q-96 20-158.5 51T164 530q-36 38-50 86-12 41-12 87v14q0 131 97.5 213t296.5 82q129 0 231-37 104-35 145-70l-86-184q-39 31-114.5 63.5T498 817q-90 0-122-28.5T344 719q0-49 37-70 39-20 164-45 152-27 231.5-90t96-124.5T889 287q0-123-76-199-78-74-173.5-92.5T487-23q-53 0-107 7.5T268 6Q157 35 112.5 63.5T57 109z" horiz-adv-x="944" unicode="s"/><glyph d="M29 782v205h139v256h252V987h227V782H420V281q0-47 22.5-65.5T496 197q76 0 131 43l65-183Q645 22 574.5-.5T426-23q-131 0-194.5 74T168 229v553H29z" horiz-adv-x="716" unicode="t"/><glyph d="M121 399v588h254V426q0-102 37-165.5T539 197q74 0 125 29.5t81 56.5v704h254V0H766l-8 78Q690 21 617.5.5T475-20Q301-20 211 84t-90 315z" horiz-adv-x="1126" unicode="u"/><glyph d="M0 987h270l258-655 250 655h258L635 0H414z" horiz-adv-x="1036" unicode="v"/><glyph d="M0 987h264l170-625 160 625h205l162-625 169 625h265L1071 0H866L696 643 530 0H324z" horiz-adv-x="1394" unicode="w"/><glyph d="M0 987h287l215-305 217 305h260L637 506 993 0H709L489 311 274 0H6l352 487z" horiz-adv-x="993" unicode="x"/><glyph d="M8 987h273l274-758q88 233 119 351 78 287 106 407h250q-76-301-161-544.5T698 25q-82-156-147-242-66-80-190.5-126T76-391L53-164q111 0 198 26.5T385-51q8 10 14.5 22.5T414-4z" horiz-adv-x="1030" unicode="y"/><glyph d="M70 0v182l536 600H92v205h807V795L371 203h544V0H70z" horiz-adv-x="989" unicode="z"/><glyph d="M31 608v152q82 12 119.5 51T188 926v264q0 156 80 229.5t254 77.5l19-178q-86-4-108.5-46T410 1147V926q0-184-131-242 68-35 99.5-91T410 442V217q0-35 4-64.5t17-52 39-36T541 49l-19-176q-174 2-254 77t-80 230v262q0 76-37.5 115T31 608z" horiz-adv-x="571" unicode="{"/><glyph d="M137-152v1663h232V-152H137z" horiz-adv-x="507" unicode="|"/><glyph d="M20 49q80 2 107 42t27 126v225q0 94 31.5 150.5T285 684q-131 57-131 242v221q2 94-29 128t-105 44l21 178q174-4 254-77.5t80-229.5V926q0-76 38-115t119-51V608q-82-12-119.5-51T375 442V180q0-305-334-307z" horiz-adv-x="563" unicode="}"/><glyph d="M-4 1036q18 147 90 221t184 74q61 0 105.5-17.5t78-38T515 1238t56-17q31 0 58.5 20.5T668 1335h211q-6-121-51.5-192.5t-104-92T616 1030q-102 0-184 55-82 57-129 58-37 0-61.5-23.5T209 1036H-4z" horiz-adv-x="876" unicode="~"/><glyph d="M90 842q0 66 44 116t116 50q70 0 114-50.5T408 842q0-66-44.5-116T250 676q-72 0-116 50T90 842zm33-1223v934h258v-934H123z" horiz-adv-x="493" unicode="¡"/><glyph d="M162 686q0 84 25.5 153.5t71.5 122 105.5 83T487 1081v285h164v-283q96-16 223-75l-73-185q-72 35-122 47.5T582 883q-74 0-119-45t-53.5-88-8.5-66q0-35 11.5-72t35-67.5 57.5-50 77-19.5q92 0 209 62l81-183q-66-39-119-56t-102-24V-23H487v302q-127 18-209.5 107t-99 171T162 686z" unicode="¢"/><glyph d="M59 504v223h138v213q0 154 67 262 45 74 116 117t131 52 93 9q129 0 228.5-63.5T991 1128L791 985q-45 82-90.5 118t-96.5 36q-61 0-107-46t-46-165V727h387V504H451V248h532V0H197v504H59z" unicode="£"/><glyph d="M25 336l135 135q-29 53-45.5 111.5T98 707t16.5 124T160 942L25 1077l196 197 139-137q53 27 110.5 41t121.5 14q61 0 119.5-15.5T823 1135l140 139 196-197-135-135q29-53 45-111.5t16-123.5q0-63-16-123t-45-113l135-135-196-197-138 140q-53-27-110.5-42.5T592 221q-63 0-120.5 15.5T360 279L221 139zm329 371q0-51 18.5-95.5t50.5-77 76-52 93-19.5q61-2 108.5 26.5t78 68.5 44 82 6.5 67q2 84-48 144t-107.5 80.5T592 950q-78 2-146-51-61-51-78.5-103.5T354 707z" horiz-adv-x="1204" unicode="¤"/><glyph d="M-35 1356h277l268-537 252 537h270L705 707h208V485H629V0H379v485H92v222h207z" horiz-adv-x="997" unicode="¥"/><glyph d="M143-152v631h244v-631H143zm0 1031v632h244V879H143z" horiz-adv-x="534" unicode="¦"/><glyph d="M100-166L211 31q53-45 113.5-79T444-82t84 28.5T553 10q0 33-17.5 59.5t-50 52T413 172t-79 53q-100 66-156.5 139.5T121 559q0 111 52 180.5T311 856q-63 57-92 116.5T190 1114q0 135 90.5 207t237.5 72q98 0 180-33t156-107l-131-174q-35 37-87 69t-110 32q-39 0-63.5-21.5T438 1098q0-53 48.5-97.5T600 909q70-55 139-114 53-49 84-115t31-133q0-98-44-167T688 260q53-47 88-104.5T811 6q0-104-72-182-70-76-155-98-96-21-129-21-117 0-203 38t-152 91zm271 748q0-55 40-100.5T537 381q39 29 54 64.5t15 70.5q0 43-32.5 92T455 723q-49-23-66.5-62.5T371 582z" horiz-adv-x="956" unicode="§"/><glyph d="M90 1282q0 49 36 91t107 42q70 0 105-42t35-91q0-51-35-93t-105-42q-72 0-107.5 42T90 1282zm426 0q0 49 36 91t107 42q70 0 105-42t35-91q0-51-35-93t-105-42q-72 0-107.5 42t-35.5 93z" horiz-adv-x="905" unicode="¨"/><glyph d="M90 608q0 225 103 414 74 141 193.5 223t231 103.5T795 1370q244 0 413-133 172-135 230-309 59-182 59-320 0-229-101.5-415.5T1133-76q-162-82-338-82T487.5-92.5 267 80.5t-133 245T90 608zm174 0q0-117 34-225.5T399.5 190t167-134T795 6q184 0 311 103 125 104 172 243 45 133 45 256 0 180-76 324-51 104-147 174t-179 86-126 16q-131 0-230.5-50t-166-134T298 831.5 264 608zm131-4q0 170 70 283 72 117 164 151 94 37 174 37 129 0 212-53t134-164l-172-94q-31 63-69 99t-101 36q-68 0-123-53-53-53-66.5-120T604 604q0-135 62.5-212T817 315q47 0 88 25t84 102l168-100q-66-117-149.5-161T811 137q-141 0-244 72-102 74-137 179.5T395 604z" horiz-adv-x="1587" unicode="©"/><glyph d="M51 829q0 109 82 166 86 61 178 76 94 14 150 19v20q0 41-29 67.5t-70 26.5q-43 0-84.5-18.5T188 1133l-79 129q72 55 140 76.5t130 21.5q129 0 202.5-65.5T655 1079V618H479l-6 58q-84-72-180-72-104 0-173 59.5T51 829zm189 11q0-78 98-78 41 0 71.5 14.5T463 813v133q-70-6-119-14-59-12-81.5-37T240 840z" horiz-adv-x="737" unicode="ª"/><glyph d="M29 512l403 434 168-139-278-283 305-276L471 92zm444 0l404 434 165-139-278-283 307-276L915 92z" horiz-adv-x="1118" unicode="«"/><glyph d="M41 831v224h958V299H778v532H41z" unicode="¬"/><glyph d="M74 412v243h493V412H74z" horiz-adv-x="643" unicode="­"/><glyph d="M92 608q0 225 103 414 74 145 197.5 225t231 101.5T797 1370q242 0 411-133 172-135 230-309 59-182 59-320 0-229-101.5-415.5T1133-76q-162-82-338-82T487.5-92.5 268 80.5t-132 245T92 608zm172 0q0-117 34-225.5T399.5 190t167-134T797 6q184 0 309 100 129 102 174 244 45 135 45 258 0 180-76 324-51 104-147 174t-179 86-126 16q-188 0-322-108-129-106-170-242-41-141-41-250zm238-399v831h311q166 0 246-66.5t80-195.5q0-104-47.5-162.5T973 532l174-323H944L786 510h-94V209H502zm190 475h107q78 0 110.5 20.5T942 784q0 49-29.5 65.5T807 866H692V684z" horiz-adv-x="1589" unicode="®"/><glyph d="M78 1184v182h706v-182H78z" horiz-adv-x="905" unicode="¯"/><glyph d="M82 1061q0 82 34 141.5t85 96 107.5 52T406 1366q86 0 169-47 82-45 118-115.5t36-144.5q0-84-35-143.5T608 819t-106-51-94-14q-94 0-176 49T116 919.5 82 1061zm213-2q0-63 35-95t76-32 75.5 31.5T516 1059q0 66-35 97.5t-75 31.5q-41 0-76-32t-35-97z" horiz-adv-x="811" unicode="°"/><glyph d="M47 0v225h959V0H47zm0 729v225h373v412h213V954h373V729H633V324H420v405H47z" unicode="±"/><glyph d="M68 1290q23 23 109.5 56.5T332 1380q111 0 176-54t65-152q0-63-29.5-106.5T461 983L285 852h290V690H90v131q0 88 72 142l147 112q59 47 60 84 0 35-20.5 47.5T299 1219q-53 0-96-25t-66-41z" horiz-adv-x="645" unicode="²"/><glyph d="M76 743l63 142q35-29 77-48.5t89-19.5q100 0 101 80 0 41-26 61.5T289 979q-31 0-60-4v108q20 29 49 58.5t66 60.5H106v160h451v-158q-94-53-147-114 80-10 131-59.5T592 895q0-117-79-174t-198-57q-74 0-136 22.5T76 743z" horiz-adv-x="645" unicode="³"/><glyph d="M188 1212l392 289 120-170-444-229z" horiz-adv-x="905" unicode="´"/><glyph d="M137-387V987h254V387q0-86 41-143.5T565 186q66 0 116 30t73 85q14 31 14 150v536h254V272q0-53 12.5-73.5T1075 178q27 0 64 15l32-187q-74-29-149-29-156 0-191 134-47-68-114.5-101T569-23q-59 0-113.5 21.5T373 53v-440H137z" horiz-adv-x="1191" unicode="µ"/><glyph d="M31 938q0 121 63 227 63 111 159.5 156t188.5 45h156V-297H389v813q-80 8-145.5 46T130 656.5t-73.5 129T31 938zM690-297v1663h213V-297H690z" horiz-adv-x="1032" unicode="¶"/><glyph d="M190 756q0 57 36 103t108 46 106.5-46T475 756q0-55-34.5-101.5T334 608t-108 46-36 102z" horiz-adv-x="667" unicode="·"/><glyph d="M262-371L383-90h225L442-371H262z" horiz-adv-x="905" unicode="¸"/><glyph d="M104 1210l258 152h144V690H315v447l-133-74z" horiz-adv-x="645" unicode="¹"/><glyph d="M59 983q0 102 47 203 49 94 129 134t166 40q125 0 211-77t109-163q25-90 24-137 0-106-49-201-47-94-128-136t-167-42q-98 0-164.5 39T129 741.5t-55.5 126T59 983zm203 0q0-82 33.5-140.5T401 784t106 58.5T541 983q0 86-34 144.5T403 1186q-72 0-106.5-58.5T262 983z" horiz-adv-x="802" unicode="º"/><glyph d="M47 248l305 276L74 807l168 139 401-434L203 92zm442 0l308 276-279 283 166 139 403-434L643 92z" horiz-adv-x="1116" unicode="»"/><glyph d="M6 1210l258 152h144V690H217v447l-133-74zM76 119l1273 1249 138-143L207-27zm842 26v150l313 377h174V289h80V145h-80V0h-188v145H918zm153 144h146v176z" horiz-adv-x="1585" unicode="¼"/><glyph d="M36 1210l258 152h144V690H247v447l-133-74zm1-1091l1273 1249 138-143L168-27zm949 493q23 23 109.5 56.5T1250 702q111 0 176-54t65-152q0-63-29.5-106.5T1379 305l-176-131h290V12h-485v131q0 88 72 142l147 112q59 47 60 84 0 35-20.5 47.5T1217 541q-53 0-96-25t-66-41z" horiz-adv-x="1585" unicode="½"/><glyph d="M90 743l63 142q35-29 77-48.5t89-19.5q100 0 101 80 0 41-26 61.5T303 979q-31 0-60-4v108q20 29 49 58.5t66 60.5H120v160h451v-158q-94-53-147-114 80-10 131-59.5T606 895q0-117-79-174t-198-57q-74 0-136 22.5T90 743zm35-624l1273 1249 138-143L256-27zm777 26v150l313 377h174V289h80V145h-80V0h-188v145H902zm153 144h146v176z" horiz-adv-x="1585" unicode="¾"/><glyph d="M33-51q0 98 43 176t123 164q131 137 131 221v49h248v-86q0-84-40-149.5T416 176q-49-49-87-99T291-45q0-63 41-100t117-37q55 0 118.5 38T698-20l156-160q-57-78-137-127-86-55-159-75.5T424-403q-147 0-242 65-68 53-100.5 107.5T41-127t-8 76zm262 899q0 66 44 116t116 50q70 0 113.5-50.5T612 848q0-66-44-116t-113-50q-72 0-116 50t-44 116z" horiz-adv-x="864" unicode="¿"/><glyph d="M0 0l492 1366h260L1245 0H977l-94 274H360L268 0H0zm338 1671l121 170 391-289-68-110zM440 506h365l-182 538z" horiz-adv-x="1245" unicode="À"/><glyph d="M0 0l492 1366h260L1245 0H977l-94 274H360L268 0H0zm399 1552l392 289 120-170-444-229zm41-1046h365l-182 538z" horiz-adv-x="1245" unicode="Á"/><glyph d="M0 0l492 1366h260L1245 0H977l-94 274H360L268 0H0zm297 1546l236 267h188l232-265-131-92-197 197-197-199zM440 506h365l-182 538z" horiz-adv-x="1245" unicode="Â"/><glyph d="M0 0l492 1366h260L1245 0H977l-94 274H360L268 0H0zm223 1524q37 104 101.5 167.5T475 1755q53 0 149-59 82-57 115-58 18 0 53 24t68 105l141-75q-29-104-98.5-169T745 1458q-57 0-151 62-84 55-113 55-23 0-54.5-23.5T362 1446zM440 506h365l-182 538z" horiz-adv-x="1245" unicode="Ã"/><glyph d="M0 0l492 1366h260L1245 0H977l-94 274H360L268 0H0zm268 1622q0 49 36 91t107 42q70 0 105-42t35-91q0-51-35-93t-105-42q-72 0-107.5 42t-35.5 93zM440 506h365l-182 538zm254 1116q0 49 36 91t107 42q70 0 105-42t35-91q0-51-35-93t-105-42q-72 0-107.5 42t-35.5 93z" horiz-adv-x="1245" unicode="Ä"/><glyph d="M0 0l492 1366h260L1245 0H977l-94 274H360L268 0H0zm412 1645q0 53 19.5 95t51 70.5 70.5 43 80 14.5q90 0 148.5-63.5T840 1647q0-45-15.5-86t-44-72-68.5-48.5-87-17.5q-92 0-152.5 61.5T412 1645zm28-1139h365l-182 538zm105 1141q0-41 21.5-68t58.5-27q39 0 60.5 27t21.5 68-21.5 67.5T625 1741q-37 0-58.5-26.5T545 1647z" horiz-adv-x="1245" unicode="Å"/><glyph d="M0 0l791 1366h966v-248h-594V809h484V563h-484V248h639V0H901v360H504L295 0H0zm625 594h276v489z" horiz-adv-x="1857" unicode="Æ"/><glyph d="M88 678q0 184 50 318t132 223.5T457.5 1352t216.5 43q139 0 243.5-51.5T1069 1235t59-82L936 991q-10 18-29.5 46t-51.5 53.5-76 44-101 18.5q-66 0-124-27.5t-103-86T380 892t-26-214q0-223 96.5-343T707 215q117 0 200.5 40t120.5 77l84-228q-47-55-189.5-94T676-29q-129 0-236.5 45T253 150.5 131 372 88 678zM467-371L588-90h225L647-371H467z" horiz-adv-x="1169" unicode="Ç"/><glyph d="M150 0v1366h890v-248H412V807h520V559H412V248h673V0H150zm165 1671l121 170 391-289-68-110z" horiz-adv-x="1140" unicode="È"/><glyph d="M150 0v1366h890v-248H412V807h520V559H412V248h673V0H150zm269 1552l392 289 120-170-444-229z" horiz-adv-x="1140" unicode="É"/><glyph d="M150 0v1366h890v-248H412V807h520V559H412V248h673V0H150zm120 1546l236 267h188l232-265-131-92-197 197-197-199z" horiz-adv-x="1140" unicode="Ê"/><glyph d="M150 0v1366h890v-248H412V807h520V559H412V248h673V0H150zm96 1622q0 49 36 91t107 42q70 0 105-42t35-91q0-51-35-93t-105-42q-72 0-107.5 42t-35.5 93zm426 0q0 49 36 91t107 42q70 0 105-42t35-91q0-51-35-93t-105-42q-72 0-107.5 42t-35.5 93z" horiz-adv-x="1140" unicode="Ë"/><glyph d="M16 1671l121 170 391-289-68-110zM150 0v1366h262V0H150z" horiz-adv-x="563" unicode="Ì"/><glyph d="M79 1552l392 289 120-170-444-229zM150 0v1366h262V0H150z" horiz-adv-x="563" unicode="Í"/><glyph d="M-35 1546l236 267h188l232-265-131-92-197 197-197-199zM150 0v1366h262V0H150z" horiz-adv-x="563" unicode="Î"/><glyph d="M-53 1622q0 49 36 91t107 42q70 0 105-42t35-91q0-51-35-93t-105-42q-72 0-107.5 42t-35.5 93zM150 0v1366h262V0H150zm223 1622q0 49 36 91t107 42q70 0 105-42t35-91q0-51-35-93t-105-42q-72 0-107.5 42t-35.5 93z" horiz-adv-x="563" unicode="Ï"/><glyph d="M0 596v215h150v555h385q74 0 163.5-12.5T870 1305q129-63 209-189 82-123 103-239 20-137 20-187 0-178-70.5-330.5T986 145.5 868 70Q729 0 545 0H150v596H0zm412-350h106q143 0 234 51 94 51 139 156.5T936 678q0 117-41 220t-127 161q-45 31-111.5 46T524 1120H412V811h301V596H412V246z" horiz-adv-x="1286" unicode="Ð"/><glyph d="M150 0v1366h268l526-852v852h258V0H973L410 903V0H150zm147 1524q37 104 101.5 167.5T549 1755q53 0 149-59 82-57 115-58 18 0 53 24t68 105l141-75q-29-104-98.5-169T819 1458q-57 0-151 62-84 55-113 55-23 0-54.5-23.5T436 1446z" horiz-adv-x="1351" unicode="Ñ"/><glyph d="M88 684q0 131 37 259t111.5 228.5 186.5 162 261 61.5q209 0 354.5-123T1235 981q53-176 53-297 0-131-38-259t-112.5-228.5-188-163T684-29q-150 0-261.5 62.5t-186 163T125 425 88 684zm264 0q0-90 21.5-175T437 358.5 541.5 254 684 215q82 0 151.5 44T940 363.5 991 481q31 113 31 203 0 135-49 252-47 117-127 167t-162 50q-80 0-142.5-39T437 1009.5 373.5 859 352 684zm70 987l121 170 391-289-68-110z" horiz-adv-x="1376" unicode="Ò"/><glyph d="M88 684q0 131 37 259t111.5 228.5 186.5 162 261 61.5q209 0 354.5-123T1235 981q53-176 53-297 0-131-38-259t-112.5-228.5-188-163T684-29q-150 0-261.5 62.5t-186 163T125 425 88 684zm264 0q0-90 21.5-175T437 358.5 541.5 254 684 215q82 0 151.5 44T940 363.5 991 481q31 113 31 203 0 135-49 252-47 117-127 167t-162 50q-80 0-142.5-39T437 1009.5 373.5 859 352 684zm151 868l392 289 120-170-444-229z" horiz-adv-x="1376" unicode="Ó"/><glyph d="M88 684q0 131 37 259t111.5 228.5 186.5 162 261 61.5q209 0 354.5-123T1235 981q53-176 53-297 0-131-38-259t-112.5-228.5-188-163T684-29q-150 0-261.5 62.5t-186 163T125 425 88 684zm264 0q0-90 21.5-175T437 358.5 541.5 254 684 215q82 0 151.5 44T940 363.5 991 481q31 113 31 203 0 135-49 252-47 117-127 167t-162 50q-80 0-142.5-39T437 1009.5 373.5 859 352 684zm14 862l236 267h188l232-265-131-92-197 197-197-199z" horiz-adv-x="1376" unicode="Ô"/><glyph d="M88 684q0 131 37 259t111.5 228.5 186.5 162 261 61.5q209 0 354.5-123T1235 981q53-176 53-297 0-131-38-259t-112.5-228.5-188-163T684-29q-150 0-261.5 62.5t-186 163T125 425 88 684zm211 840q37 104 101.5 167.5T551 1755q53 0 149-59 82-57 115-58 18 0 53 24t68 105l141-75q-29-104-98.5-169T821 1458q-57 0-151 62-84 55-113 55-23 0-54.5-23.5T438 1446zm53-840q0-90 21.5-175T437 358.5 541.5 254 684 215q82 0 151.5 44T940 363.5 991 481q31 113 31 203 0 135-49 252-47 117-127 167t-162 50q-80 0-142.5-39T437 1009.5 373.5 859 352 684z" horiz-adv-x="1376" unicode="Õ"/><glyph d="M88 684q0 131 37 259t111.5 228.5 186.5 162 261 61.5q209 0 354.5-123T1235 981q53-176 53-297 0-131-38-259t-112.5-228.5-188-163T684-29q-150 0-261.5 62.5t-186 163T125 425 88 684zm258 938q0 49 36 91t107 42q70 0 105-42t35-91q0-51-35-93t-105-42q-72 0-107.5 42t-35.5 93zm6-938q0-90 21.5-175T437 358.5 541.5 254 684 215q82 0 151.5 44T940 363.5 991 481q31 113 31 203 0 135-49 252-47 117-127 167t-162 50q-80 0-142.5-39T437 1009.5 373.5 859 352 684zm420 938q0 49 36 91t107 42q70 0 105-42t35-91q0-51-35-93t-105-42q-72 0-107.5 42t-35.5 93z" horiz-adv-x="1376" unicode="Ö"/><glyph d="M129 414l246 262-246 262 150 158 247-260 250 260 150-158-246-262 246-262-150-158-250 260-247-260z" horiz-adv-x="1054" unicode="×"/><glyph d="M63 90l138 164q-55 94-83 203.5T90 684q0 131 37 258t111.5 227.5 186.5 162 261 61.5q111 0 198-32t156-87l123 149 168-147-147-178q53-92 79.5-201t26.5-213q0-209-88-383-61-131-169.5-214t-202-98.5T686-27Q491-27 348 86L229-59zm291 594q0-111 31-205l494 600q-78 74-193 74-80 0-142.5-39T439 1009.5 375.5 859 354 684zm148-405q35-25 86-44.5t98-19.5q82 0 151.5 43T943 363.5 993 481q31 113 31 203 0 96-27 197z" horiz-adv-x="1378" unicode="Ø"/><glyph d="M141 469v897h262V496q0-123 69-202t198-79 195.5 79T932 496v870h262V469q0-117-41-209t-112.5-156.5T874 5 668-29q-174 0-299 76-127 78-177.5 191.5T141 469zm242 1202l121 170 391-289-68-110z" horiz-adv-x="1337" unicode="Ù"/><glyph d="M141 469v897h262V496q0-123 69-202t198-79 195.5 79T932 496v870h262V469q0-117-41-209t-112.5-156.5T874 5 668-29q-174 0-299 76-127 78-177.5 191.5T141 469zm383 1083l392 289 120-170-444-229z" horiz-adv-x="1337" unicode="Ú"/><glyph d="M141 469v897h262V496q0-123 69-202t198-79 195.5 79T932 496v870h262V469q0-117-41-209t-112.5-156.5T874 5 668-29q-174 0-299 76-127 78-177.5 191.5T141 469zm207 1077l236 267h188l232-265-131-92-197 197-197-199z" horiz-adv-x="1337" unicode="Û"/><glyph d="M141 469v897h262V496q0-123 69-202t198-79 195.5 79T932 496v870h262V469q0-117-41-209t-112.5-156.5T874 5 668-29q-174 0-299 76-127 78-177.5 191.5T141 469zm191 1153q0 49 36 91t107 42q70 0 105-42t35-91q0-51-35-93t-105-42q-72 0-107.5 42t-35.5 93zm426 0q0 49 36 91t107 42q70 0 105-42t35-91q0-51-35-93t-105-42q-72 0-107.5 42t-35.5 93z" horiz-adv-x="1337" unicode="Ü"/><glyph d="M0 1366h293l280-543 269 543h288L700 549V0H438v549zm413 186l392 289 120-170-444-229z" horiz-adv-x="1130" unicode="Ý"/><glyph d="M150 0v1366h262v-211h149q98 0 181-13.5t161-51.5q98-49 145.5-145.5T1096 737q0-117-45-209-43-92-93.5-135T866 332q-68-29-138.5-40T586 281H412V0H150zm262 516h141q55 0 100 6t78 23q55 27 81 74t26 100q0 57-29 106t-84 70q-72 25-166 25H412V516z" horiz-adv-x="1128" unicode="Þ"/><glyph d="M31 782v205h137q4 145 78 242 80 98 179 131t189 33q109 0 195-32t145.5-88 89-130 29.5-150V817H899q-43 0-68.5-19.5T805 743q0-59 131-129 84-49 139-92 39-33 66.5-93t27.5-132q0-115-65-197Q1038 22 959.5-.5T840-23q-98 0-184.5 32T516 88l98 197q39-33 96.5-61.5T823 195q100 0 101 86 0 51-34 84.5T778 438q-125 61-172 124t-47 175q0 61 21.5 112.5T639 939t85 59.5 97 23.5q-6 70-49 101.5t-88 42-57 10.5q-104 0-155.5-69T420 940V0H166v782H31z" horiz-adv-x="1224" unicode="ß"/><glyph d="M66 291q0 80 33.5 138t88 98 117 61.5T418 616q29 4 205 25v14q0 82-42 117t-116 35-141.5-32T221 713l-84 178q43 43 160 82 123 39 211 39 94 0 164.5-29t117-81 68-121.5T879 635V0H645l-10 74Q594 29 530.5 3T391-23q-63 0-121.5 21.5T166 60t-72.5 98.5T66 291zm155 1040l121 170 391-289-68-110zm92-1034q0-49 36-79t102-30q49 0 95 20.5t79 51.5v201q-125-14-166-21-82-16-114-56t-32-87z" horiz-adv-x="999" unicode="à"/><glyph d="M66 291q0 80 33.5 138t88 98 117 61.5T418 616q29 4 205 25v14q0 82-42 117t-116 35-141.5-32T221 713l-84 178q43 43 160 82 123 39 211 39 94 0 164.5-29t117-81 68-121.5T879 635V0H645l-10 74Q594 29 530.5 3T391-23q-63 0-121.5 21.5T166 60t-72.5 98.5T66 291zm224 921l392 289 120-170-444-229zm23-915q0-49 36-79t102-30q49 0 95 20.5t79 51.5v201q-125-14-166-21-82-16-114-56t-32-87z" horiz-adv-x="999" unicode="á"/><glyph d="M66 291q0 80 33.5 138t88 98 117 61.5T418 616q29 4 205 25v14q0 82-42 117t-116 35-141.5-32T221 713l-84 178q43 43 160 82 123 39 211 39 94 0 164.5-29t117-81 68-121.5T879 635V0H645l-10 74Q594 29 530.5 3T391-23q-63 0-121.5 21.5T166 60t-72.5 98.5T66 291zm110 915l236 267h188l232-265-131-92-197 197-197-199zm137-909q0-49 36-79t102-30q49 0 95 20.5t79 51.5v201q-125-14-166-21-82-16-114-56t-32-87z" horiz-adv-x="999" unicode="â"/><glyph d="M66 291q0 80 33.5 138t88 98 117 61.5T418 616q29 4 205 25v14q0 82-42 117t-116 35-141.5-32T221 713l-84 178q43 43 160 82 123 39 211 39 94 0 164.5-29t117-81 68-121.5T879 635V0H645l-10 74Q594 29 530.5 3T391-23q-63 0-121.5 21.5T166 60t-72.5 98.5T66 291zm38 893q37 104 101.5 167.5T356 1415q53 0 149-59 82-57 115-58 18 0 53 24t68 105l141-75q-29-104-98.5-169T626 1118q-57 0-151 62-84 55-113 55-23 0-54.5-23.5T243 1106zm209-887q0-49 36-79t102-30q49 0 95 20.5t79 51.5v201q-125-14-166-21-82-16-114-56t-32-87z" horiz-adv-x="999" unicode="ã"/><glyph d="M66 291q0 80 33.5 138t88 98 117 61.5T418 616q29 4 205 25v14q0 82-42 117t-116 35-141.5-32T221 713l-84 178q43 43 160 82 123 39 211 39 94 0 164.5-29t117-81 68-121.5T879 635V0H645l-10 74Q594 29 530.5 3T391-23q-63 0-121.5 21.5T166 60t-72.5 98.5T66 291zm94 991q0 49 36 91t107 42q70 0 105-42t35-91q0-51-35-93t-105-42q-72 0-107.5 42t-35.5 93zm153-985q0-49 36-79t102-30q49 0 95 20.5t79 51.5v201q-125-14-166-21-82-16-114-56t-32-87zm273 985q0 49 36 91t107 42q70 0 105-42t35-91q0-51-35-93t-105-42q-72 0-107.5 42t-35.5 93z" horiz-adv-x="999" unicode="ä"/><glyph d="M66 291q0 80 33.5 138t88 98 117 61.5T418 616q29 4 205 25v14q0 82-42 117t-116 35-141.5-32T221 713l-84 178q43 43 160 82 123 39 211 39 94 0 164.5-29t117-81 68-121.5T879 635V0H645l-10 74Q594 29 530.5 3T391-23q-63 0-121.5 21.5T166 60t-72.5 98.5T66 291zm247 6q0-49 36-79t102-30q49 0 95 20.5t79 51.5v201q-125-14-166-21-82-16-114-56t-32-87zm1 1008q0 53 19.5 95t51 70.5 70.5 43 80 14.5q90 0 148.5-63.5T742 1307q0-45-15.5-86t-44-72-68.5-48.5-87-17.5q-92 0-152.5 61.5T314 1305zm133 2q0-41 21.5-68t58.5-27q39 0 60.5 27t21.5 68-21.5 67.5T527 1401q-37 0-58.5-26.5T447 1307z" horiz-adv-x="999" unicode="å"/><glyph d="M66 295q0 129 92 207 98 80 209 100 129 23 194 23h60v55q0 57-39 92t-105 35q-74 0-134-23.5T221 713l-84 180q61 49 164 84 104 35 186 35 197 0 289-123 123 123 303 123 166 0 271-92 106-92 137-218 31-123 31-227v-45H879q8-125 77.5-180t180.5-55q98 0 171.5 30.5T1409 283l68-207q-45-33-86-47-31-14-121-33-86-18-168-19-104 0-192.5 36T758 121Q699 53 621 15T410-23q-70 0-132.5 20.5T168 58t-74.5 99.5T66 295zm251 0q0-53 34-82t93-29q55 0 100.5 28t62 63.5T623 336v106h-64q-117 0-179.5-44T317 295zm568 317h375q-6 84-48.5 129t-80 56.5T1079 809q-66 0-125-49.5T885 612z" horiz-adv-x="1576" unicode="æ"/><glyph d="M68 489q0 184 73 312 76 125 182.5 168t196.5 43q156 0 250-74t137-158L719 653q-31 53-77 99.5T522 799q-82 0-142.5-73T319 500q0-147 61.5-225T559 197q104 0 166.5 31.5T821 293l74-209q-55-41-150.5-74T526-23q-90 0-173 31t-146.5 94.5-101 159.5T68 489zm239-860L428-90h225L487-371H307z" horiz-adv-x="948" unicode="ç"/><glyph d="M68 494q0 125 35.5 221t98 161.5T347 977t177 35q166 0 271-92 106-92 137-218 31-123 31-227v-45H324q8-125 77.5-180T582 195q98 0 171.5 30.5T854 283l68-207q-45-33-86-47-25-12-121-31-94-21-168-21-96 0-183.5 31t-153 95.5-104 160.5T68 494zm192 837l121 170 391-289-68-110zm70-719h375q-6 84-48.5 129t-81 56.5T524 809q-66 0-125-49.5T330 612z" horiz-adv-x="1021" unicode="è"/><glyph d="M68 494q0 125 35.5 221t98 161.5T347 977t177 35q166 0 271-92 106-92 137-218 31-123 31-227v-45H324q8-125 77.5-180T582 195q98 0 171.5 30.5T854 283l68-207q-45-33-86-47-25-12-121-31-94-21-168-21-96 0-183.5 31t-153 95.5-104 160.5T68 494zm259 718l392 289 120-170-444-229zm3-600h375q-6 84-48.5 129t-81 56.5T524 809q-66 0-125-49.5T330 612z" horiz-adv-x="1021" unicode="é"/><glyph d="M68 494q0 125 35.5 221t98 161.5T347 977t177 35q166 0 271-92 106-92 137-218 31-123 31-227v-45H324q8-125 77.5-180T582 195q98 0 171.5 30.5T854 283l68-207q-45-33-86-47-25-12-121-31-94-21-168-21-96 0-183.5 31t-153 95.5-104 160.5T68 494zm120 712l236 267h188l232-265-131-92-197 197-197-199zm142-594h375q-6 84-48.5 129t-81 56.5T524 809q-66 0-125-49.5T330 612z" horiz-adv-x="1021" unicode="ê"/><glyph d="M68 494q0 125 35.5 221t98 161.5T347 977t177 35q166 0 271-92 106-92 137-218 31-123 31-227v-45H324q8-125 77.5-180T582 195q98 0 171.5 30.5T854 283l68-207q-45-33-86-47-25-12-121-31-94-21-168-21-96 0-183.5 31t-153 95.5-104 160.5T68 494zm122 788q0 49 36 91t107 42q70 0 105-42t35-91q0-51-35-93t-105-42q-72 0-107.5 42t-35.5 93zm140-670h375q-6 84-48.5 129t-81 56.5T524 809q-66 0-125-49.5T330 612zm286 670q0 49 36 91t107 42q70 0 105-42t35-91q0-51-35-93t-105-42q-72 0-107.5 42t-35.5 93z" horiz-adv-x="1021" unicode="ë"/><glyph d="M0 1331l121 170 391-289-68-110zM127 0v987h252V0H127z" horiz-adv-x="505" unicode="ì"/><glyph d="M-2 1212l392 289 120-170-444-229zM127 0v987h252V0H127z" horiz-adv-x="505" unicode="í"/><glyph d="M-66 1206l236 267h188l232-265-131-92-197 197-197-199zM127 0v987h252V0H127z" horiz-adv-x="505" unicode="î"/><glyph d="M-92 1282q0 49 36 91t107 42q70 0 105-42t35-91q0-51-35-93t-105-42q-72 0-107.5 42t-35.5 93zM127 0v987h252V0H127zm207 1282q0 49 36 91t107 42q70 0 105-42t35-91q0-51-35-93t-105-42q-72 0-107.5 42t-35.5 93z" horiz-adv-x="505" unicode="ï"/><glyph d="M76 492q0 164 61 286 63 123 159.5 173t203.5 50q49 0 95-12t85-39q-41 92-158 162-115 70-223 88l39 193q78-14 146.5-36t127.5-54l113 151 149-119-108-145q84-72 137-167t83-189.5 38-174 8-118.5q0-127-30.5-230.5t-90-177.5T762 19.5 555-20q-96 0-183 31.5t-152.5 96-104.5 161T76 492zm248 2q0-74 19-129.5t51-93.5 72-56 83-18q45 0 86 22.5t71.5 65.5 47 99T770 502q0 59-12.5 126.5T729 735q-88 51-178 51-98 0-162.5-72.5T324 494z" horiz-adv-x="1107" unicode="ð"/><glyph d="M127 0v987h231l13-78q59 49 134 76t150 27q119 0 203-53.5t118-157 34-217.5V0H756v563q0 113-46 174.5T578 799q-59 0-109.5-31T381 700V0H127zm47 1184q37 104 101.5 167.5T426 1415q53 0 149-59 82-57 115-58 18 0 53 24t68 105l141-75q-29-104-98.5-169T696 1118q-57 0-151 62-84 55-113 55-23 0-54.5-23.5T313 1106z" horiz-adv-x="1130" unicode="ñ"/><glyph d="M68 498q0 150 65 276 68 127 178.5 182.5T541 1012q166 0 280-90 113-88 152-209 41-127 41-215 0-150-68-279-51-100-134-157.5t-154.5-71T541-23q-119 0-208 45.5t-147.5 119-88 166.5T68 498zm219 833l121 170 391-289-68-110zm30-833q0-63 14.5-117.5t42-95.5 70-64.5T541 197q66-4 110.5 31.5T722 313t36 101.5 6 83.5q0 111-46 186.5t-98.5 95T541 797q-86 0-144-62-47-51-63.5-113.5T317 498z" horiz-adv-x="1081" unicode="ò"/><glyph d="M68 498q0 150 65 276 68 127 178.5 182.5T541 1012q166 0 280-90 113-88 152-209 41-127 41-215 0-150-68-279-51-100-134-157.5t-154.5-71T541-23q-119 0-208 45.5t-147.5 119-88 166.5T68 498zm249 0q0-63 14.5-117.5t42-95.5 70-64.5T541 197q66-4 110.5 31.5T722 313t36 101.5 6 83.5q0 111-46 186.5t-98.5 95T541 797q-86 0-144-62-47-51-63.5-113.5T317 498zm12 714l392 289 120-170-444-229z" horiz-adv-x="1081" unicode="ó"/><glyph d="M68 498q0 150 65 276 68 127 178.5 182.5T541 1012q166 0 280-90 113-88 152-209 41-127 41-215 0-150-68-279-51-100-134-157.5t-154.5-71T541-23q-119 0-208 45.5t-147.5 119-88 166.5T68 498zm141 708l236 267h188l232-265-131-92-197 197-197-199zm108-708q0-63 14.5-117.5t42-95.5 70-64.5T541 197q66-4 110.5 31.5T722 313t36 101.5 6 83.5q0 111-46 186.5t-98.5 95T541 797q-86 0-144-62-47-51-63.5-113.5T317 498z" horiz-adv-x="1081" unicode="ô"/><glyph d="M68 498q0 150 65 276 68 127 178.5 182.5T541 1012q166 0 280-90 113-88 152-209 41-127 41-215 0-150-68-279-51-100-134-157.5t-154.5-71T541-23q-119 0-208 45.5t-147.5 119-88 166.5T68 498zm71 686q37 104 101.5 167.5T391 1415q53 0 149-59 82-57 115-58 18 0 53 24t68 105l141-75q-29-104-98.5-169T661 1118q-57 0-151 62-84 55-113 55-23 0-54.5-23.5T278 1106zm178-686q0-63 14.5-117.5t42-95.5 70-64.5T541 197q66-4 110.5 31.5T722 313t36 101.5 6 83.5q0 111-46 186.5t-98.5 95T541 797q-86 0-144-62-47-51-63.5-113.5T317 498z" horiz-adv-x="1081" unicode="õ"/><glyph d="M68 498q0 150 65 276 68 127 178.5 182.5T541 1012q166 0 280-90 113-88 152-209 41-127 41-215 0-150-68-279-51-100-134-157.5t-154.5-71T541-23q-119 0-208 45.5t-147.5 119-88 166.5T68 498zm131 784q0 49 36 91t107 42q70 0 105-42t35-91q0-51-35-93t-105-42q-72 0-107.5 42t-35.5 93zm118-784q0-63 14.5-117.5t42-95.5 70-64.5T541 197q66-4 110.5 31.5T722 313t36 101.5 6 83.5q0 111-46 186.5t-98.5 95T541 797q-86 0-144-62-47-51-63.5-113.5T317 498zm308 784q0 49 36 91t107 42q70 0 105-42t35-91q0-51-35-93t-105-42q-72 0-107.5 42t-35.5 93z" horiz-adv-x="1081" unicode="ö"/><glyph d="M45 563v225h959V563H45zm326-254q0 63 44 111.5T526 469q68 0 112-48t44-112q0-66-44-114t-112-48-111.5 48.5T371 309zm0 760q0 63 44 112.5t111 49.5q68 0 112-49t44-113q0-63-44-112.5T526 907t-111.5 49.5T371 1069z" unicode="÷"/><glyph d="M68 498q0 150 65 276 68 127 178.5 182.5T541 1012q106 0 213-47l73 114 134-96-76-119q66-74 97.5-168t31.5-198q0-150-68-279-51-100-134-157.5t-154.5-71T541-23q-113 0-197 39l-80-125-133 97 80 125q-72 76-107.5 177T68 498zm247 0q0-92 29-174l293 456h2q-39 20-98 21-90 4-146-60-55-61-68.5-130.5T315 498zm154-295q37-10 72-10 63-2 107 28.5t70.5 76.5 38 100.5T766 498q0 74-18 145z" horiz-adv-x="1081" unicode="ø"/><glyph d="M121 399v588h254V426q0-102 37-165.5T539 197q74 0 125 29.5t81 56.5v704h254V0H766l-8 78Q690 21 617.5.5T475-20Q301-20 211 84t-90 315zm172 932l121 170 391-289-68-110z" horiz-adv-x="1126" unicode="ù"/><glyph d="M121 399v588h254V426q0-102 37-165.5T539 197q74 0 125 29.5t81 56.5v704h254V0H766l-8 78Q690 21 617.5.5T475-20Q301-20 211 84t-90 315zm253 813l392 289 120-170-444-229z" horiz-adv-x="1126" unicode="ú"/><glyph d="M121 399v588h254V426q0-102 37-165.5T539 197q74 0 125 29.5t81 56.5v704h254V0H766l-8 78Q690 21 617.5.5T475-20Q301-20 211 84t-90 315zm122 807l236 267h188l232-265-131-92-197 197-197-199z" horiz-adv-x="1126" unicode="û"/><glyph d="M121 399v588h254V426q0-102 37-165.5T539 197q74 0 125 29.5t81 56.5v704h254V0H766l-8 78Q690 21 617.5.5T475-20Q301-20 211 84t-90 315zm88 883q0 49 36 91t107 42q70 0 105-42t35-91q0-51-35-93t-105-42q-72 0-107.5 42t-35.5 93zm426 0q0 49 36 91t107 42q70 0 105-42t35-91q0-51-35-93t-105-42q-72 0-107.5 42t-35.5 93z" horiz-adv-x="1126" unicode="ü"/><glyph d="M8 987h273l274-758q88 233 119 351 78 287 106 407h250q-76-301-161-544.5T698 25q-82-156-147-242-66-80-190.5-126T76-391L53-164q111 0 198 26.5T385-51q8 10 14.5 22.5T414-4zm327 225l392 289 120-170-444-229z" horiz-adv-x="1030" unicode="ý"/><glyph d="M141-387v1753h254V922q35 33 91.5 61.5T618 1012q141 0 239.5-86T991 717q35-129 35-221 0-156-69.5-284T772 30.5 528-23q-61 0-131 29v-393H141zm254 614q68-28 119-28 76-2 128 28.5t83 75.5 43 96.5 10 92.5q2 90-34.5 170.5t-87 110.5-91.5 26q-53 0-100-30t-70-64V227z" horiz-adv-x="1130" unicode="þ"/><glyph d="M8 987h273l274-758q88 233 119 351 78 287 106 407h250q-76-301-161-544.5T698 25q-82-156-147-242-66-80-190.5-126T76-391L53-164q111 0 198 26.5T385-51q8 10 14.5 22.5T414-4zm186 295q0 49 36 91t107 42q70 0 105-42t35-91q0-51-35-93t-105-42q-72 0-107.5 42t-35.5 93zm426 0q0 49 36 91t107 42q70 0 105-42t35-91q0-51-35-93t-105-42q-72 0-107.5 42t-35.5 93z" horiz-adv-x="1030" unicode="ÿ"/><glyph d="M80 682q0 160 51 286t142.5 215 215 136 269.5 47h1026v-248h-629V807h520V559h-520V248h674V0H758Q604 0 479 48T265 185 128 400 80 682zm272 2q0-96 31-176t84-138.5 123.5-90T743 248h150v870H743q-96 2-170.5-38t-125-102.5-75-141T352 684z" horiz-adv-x="1884" unicode="Œ"/><glyph d="M68 498q0 150 65 276 68 127 178.5 182.5T541 1012q117 0 199.5-45T877 844q57 78 137 123t184 45q166 0 270-92 106-92 138-218 31-123 30-227v-45H997q8-125 78-180t180-55q98 0 172 30.5t101 57.5l67-207q-45-33-86-47-27-12-120-33-90-18-168-19-111 0-206 42T868 141Q817 75 737 26T528-23q-115 0-200.5 45.5t-144 119-87 166.5T68 498zm249 0q0-63 14.5-117.5t42-95.5 70-64.5T541 197q66 0 110.5 33.5T722 313t34 101.5 8 83.5q0 111-46 186.5t-98.5 95T541 797q-86 0-144-62-47-51-63.5-113.5T317 498zm687 114h374q-6 78-45 123t-79 59.5-56 14.5q-66 0-125-49.5T1004 612z" horiz-adv-x="1695" unicode="œ"/><glyph d="M0 1366h293l280-543 269 543h288L700 549V0H438v549zm244 256q0 49 36 91t107 42q70 0 105-42t35-91q0-51-35-93t-105-42q-72 0-107.5 42t-35.5 93zm426 0q0 49 36 91t107 42q70 0 105-42t35-91q0-51-35-93t-105-42q-72 0-107.5 42t-35.5 93z" horiz-adv-x="1130" unicode="Ÿ"/><glyph d="M100 1206l236 267h188l232-265-131-92-197 197-197-199z" horiz-adv-x="905" unicode="ˆ"/><glyph d="M43 1184q37 104 101.5 167.5T295 1415q53 0 149-59 82-57 115-58 18 0 53 24t68 105l141-75q-29-104-98.5-169T565 1118q-57 0-151 62-84 55-113 55-23 0-54.5-23.5T182 1106z" horiz-adv-x="905" unicode="˜"/><glyph horiz-adv-x="934"/><glyph horiz-adv-x="1868"/><glyph horiz-adv-x="934"/><glyph horiz-adv-x="1868"/><glyph horiz-adv-x="622"/><glyph horiz-adv-x="467"/><glyph horiz-adv-x="311"/><glyph horiz-adv-x="311"/><glyph horiz-adv-x="233"/><glyph horiz-adv-x="373"/><glyph horiz-adv-x="103"/><glyph d="M74 412v243h493V412H74z" horiz-adv-x="643" unicode="‐"/><glyph d="M74 412v243h493V412H74z" horiz-adv-x="643" unicode="‑"/><glyph d="M74 412v243h493V412H74z" horiz-adv-x="643" unicode="‒"/><glyph d="M0 418v192h1026V418H0z" horiz-adv-x="1024" unicode="–"/><glyph d="M0 418v192h2048V418H0z" horiz-adv-x="2048" unicode="—"/><glyph d="M68 1188q0 80 38.5 131t110.5 51q70 0 106.5-44t36.5-101q0-61-37.5-103.5T236 1075q4-35 34.5-74.5T336 932l-68-92q-111 86-155.5 179T68 1188z" horiz-adv-x="442" unicode="‘"/><glyph d="M92 1221q0 57 37 101t107 44q72 0 110.5-51t38.5-131q0-76-45-169T184 836l-67 92q35 29 65.5 68.5T217 1071q-49 4-87 46t-38 104z" horiz-adv-x="452" unicode="’"/><glyph d="M53 160q0 57 37 101t107 44q72 0 110.5-51T346 123q0-76-45-169T145-225l-67 92q35 29 65.5 68.5T178 10q-49 4-87 46T53 160z" horiz-adv-x="417" unicode="‚"/><glyph d="M68 1188q0 80 38.5 131t110.5 51q70 0 106.5-44t36.5-101q0-61-37.5-103.5T236 1075q4-35 34.5-74.5T336 932l-68-92q-111 86-155.5 179T68 1188zm408 0q0 80 38.5 131t110.5 51q70 0 106.5-44t36.5-101q0-61-37.5-103.5T644 1075q4-35 34.5-74.5T744 932l-68-92q-111 86-155.5 179T476 1188z" horiz-adv-x="849" unicode="“"/><glyph d="M92 1221q0 57 37 101t107 44q72 0 110.5-51t38.5-131q0-76-45-169T184 836l-67 92q35 29 65.5 68.5T217 1071q-49 4-87 46t-38 104zm408 0q0 57 37 101t107 44q72 0 110.5-51t38.5-131q0-76-45-169T592 836l-67 92q35 29 65.5 68.5T625 1071q-49 4-87 46t-38 104z" horiz-adv-x="860" unicode="”"/><glyph d="M53 160q0 57 37 101t107 44q72 0 110.5-51T346 123q0-76-45-169T145-225l-67 92q35 29 65.5 68.5T178 10q-49 4-87 46T53 160zm408 0q0 57 37 101t107 44q72 0 110.5-51T754 123q0-76-45-169T553-225l-67 92q35 29 65.5 68.5T586 10q-49 4-87 46t-38 104z" horiz-adv-x="825" unicode="„"/><glyph d="M102 788q0 127 70 228 70 104 168 149t186 45q127 0 228-69 104-70 150-168.5T950 788t-33.5-162.5-91-134-135.5-91T526 367t-163.5 33.5-135 91-91.5 134T102 788z" horiz-adv-x="1052" unicode="•"/><glyph d="M74 125q0 57 35.5 103T217 274t106.5-46T358 125q0-55-34.5-101.5T217-23 109.5 23.5 74 125zm453 0q0 57 35.5 103T670 274t106.5-46T811 125q0-55-34.5-101.5T670-23 562.5 23.5 527 125zm452 0q0 57 35.5 103t107.5 46 106.5-46 34.5-103q0-55-34.5-101.5T1122-23t-107.5 46.5T979 125z" horiz-adv-x="1335" unicode="…"/><glyph horiz-adv-x="373"/><glyph d="M29 512l403 434 168-139-278-283 305-276L471 92z" horiz-adv-x="673" unicode="‹"/><glyph d="M47 248l305 276L74 807l168 139 401-434L203 92z" horiz-adv-x="673" unicode="›"/><glyph horiz-adv-x="467"/><glyph d="M66 481v162h673V481H469q6-47 16.5-95t35-87 66.5-62.5T700 213q90 0 150.5 40T952 332l99-213Q967 41 881 9T672-23q-127 0-216 46.5t-147.5 119T220 305t-40 176H66zm0 267v161h118q12 125 78 248 68 117 168 170t223 53q121 0 209-43t133-94 58-63L899 997q-45 78-95 111t-128 33q-86 0-131-51-55-59-72-181h266V748H66z" unicode="€"/><glyph d="M37 1204v162h461v-162H342V778H193v426H37zm536-426v588h181l123-375 116 375h176V778h-145v303L920 774h-89l-110 301V778H573z" horiz-adv-x="1277" unicode="™"/><glyph d="M0 0v983h983V0H0z" horiz-adv-x="983" unicode=""/><glyph d="M31 782v205h131v35q0 147 66.5 232T393 1368q88 27 174 27 127 0 208-27t134-59l-96-201q-39 27-98.5 44T586 1169q-70 0-121-34.5T414 1012v-25h213V782H416V0H162v782H31zM741 0v987h254V0H741z" horiz-adv-x="1122" unicode="ﬁ"/><glyph d="M31 782v205h133v31q0 158 90 244 88 88 203 108 129 23 198 23 8 0 45-3.5t103-7.5q102-8 186-28V289q0-53 21.5-72.5T1071 197t82 18l45-192q-8-8-74-27-61-19-127-19-84 0-136 26t-80.5 66-37 87-8.5 84v931q-49 6-108 7-92 0-152.5-37T414 1018v-31h198V782H416V0H162v782H31z" horiz-adv-x="1239" unicode="ﬂ"/></font>
</defs>
</svg>
