<?xml version="1.0" encoding="UTF-8"?>
<svg width="1400px" height="450px" viewBox="0 0 1400 450" version="1.1" xmlns="http://www.w3.org/2000/svg" xmlns:xlink="http://www.w3.org/1999/xlink">
    <!-- Generator: Sketch 61.2 (89653) - https://sketch.com -->
    <title>hero-design-strategy</title>
    <desc>Created with Sketch.</desc>
    <defs>
        <rect id="path-1" x="0" y="0" width="340" height="204" rx="16"></rect>
        <rect id="path-3" x="66" y="28" width="208" height="148" rx="4"></rect>
    </defs>
    <g id="hero-design-strategy" stroke="none" stroke-width="1" fill="none" fill-rule="evenodd">
        <g transform="translate(-103.000000, 24.000000)">
            <path d="M168.724884,394 C325.665129,370.354328 427.795649,406.903706 489.58883,412.799259 C551.382012,418.694812 629.863277,391.324978 758.474312,403.925781 C887.085348,416.526585 881.38714,356.495527 742.82957,361.823773 C604.271999,367.152019 503.750265,383.45787 362.623751,361.823773 C221.497236,340.189675 87.5966138,333.033838 26.0794575,358.735482 C-35.4376987,384.437127 11.7846396,417.645672 168.724884,394 Z" id="Path-6" fill="#F4F4F4" opacity="0.600000024"></path>
            <path d="M95.8637897,356.283816 C156.5573,337.613271 209.873634,339.970738 309.686946,346.576785 C409.500258,353.182832 492.832419,350.576785 554.870832,348.576785 C616.909245,346.576785 678.962507,332.576785 759.507512,348.576785 C840.052517,364.576785 815.25992,385.576785 690.450552,376.576785 C565.641184,367.576785 482.012571,385.434785 459.204768,385.434785 C436.396965,385.434785 304.415611,375.076894 174.107226,381.076785 C87.2349694,385.076712 61.1538239,376.812389 95.8637897,356.283816 Z" id="Path-6-Copy" fill="#F4F4F4" transform="translate(443.500000, 363.217393) scale(1, -1) translate(-443.500000, -363.217393) "></path>
            <g id="design-strategy-hero" transform="translate(216.000000, 0.000000)">
                <g id="Mac" transform="translate(161.000000, 119.000000)">
                    <rect id="Rectangle" stroke="#E60000" stroke-width="2" fill="#FFFFFF" x="137" y="203" width="67" height="30"></rect>
                    <rect id="Rectangle-Copy-13" stroke="#E60000" stroke-width="2" fill="#FFFFFF" x="52" y="233" width="237" height="10"></rect>
                    <mask id="mask-2" fill="white">
                        <use xlink:href="#path-1"></use>
                    </mask>
                    <rect stroke="#E60000" stroke-width="2" x="1" y="1" width="338" height="202" rx="16"></rect>
                    <mask id="mask-4" fill="white">
                        <use xlink:href="#path-3"></use>
                    </mask>
                    <rect stroke="#E60000" stroke-width="2" x="67" y="29" width="206" height="146" rx="4"></rect>
                    <rect id="Rectangle-Copy" fill="#E60000" mask="url(#mask-4)" x="78" y="40" width="45" height="2" rx="1"></rect>
                    <rect id="Rectangle-Copy-4" fill="#E60000" mask="url(#mask-4)" x="139" y="40" width="33" height="2" rx="1"></rect>
                    <rect id="Rectangle-Copy-6" fill="#E60000" mask="url(#mask-4)" x="188" y="40" width="33" height="2" rx="1"></rect>
                    <rect id="Rectangle-Copy-7" fill="#E60000" mask="url(#mask-4)" x="239" y="40" width="25" height="2" rx="1"></rect>
                    <rect id="Rectangle" fill="#E60000" mask="url(#mask-4)" x="68" y="50" width="204" height="2"></rect>
                    <g id="Group" mask="url(#mask-4)">
                        <g transform="translate(76.000000, 68.000000)">
                            <rect id="Rectangle" stroke="#E60000" stroke-width="2" fill="#FFFFFF" x="1" y="5" width="186" height="48" rx="4"></rect>
                            <rect id="Rectangle-Copy-5" stroke="#E60000" stroke-width="2" fill="#FFFFFF" x="1" y="1" width="74" height="56" rx="4"></rect>
                            <rect id="Rectangle-Copy" stroke="none" fill="#E60000" x="83" y="18" width="95" height="2" rx="1"></rect>
                            <rect id="Rectangle-Copy-2" stroke="none" fill="#E60000" x="83" y="28" width="95" height="2" rx="1"></rect>
                            <rect id="Rectangle-Copy-3" stroke="none" fill="#E60000" x="83" y="38" width="95" height="2" rx="1"></rect>
                            <rect id="Rectangle-Copy-10" stroke="none" fill="#E60000" x="62" y="70" width="65" height="2" rx="1"></rect>
                            <g id="Group-2" stroke="none" stroke-width="1" fill="none" transform="translate(30.000000, 80.000000)">
                                <rect id="Rectangle-Copy-9" fill="#E60000" x="43" y="0" width="85" height="2" rx="1"></rect>
                                <rect id="Rectangle-Copy-12" fill="#E60000" x="0" y="0" width="35" height="2" rx="1"></rect>
                                <rect id="Rectangle-Copy-8" fill="#E60000" x="0" y="10" width="95" height="2" rx="1"></rect>
                                <rect id="Rectangle-Copy-11" fill="#E60000" x="103" y="10" width="25" height="2" rx="1"></rect>
                            </g>
                        </g>
                    </g>
                </g>
                <g id="Arrows" transform="translate(88.000000, 88.000000)" fill="#4A4D4E" fill-rule="nonzero">
                    <path id="Path" d="M237.548988,42.8570288 L251.548215,43.0042251 L244.401405,56.9298531 L237.548988,42.8570288 Z M243.621634,35.9795336 L245.621524,36.0005616 L245.568953,41.0002853 L243.569064,40.9792572 L243.621634,35.9795336 Z M243.726774,25.9800863 L245.726664,26.0011144 L245.674094,31.000838 L243.674204,30.97981 L243.726774,25.9800863 Z M243.831915,15.9806391 L245.831804,16.0016671 L245.779234,21.0013908 L243.779344,20.9803627 L243.831915,15.9806391 Z M245.073598,-6.99961308 C248.939378,-6.95896594 252.04026,-3.79218139 251.999613,0.0735981661 C251.962536,3.5998723 249.324305,6.48970131 245.9271,6.93924108 L245.884374,11.0019435 L243.884485,10.9809154 L243.927194,6.91821286 C240.540193,6.39733985 237.96331,3.45267597 238.000387,-0.0735981661 C238.041034,-3.93937773 241.207819,-7.04026023 245.073598,-6.99961308 Z"></path>
                    <path id="Path-Copy" d="M85.28125,97.8211141 L99.28125,104.821114 L85.28125,111.821114 L85.281,105.821 L82.859714,105.821114 L82.859714,103.821114 L85.281,103.821 L85.28125,97.8211141 Z M27.859714,103.821114 L27.859714,105.821114 L22.859714,105.821114 L22.859714,103.821114 L27.859714,103.821114 Z M37.859714,103.821114 L37.859714,105.821114 L32.859714,105.821114 L32.859714,103.821114 L37.859714,103.821114 Z M47.859714,103.821114 L47.859714,105.821114 L42.859714,105.821114 L42.859714,103.821114 L47.859714,103.821114 Z M57.859714,103.821114 L57.859714,105.821114 L52.859714,105.821114 L52.859714,103.821114 L57.859714,103.821114 Z M67.859714,103.821114 L67.859714,105.821114 L62.859714,105.821114 L62.859714,103.821114 L67.859714,103.821114 Z M77.859714,103.821114 L77.859714,105.821114 L72.859714,105.821114 L72.859714,103.821114 L77.859714,103.821114 Z M17.7217166,98.9884414 L19.72168,99.0005427 L19.6914267,104.000451 L17.6914633,103.98835 L17.7217166,98.9884414 Z M17.7822231,88.9886244 L19.7821865,89.0007257 L19.7519332,94.0006342 L17.7519698,93.9885329 L17.7822231,88.9886244 Z M17.8427296,78.9888075 L19.842693,79.0009088 L19.8124397,84.0008172 L17.8124763,83.9887159 L17.8427296,78.9888075 Z M17.9032361,68.9889905 L19.9031995,69.0010918 L19.8729462,74.0010003 L17.8729829,73.988899 L17.9032361,68.9889905 Z M19.0423546,46.0001281 C22.908277,46.0235199 26.0232636,49.1764321 25.9998719,53.0423546 C25.9785344,56.5687591 23.3532283,59.4703351 19.9580643,59.9350338 L19.9334528,64.0011833 L17.9334894,63.989082 L17.9570835,59.922783 C14.5682825,59.416605 11.9787928,56.4837028 12.0001281,52.9576454 C12.0235199,49.091723 15.1764321,45.9767364 19.0423546,46.0001281 Z"></path>
                    <path id="Path-Copy-3" d="M453.28125,97.8211141 L467.28125,104.821114 L453.28125,111.821114 L453.281,105.821 L450.859714,105.821114 L450.859714,103.821114 L453.281,103.821 L453.28125,97.8211141 Z M395.859714,103.821114 L395.859714,105.821114 L390.859714,105.821114 L390.859714,103.821114 L395.859714,103.821114 Z M405.859714,103.821114 L405.859714,105.821114 L400.859714,105.821114 L400.859714,103.821114 L405.859714,103.821114 Z M415.859714,103.821114 L415.859714,105.821114 L410.859714,105.821114 L410.859714,103.821114 L415.859714,103.821114 Z M425.859714,103.821114 L425.859714,105.821114 L420.859714,105.821114 L420.859714,103.821114 L425.859714,103.821114 Z M435.859714,103.821114 L435.859714,105.821114 L430.859714,105.821114 L430.859714,103.821114 L435.859714,103.821114 Z M445.859714,103.821114 L445.859714,105.821114 L440.859714,105.821114 L440.859714,103.821114 L445.859714,103.821114 Z M385.721717,98.9884414 L387.72168,99.0005427 L387.691427,104.000451 L385.691463,103.98835 L385.721717,98.9884414 Z M385.782223,88.9886244 L387.782186,89.0007257 L387.751933,94.0006342 L385.75197,93.9885329 L385.782223,88.9886244 Z M385.84273,78.9888075 L387.842693,79.0009088 L387.81244,84.0008172 L385.812476,83.9887159 L385.84273,78.9888075 Z M385.903236,68.9889905 L387.9032,69.0010918 L387.872946,74.0010003 L385.872983,73.988899 L385.903236,68.9889905 Z M387.042355,46.0001281 C390.908277,46.0235199 394.023264,49.1764321 393.999872,53.0423546 C393.978534,56.5687591 391.353228,59.4703351 387.958064,59.9350338 L387.933453,64.0011833 L385.933489,63.989082 L385.957083,59.922783 C382.568282,59.416605 379.978793,56.4837028 380.000128,52.9576454 C380.02352,49.091723 383.176432,45.9767364 387.042355,46.0001281 Z"></path>
                    <path id="Path-Copy-2" d="M-0.0127409746,193.000012 C3.51372224,192.993593 6.43587149,195.59598 6.92727833,198.987381 L10.9967342,198.979983 L11.0003744,200.979979 L6.93091864,200.987395 C6.45186068,204.380562 3.53920419,206.99357 0.0127409746,206.999988 C-3.85324587,207.007025 -6.99295176,203.878728 -6.9999884,200.012741 C-7.00702505,196.146754 -3.87872782,193.007048 -0.0127409746,193.000012 Z M84.2685322,192.846608 L98.28125,199.821114 L84.2940142,206.846584 L84.2685322,192.846608 Z M20.9967176,198.961781 L21.0003579,200.961778 L16.0003662,200.970879 L15.9967259,198.970882 L20.9967176,198.961781 Z M30.996701,198.94358 L31.0003413,200.943577 L26.0003496,200.952677 L25.9967093,198.952681 L30.996701,198.94358 Z M40.9966845,198.925379 L41.0003248,200.925375 L36.000333,200.934476 L35.9966928,198.934479 L40.9966845,198.925379 Z M50.9966679,198.907177 L51.0003082,200.907174 L46.0003165,200.916275 L45.9966762,198.916278 L50.9966679,198.907177 Z M60.9966513,198.888976 L61.0002916,200.888972 L56.0002999,200.898073 L55.9966596,198.898076 L60.9966513,198.888976 Z M70.9966348,198.870774 L71.0002751,200.870771 L66.0002833,200.879872 L65.9966431,198.879875 L70.9966348,198.870774 Z M80.9966182,198.852573 L81.0002585,200.85257 L76.0002668,200.86167 L75.9966265,198.861674 L80.9966182,198.852573 Z"></path>
                    <path id="Path-Copy-4" d="M386.987259,193.000012 C390.513722,192.993593 393.435871,195.59598 393.927278,198.987381 L397.996734,198.979983 L398.000374,200.979979 L393.930919,200.987395 C393.451861,204.380562 390.539204,206.99357 387.012741,206.999988 C383.146754,207.007025 380.007048,203.878728 380.000012,200.012741 C379.992975,196.146754 383.121272,193.007048 386.987259,193.000012 Z M471.268532,192.846608 L485.28125,199.821114 L471.294014,206.846584 L471.268532,192.846608 Z M407.996718,198.961781 L408.000358,200.961778 L403.000366,200.970879 L402.996726,198.970882 L407.996718,198.961781 Z M417.996701,198.94358 L418.000341,200.943577 L413.00035,200.952677 L412.996709,198.952681 L417.996701,198.94358 Z M427.996684,198.925379 L428.000325,200.925375 L423.000333,200.934476 L422.996693,198.934479 L427.996684,198.925379 Z M437.996668,198.907177 L438.000308,200.907174 L433.000316,200.916275 L432.996676,198.916278 L437.996668,198.907177 Z M447.996651,198.888976 L448.000292,200.888972 L443.0003,200.898073 L442.99666,198.898076 L447.996651,198.888976 Z M457.996635,198.870774 L458.000275,200.870771 L453.000283,200.879872 L452.996643,198.879875 L457.996635,198.870774 Z M467.996618,198.852573 L468.000258,200.85257 L463.000267,200.86167 L462.996626,198.861674 L467.996618,198.852573 Z"></path>
                </g>
                <g id="Circle-Chartbars" transform="translate(70.000000, 56.000000)">
                    <circle id="Oval" stroke="#E60000" stroke-width="2" fill="#FFFFFF" cx="36" cy="36" r="36"></circle>
                    <g id="IC-Chartbars" transform="translate(12.000000, 7.000000)">
                        <polygon id="Path" points="0 0 48 0 48 48 0 48"></polygon>
                        <line x1="10" y1="41" x2="37" y2="41" id="Path" stroke="#E60000" stroke-width="2" stroke-linecap="round" stroke-linejoin="round"></line>
                        <path d="M10,25 L17,25 L17,37 L10,37 L10,25 Z M30,19 L37,19 L37,37 L30,37 L30,19 Z M20,13 L27,13 L27,37 L20,37 L20,13 Z" id="Shape" stroke="#666666" stroke-width="2" stroke-linecap="round" stroke-linejoin="round"></path>
                    </g>
                </g>
                <g id="Circle-HTML" transform="translate(520.000000, 56.000000)" stroke-width="2">
                    <circle id="Oval-Copy" stroke="#E60000" fill="#FFFFFF" cx="36" cy="36" r="36"></circle>
                    <g id="IC-HTML" transform="translate(12.000000, 12.000000)" stroke-linecap="round" stroke-linejoin="round">
                        <g id="Group-4" transform="translate(4.500000, 15.500000)">
                            <polyline id="Stroke-1" stroke="#666666" points="11.10525 15.625 0.10525 8.6305 11.10525 2.625"></polyline>
                            <polyline id="Stroke-2" stroke="#666666" points="28.10525 15.625 39.10525 8.6305 28.10525 2.625"></polyline>
                            <line x1="23.60525" y1="0.125" x2="15.60525" y2="17.125" id="Stroke-3" stroke="#E60000"></line>
                        </g>
                    </g>
                </g>
                <g id="Circle-Security" transform="translate(589.000000, 251.000000)">
                    <circle id="Oval-Copy-2" stroke="#E60000" stroke-width="2" fill="#FFFFFF" cx="36" cy="36" r="36"></circle>
                    <g id="IC-Virus-Protect" transform="translate(12.000000, 12.000000)">
                        <rect id="Rectangle" x="0" y="0" width="48" height="48"></rect>
                        <line x1="41.2225" y1="10.858" x2="12.42675" y2="32.83375" id="Path" stroke="#E60000" stroke-width="2" stroke-linecap="round" stroke-linejoin="round"></line>
                        <path d="M24.8095,7.73075 C24.3169584,7.42329568 23.6922916,7.42329568 23.19975,7.73075 C12.748,14.2585 6.5,8.431 6.5,11.696 C6.5,33.84675 20.78525,41.185 23.54475,42.40425 C23.8317212,42.5317712 24.1592788,42.5317712 24.44625,42.40425 C27.20575,41.18525 41.5000103,33.84675 41.5000103,11.696 C41.50925,8.4195 35.26125,14.2585 24.8095,7.73075 Z" id="Path" stroke="#666666" stroke-width="2" stroke-linecap="round" stroke-linejoin="round"></path>
                    </g>
                </g>
                <g id="Circle-legal" transform="translate(0.000000, 251.000000)">
                    <circle id="Oval-Copy-3" stroke="#E60000" stroke-width="2" fill="#FFFFFF" cx="36" cy="36" r="36"></circle>
                    <g id="IC-legal" transform="translate(12.000000, 10.000000)">
                        <polygon id="Path" points="0 48 48 48 48 0 0 0"></polygon>
                        <path d="M37,13 L37,39.5 C37,41.425 35.425,43 33.5,43 L13.5,43 C11.575,43 10,41.425 10,39.5 L10,7.5 C10,5.85 11.85,4 13.5,4 L28,4 L37,13 Z" id="Path" stroke="#666666" stroke-width="2" stroke-linejoin="round"></path>
                        <path d="M37,13 L29,13 C28.45,13 28,12.55 28,12 L28,4" id="Path" stroke="#666666" stroke-width="2" stroke-linejoin="round"></path>
                        <path d="M20.975,33.075 C20.975,33.075 21.725,34.675 23.975,34.475 C26.325,34.275 27.475,31.2 24.075,28.975 C23.1,28.325 20.825,27.2 20.975,24.975 C21.125,22.7 23.775,22.125 23.775,22.125" id="Path" stroke="#E60000" stroke-width="2" stroke-linecap="round"></path>
                        <path d="M24.1,29 C24.1,29 27.55,27.875 26.9,25 C26.525,23.275 25.275,22.9 24.05,22.15 C23.45,21.8 22.25,21.15 21.875,20.125 C21.325,18.675 22,16.775 24.075,16.55 C25.7,16.35 27,17.4 27,17.4" id="Path" stroke="#E60000" stroke-width="2" stroke-linecap="round"></path>
                        <polygon id="Path" points="0 0 48 0 48 48 0 48"></polygon>
                    </g>
                </g>
                <g id="Circle-Cal" transform="translate(295.000000, 0.000000)">
                    <circle id="Oval" stroke="#E60000" stroke-width="2" fill="#FFFFFF" cx="36" cy="36" r="36"></circle>
                    <g id="IC-Calendar" transform="translate(12.000000, 10.000000)">
                        <g id="8465ae56-63e7-4818-a0a1-548ac3df3bfc">
                            <g id="63b60634-9329-4de9-9d53-2edcc343beb3"></g>
                        </g>
                        <g id="7160884c-91a4-4290-853a-c6e48c7dc7fe" transform="translate(15.000000, 23.000000)"></g>
                        <line x1="41" y1="17" x2="7" y2="17" id="Shape" stroke="#E60000" stroke-width="2"></line>
                        <line x1="16" y1="4" x2="16" y2="11" id="c54e50db-abcb-4519-8c53-99d555832166" stroke="#666666" stroke-width="2" stroke-linecap="round"></line>
                        <line x1="31" y1="4" x2="31" y2="11" id="245d9534-736c-463e-9489-8cff2d409de9" stroke="#666666" stroke-width="2" stroke-linecap="round"></line>
                        <rect id="Rectangle-path" x="0" y="0" width="48" height="48"></rect>
                        <rect id="Rectangle-path" stroke="#666666" stroke-width="2" stroke-linecap="round" x="6" y="8" width="35" height="35" rx="4"></rect>
                        <g id="c4f90de4-bc6f-469b-a9f1-3585684236ca" transform="translate(15.500000, 23.500000)" stroke="#666666" stroke-linecap="round" stroke-linejoin="round" stroke-width="2">
                            <path d="M2.67,5.34 C2.98479466,5.2800339 3.3045447,5.24990039 3.625,5.24999975 C6.04,5.24999975 8,6.93 8,9 C8,11.07 6.04,13 3.625,13 C2.14343442,13.0398369 0.75637852,12.2745647 0,11" id="Shape"></path>
                            <polyline id="Shape" points="0 0.5 7.5 0.5 2.6575 5.3425"></polyline>
                            <polyline id="Shape" points="12.5 2.5 16.5 0 16.5 13"></polyline>
                        </g>
                    </g>
                </g>
            </g>
        </g>
    </g>
</svg>