<?xml version="1.0" encoding="UTF-8"?>
<svg width="1400px" height="450px" viewBox="0 0 1400 450" version="1.1" xmlns="http://www.w3.org/2000/svg" xmlns:xlink="http://www.w3.org/1999/xlink">
    <!-- Generator: Sketch 61.2 (89653) - https://sketch.com -->
    <title>clean-code-hero</title>
    <desc>Created with Sketch.</desc>
    <defs>
        <rect id="path-1" x="0" y="0" width="126" height="48" rx="4"></rect>
        <rect id="path-3" x="16" y="0" width="219" height="130" rx="8"></rect>
        <rect id="path-5" x="16" y="0" width="219" height="130" rx="8"></rect>
    </defs>
    <g id="clean-code-hero" stroke="none" stroke-width="1" fill="none" fill-rule="evenodd">
        <path d="M-987.027492,241 C-937.027492,230 -913.027492,242 -775.864005,241 C-638.700517,240 -463.619196,237.614399 -283.864005,225 C-104.108813,212.385601 -92.8640046,204 -15.8640046,204 C61.1359954,204 206.105487,238.120925 360.135995,241 C514.166504,243.879075 560.807518,195.648159 657.135995,207 C753.464473,218.351841 684.389421,269.668396 657.135995,276 C629.88257,282.331604 527.275623,279.359591 360.135995,276 C192.996368,272.640409 119.135995,271 60.1359954,264 C1.13599537,257 -41.8640046,293 -168.864005,274 C-295.864005,255 -674.32241,256.187821 -788.027492,257 C-901.732574,257.812179 -904.027492,257 -954.305497,257 C-1004.5835,257 -1037.02749,252 -987.027492,241 Z" id="Path-5" fill="#F4F4F4" opacity="0.600000024"></path>
        <path d="M-543.985643,241.988372 C-543.643943,224.988372 -420.404952,241.092977 -263.965995,238.996854 C-107.527037,236.900731 -25.5158995,235.061461 111.756655,220.398591 C249.02921,205.735722 262.553935,203.988372 321.356057,203.988372 C380.158179,203.988372 485.928679,235.650242 603.556221,238.996854 C721.183763,242.343466 774.356057,219.988372 837.356057,219.988372 C900.356057,219.988372 851.176864,272.320751 830.364406,279.680553 C809.551948,287.040355 731.194725,283.585713 603.556221,279.680553 C475.917717,275.775394 419.513216,273.868596 374.457045,265.731856 C329.400873,257.595117 296.999675,280.073809 200.014357,257.988372 C103.029039,235.902935 -258.985643,257.988372 -374.985643,257.988372 C-490.985643,257.988372 -544.327342,258.988372 -543.985643,241.988372 Z" id="Path-5-Copy" fill="#F4F4F4" transform="translate(162.170262, 243.994186) scale(1, -1) translate(-162.170262, -243.994186) "></path>
        <g id="Mac" transform="translate(103.014357, 128.000000)">
            <g id="keyboard" transform="translate(41.000000, 175.000000)">
                <g>
                    <mask id="mask-2" fill="white">
                        <use xlink:href="#path-1"></use>
                    </mask>
                    <rect stroke="#E60000" stroke-width="2" x="1" y="1" width="124" height="46" rx="4"></rect>
                    <rect id="Rectangle" stroke="#E60000" stroke-width="2" mask="url(#mask-2)" x="34" y="33" width="51" height="6" rx="2"></rect>
                    <g id="Group-4" mask="url(#mask-2)" stroke="#E60000" stroke-width="2">
                        <g transform="translate(8.000000, 20.000000)">
                            <rect id="Rectangle-Copy-38" x="1" y="1" width="12" height="6" rx="2"></rect>
                            <rect id="Rectangle-Copy-39" x="19" y="1" width="6" height="6" rx="2"></rect>
                            <rect id="Rectangle-Copy-40" x="31" y="1" width="6" height="6" rx="2"></rect>
                            <rect id="Rectangle-Copy-41" x="43" y="1" width="6" height="6" rx="2"></rect>
                            <rect id="Rectangle-Copy-42" x="55" y="1" width="6" height="6" rx="2"></rect>
                            <rect id="Rectangle-Copy-43" x="67" y="1" width="6" height="6" rx="2"></rect>
                            <rect id="Rectangle-Copy-44" x="79" y="1" width="6" height="6" rx="2"></rect>
                            <rect id="Rectangle-Copy-46" x="83" y="13" width="8" height="6" rx="2"></rect>
                            <rect id="Rectangle-Copy-47" x="13" y="13" width="7" height="6" rx="2"></rect>
                            <rect id="Rectangle-Copy-59" x="1" y="13" width="6" height="6" rx="2"></rect>
                            <rect id="Rectangle-Copy-45" x="91" y="1" width="6" height="6" rx="2"></rect>
                            <path d="M98,19 L107.963272,19.0006747 L108.075685,18.9972247 C108.594527,18.958946 109,18.5243235 109,18 L109,2 C109,1.44771525 108.552285,1 108,1 L104,1 C103.447715,1 103,1.44771525 103,2 L103,13 L98,13 C97.4477153,13 97,13.4477153 97,14 L97,18 C97,18.5522847 97.4477153,19 98,19 Z" id="Combined-Shape"></path>
                        </g>
                    </g>
                    <g id="Group-3" mask="url(#mask-2)" stroke="#E60000" stroke-width="2">
                        <g transform="translate(8.000000, 8.000000)">
                            <rect id="Rectangle-Copy-55" x="1" y="1" width="6" height="6" rx="2"></rect>
                            <rect id="Rectangle-Copy-54" x="13" y="1" width="6" height="6" rx="2"></rect>
                            <rect id="Rectangle-Copy-53" x="25" y="1" width="6" height="6" rx="2"></rect>
                            <rect id="Rectangle-Copy-52" x="37" y="1" width="6" height="6" rx="2"></rect>
                            <rect id="Rectangle-Copy-56" x="49" y="1" width="6" height="6" rx="2"></rect>
                            <rect id="Rectangle-Copy-51" x="61" y="1" width="6" height="6" rx="2"></rect>
                            <rect id="Rectangle-Copy-50" x="73" y="1" width="6" height="6" rx="2"></rect>
                            <rect id="Rectangle-Copy-49" x="85" y="1" width="6" height="6" rx="2"></rect>
                            <rect id="Rectangle-Copy-48" x="97" y="1" width="12" height="6" rx="2"></rect>
                        </g>
                    </g>
                </g>
            </g>
            <rect id="Rectangle" stroke="#E60000" stroke-width="2" x="180" y="177" width="31" height="46" rx="15.5"></rect>
            <path d="M251,175 L251,168 C251,165.790861 249.209139,164 247,164 L199,164 C196.790861,164 195,162.209139 195,160 L195,123 C195,120.790861 196.790861,119 199,119 L210,119 L210,119" id="Line" stroke="#666666" stroke-width="2" stroke-linecap="square" transform="translate(223.000000, 147.000000) scale(-1, 1) translate(-223.000000, -147.000000) "></path>
            <path d="M52,174 L52,168 C52,165.790861 50.209139,164 48,164 L4,164 C1.790861,164 2.705415e-16,162.209139 0,160 L0,123 C-2.705415e-16,120.790861 1.790861,119 4,119 L15,119 L15,119" id="Line-Copy" stroke="#666666" stroke-width="2" stroke-linecap="square"></path>
            <rect id="Rectangle" stroke="#E60000" stroke-width="2" fill="#FFFFFF" x="105" y="129" width="43" height="19"></rect>
            <rect id="Rectangle-Copy-13" stroke="#E60000" stroke-width="2" fill="#FFFFFF" x="50" y="148" width="151" height="5"></rect>
            <mask id="mask-4" fill="white">
                <use xlink:href="#path-3"></use>
            </mask>
            <rect stroke="#E60000" stroke-width="2" x="17" y="1" width="217" height="128" rx="8"></rect>
            <mask id="mask-6" fill="white">
                <use xlink:href="#path-5"></use>
            </mask>
            <rect stroke="#E60000" stroke-width="2" x="17" y="1" width="217" height="128" rx="8"></rect>
            <g id="OutlPageMini-HS-Copy-11" mask="url(#mask-6)">
                <g transform="translate(86.000000, 66.000000)">
                    <g id="OutlPageMini" stroke="none" fill="none" transform="translate(0.000000, -50.000000)" fill-rule="evenodd">
                        <rect id="Rectangle" stroke="#666666" stroke-width="1" fill="#FFFFFF" x="0.5" y="0.5" width="79" height="99" rx="4"></rect>
                        <rect id="Rectangle" fill="#666666" x="1" y="10" width="78" height="1"></rect>
                        <rect id="Rectangle-Copy-37" fill="#666666" x="9" y="5" width="20" height="1"></rect>
                        <rect id="Rectangle-Copy-38" fill="#666666" x="59" y="5" width="12" height="1"></rect>
                        <rect id="Rectangle-Copy-39" fill="#666666" x="43" y="5" width="12" height="1"></rect>
                        <rect id="Rectangle-Copy-40" fill="#666666" x="33" y="5" width="6" height="1"></rect>
                    </g>
                    <rect id="Rectangle" stroke="#E60000" stroke-width="1" fill="none" x="15.5" y="-8.5" width="49" height="12" rx="2"></rect>
                    <rect id="Rectangle" stroke="none" fill="#E60000" fill-rule="evenodd" x="15" y="6" width="50" height="1"></rect>
                    <rect id="Rectangle-Copy-46" stroke="none" fill="#666666" fill-rule="evenodd" x="1" y="-13" width="78" height="1"></rect>
                    <rect id="Rectangle-Copy-47" stroke="none" fill="#E60000" fill-rule="evenodd" x="24" y="-26" width="32" height="1"></rect>
                    <rect id="Rectangle" stroke="none" fill="#666666" fill-rule="evenodd" x="33" y="-20" width="14" height="2"></rect>
                    <rect id="Rectangle-Copy-48" stroke="none" fill="#666666" fill-rule="evenodd" x="14" y="-23" width="52" height="1"></rect>
                    <rect id="Rectangle-Copy-37" stroke="none" fill="#E60000" fill-rule="evenodd" x="15" y="9" width="50" height="1"></rect>
                    <rect id="Rectangle-Copy-38" stroke="none" fill="#E60000" fill-rule="evenodd" x="15" y="12" width="50" height="1"></rect>
                    <rect id="Rectangle-Copy-39" stroke="none" fill="#666666" fill-rule="evenodd" x="28" y="21" width="24" height="1"></rect>
                    <rect id="Rectangle-Copy-40" stroke="none" fill="#666666" fill-rule="evenodd" x="15" y="24" width="24" height="1"></rect>
                    <rect id="Rectangle-Copy-41" stroke="none" fill="#666666" fill-rule="evenodd" x="41" y="24" width="24" height="1"></rect>
                    <rect id="Rectangle-Copy-43" stroke="none" fill="#666666" fill-rule="evenodd" x="15" y="27" width="16" height="1"></rect>
                    <rect id="Rectangle-Copy-42" stroke="none" fill="#666666" fill-rule="evenodd" x="33" y="27" width="32" height="1"></rect>
                    <rect id="Rectangle-Copy-52" stroke="none" fill="#666666" fill-rule="evenodd" x="15" y="33" width="24" height="1"></rect>
                    <rect id="Rectangle-Copy-51" stroke="none" fill="#666666" fill-rule="evenodd" x="41" y="33" width="24" height="1"></rect>
                    <rect id="Rectangle-Copy-50" stroke="none" fill="#666666" fill-rule="evenodd" x="15" y="36" width="16" height="1"></rect>
                    <rect id="Rectangle-Copy-49" stroke="none" fill="#666666" fill-rule="evenodd" x="33" y="36" width="32" height="1"></rect>
                    <rect id="Rectangle-Copy-45" stroke="none" fill="#666666" fill-rule="evenodd" x="15" y="30" width="42" height="1"></rect>
                    <rect id="Rectangle-Copy-44" stroke="none" fill="#666666" fill-rule="evenodd" x="59" y="30" width="6" height="1"></rect>
                </g>
            </g>
        </g>
        <g id="OutlPageMini-1" transform="translate(323.014357, 143.000000)">
            <g id="OutlPageMini" fill-rule="evenodd">
                <rect id="Rectangle" stroke="#666666" stroke-width="1" fill="#FFFFFF" x="0.5" y="0.5" width="79" height="99" rx="4"></rect>
                <rect id="Rectangle" fill="#666666" x="1" y="10" width="78" height="1"></rect>
                <rect id="Rectangle-Copy-37" fill="#666666" x="9" y="5" width="20" height="1"></rect>
                <rect id="Rectangle-Copy-38" fill="#666666" x="59" y="5" width="12" height="1"></rect>
                <rect id="Rectangle-Copy-39" fill="#666666" x="43" y="5" width="12" height="1"></rect>
                <rect id="Rectangle-Copy-40" fill="#666666" x="33" y="5" width="6" height="1"></rect>
            </g>
            <rect id="Rectangle" fill="#666666" fill-rule="evenodd" x="15" y="56" width="50" height="1"></rect>
            <rect id="Rectangle-Copy-46" fill="#666666" fill-rule="evenodd" x="1" y="37" width="78" height="1"></rect>
            <rect id="Rectangle-Copy-47" fill="#666666" fill-rule="evenodd" x="24" y="24" width="32" height="1"></rect>
            <rect id="Rectangle" fill="#666666" fill-rule="evenodd" x="33" y="30" width="14" height="2"></rect>
            <rect id="Rectangle-Copy-48" fill="#666666" fill-rule="evenodd" x="14" y="27" width="52" height="1"></rect>
            <rect id="Rectangle-Copy-37" fill="#666666" fill-rule="evenodd" x="15" y="59" width="50" height="1"></rect>
            <rect id="Rectangle-Copy-38" fill="#666666" fill-rule="evenodd" x="15" y="62" width="50" height="1"></rect>
            <rect id="Rectangle-Copy-39" fill="#666666" fill-rule="evenodd" x="28" y="79" width="24" height="1"></rect>
            <rect id="Rectangle-Copy-40" fill="#666666" fill-rule="evenodd" x="15" y="82" width="24" height="1"></rect>
            <rect id="Rectangle-Copy-41" fill="#666666" fill-rule="evenodd" x="41" y="82" width="24" height="1"></rect>
            <rect id="Rectangle-Copy-43" fill="#666666" fill-rule="evenodd" x="15" y="85" width="16" height="1"></rect>
            <rect id="Rectangle-Copy-42" fill="#666666" fill-rule="evenodd" x="33" y="85" width="32" height="1"></rect>
            <rect id="Rectangle-Copy-45" fill="#666666" fill-rule="evenodd" x="15" y="88" width="42" height="1"></rect>
            <rect id="Rectangle-Copy-44" fill="#666666" fill-rule="evenodd" x="59" y="88" width="6" height="1"></rect>
            <rect id="Rectangle" stroke="#4A4D4E" stroke-width="1" x="15.5" y="44.5" width="49" height="12" rx="2"></rect>
        </g>
        <g id="OutlPageMini-3" transform="translate(418.000000, 143.000000)">
            <g id="OutlPageMini">
                <rect id="Rectangle" stroke="#666666" stroke-width="1" fill="#FFFFFF" x="0.5" y="0.5" width="79" height="99" rx="4"></rect>
                <rect id="Rectangle" fill="#666666" x="1" y="10" width="78" height="1"></rect>
                <rect id="Rectangle-Copy-37" fill="#666666" x="9" y="5" width="20" height="1"></rect>
                <rect id="Rectangle-Copy-38" fill="#666666" x="59" y="5" width="12" height="1"></rect>
                <rect id="Rectangle-Copy-39" fill="#666666" x="43" y="5" width="12" height="1"></rect>
                <rect id="Rectangle-Copy-40" fill="#666666" x="33" y="5" width="6" height="1"></rect>
            </g>
            <rect id="Rectangle-Copy-46" fill="#666666" x="1" y="18" width="78" height="1"></rect>
            <rect id="Rectangle-Copy-47" fill="#666666" x="1" y="34" width="78" height="1"></rect>
            <rect id="Rectangle-Copy-48" fill="#666666" x="1" y="48" width="78" height="1"></rect>
            <rect id="Rectangle-Copy-49" fill="#666666" x="1" y="75" width="78" height="1"></rect>
            <circle id="Oval" stroke="#666666" stroke-width="1" fill="#FFFFFF" cx="18" cy="41" r="2"></circle>
            <circle id="Oval-Copy" stroke="#666666" stroke-width="1" fill="#FFFFFF" cx="32.6666667" cy="41" r="2"></circle>
            <circle id="Oval-Copy-2" stroke="#666666" stroke-width="1" fill="#FFFFFF" cx="47.3333333" cy="41" r="2"></circle>
            <circle id="Oval-Copy-3" stroke="#666666" stroke-width="1" fill="#FFFFFF" cx="62" cy="41" r="2"></circle>
            <g id="Copy" stroke-width="1" transform="translate(15.000000, 57.000000)" fill="#666666">
                <rect id="Rectangle-Copy-39" x="13" y="0" width="24" height="1"></rect>
                <rect id="Rectangle-Copy-40" x="0" y="3" width="24" height="1"></rect>
                <rect id="Rectangle-Copy-41" x="26" y="3" width="24" height="1"></rect>
                <rect id="Rectangle-Copy-43" x="0" y="6" width="16" height="1"></rect>
                <rect id="Rectangle-Copy-42" x="18" y="6" width="32" height="1"></rect>
                <rect id="Rectangle-Copy-45" x="0" y="9" width="42" height="1"></rect>
                <rect id="Rectangle-Copy-44" x="44" y="9" width="6" height="1"></rect>
            </g>
        </g>
        <g id="OutlPageMini-4" transform="translate(514.000000, 143.000000)">
            <g id="OutlPageMini">
                <rect id="Rectangle" stroke="#666666" stroke-width="1" fill="#FFFFFF" x="0.5" y="0.5" width="79" height="99" rx="4"></rect>
                <rect id="Rectangle" fill="#666666" x="1" y="10" width="78" height="1"></rect>
                <rect id="Rectangle-Copy-37" fill="#666666" x="9" y="5" width="20" height="1"></rect>
                <rect id="Rectangle-Copy-38" fill="#666666" x="59" y="5" width="12" height="1"></rect>
                <rect id="Rectangle-Copy-39" fill="#666666" x="43" y="5" width="12" height="1"></rect>
                <rect id="Rectangle-Copy-40" fill="#666666" x="33" y="5" width="6" height="1"></rect>
            </g>
            <rect id="Rectangle-Copy-48" fill="#666666" x="1" y="34" width="78" height="1"></rect>
            <rect id="Rectangle-Copy-49" fill="#666666" x="1" y="55" width="78" height="1"></rect>
            <rect id="Rectangle-Copy-52" fill="#666666" x="1" y="75" width="78" height="1"></rect>
            <rect id="Rectangle-Copy-47" fill="#666666" x="9" y="43" width="8" height="1"></rect>
            <rect id="Rectangle" fill="#666666" x="6" y="48" width="14" height="2"></rect>
            <rect id="Rectangle-Copy-53" fill="#666666" x="16" y="64" width="8" height="1"></rect>
            <rect id="Rectangle-Copy-5" fill="#666666" x="13" y="69" width="14" height="2"></rect>
            <rect id="Rectangle-Copy-54" fill="#666666" x="56" y="64" width="8" height="1"></rect>
            <rect id="Rectangle-Copy-6" fill="#666666" x="53" y="69" width="14" height="2"></rect>
            <rect id="Rectangle-Copy-50" fill="#666666" x="36" y="43" width="8" height="1"></rect>
            <rect id="Rectangle-Copy-2" fill="#666666" x="33" y="48" width="14" height="2"></rect>
            <rect id="Rectangle-Copy-55" fill="#666666" x="15" y="21" width="8" height="1"></rect>
            <rect id="Rectangle-Copy-7" fill="#666666" x="15" y="26" width="14" height="2"></rect>
            <rect id="Rectangle-Copy-51" fill="#666666" x="63" y="43" width="8" height="1"></rect>
            <rect id="Rectangle-Copy-3" fill="#666666" x="60" y="48" width="14" height="2"></rect>
            <g id="Group" stroke-width="1" transform="translate(26.000000, 35.000000)" stroke="#666666">
                <rect id="Rectangle" x="0.5" y="0.5" width="1" height="19"></rect>
                <rect id="Rectangle-Copy" x="27.5" y="0.5" width="1" height="19"></rect>
                <rect id="Rectangle-Copy-4" x="14.5" y="20.5" width="1" height="19"></rect>
            </g>
            <rect id="Rectangle" fill="#666666" x="15" y="84" width="50" height="1"></rect>
            <rect id="Rectangle-Copy-37" fill="#666666" x="15" y="87" width="50" height="1"></rect>
            <rect id="Rectangle-Copy-38" fill="#666666" x="15" y="90" width="50" height="1"></rect>
        </g>
        <g id="OutlPageMini-5" transform="translate(610.000000, 143.000000)">
            <g id="OutlPageMini" fill-rule="evenodd">
                <rect id="Rectangle" stroke="#666666" stroke-width="1" fill="#FFFFFF" x="0.5" y="0.5" width="79" height="99" rx="4"></rect>
                <rect id="Rectangle" fill="#666666" x="1" y="10" width="78" height="1"></rect>
                <rect id="Rectangle-Copy-37" fill="#666666" x="9" y="5" width="20" height="1"></rect>
                <rect id="Rectangle-Copy-38" fill="#666666" x="59" y="5" width="12" height="1"></rect>
                <rect id="Rectangle-Copy-39" fill="#666666" x="43" y="5" width="12" height="1"></rect>
                <rect id="Rectangle-Copy-40" fill="#666666" x="33" y="5" width="6" height="1"></rect>
            </g>
            <rect id="Rectangle-Copy-48" fill="#666666" fill-rule="evenodd" x="1" y="43" width="78" height="1"></rect>
            <rect id="Rectangle-Copy-55" fill="#666666" fill-rule="evenodd" x="26" y="23" width="28" height="1"></rect>
            <rect id="Rectangle-Copy-56" fill="#666666" fill-rule="evenodd" x="31" y="19" width="18" height="1"></rect>
            <rect id="Rectangle" stroke="#666666" stroke-width="1" fill="#FFFFFF" fill-rule="evenodd" x="15.5" y="33.5" width="49" height="25"></rect>
            <rect id="Rectangle-Copy-47" fill="#666666" fill-rule="evenodd" x="20" y="39" width="16" height="1"></rect>
            <rect id="Rectangle-Copy-51" stroke="#666666" stroke-width="1" x="44.5" y="39.5" width="15" height="3"></rect>
            <rect id="Rectangle-Copy-49" fill="#666666" fill-rule="evenodd" x="20" y="42" width="16" height="1"></rect>
            <rect id="Rectangle-Copy-52" fill="#666666" fill-rule="evenodd" x="44" y="46" width="8" height="1"></rect>
            <rect id="Rectangle-Copy-50" fill="#666666" fill-rule="evenodd" x="20" y="45" width="16" height="1"></rect>
            <rect id="Rectangle-Copy-7" fill="#666666" fill-rule="evenodd" x="44" y="51" width="14" height="2"></rect>
            <g id="ImgText" stroke-width="1" fill-rule="evenodd" transform="translate(15.000000, 65.000000)">
                <rect id="Rectangle" fill="#666666" x="22" y="9" width="24" height="1"></rect>
                <rect id="Rectangle-Copy-37" fill="#666666" x="22" y="12" width="24" height="1"></rect>
                <rect id="Rectangle-Copy-38" fill="#666666" x="22" y="15" width="24" height="1"></rect>
                <rect id="Rectangle" stroke="#666666" x="0.5" y="4.5" width="49" height="16" rx="2"></rect>
                <rect id="Rectangle-Copy" stroke="#666666" fill="#FFFFFF" x="2.5" y="0.5" width="17" height="23" rx="2"></rect>
            </g>
        </g>
        <g id="OutlPageMini-6" transform="translate(706.000000, 143.000000)">
            <g id="OutlPageMini" fill-rule="evenodd">
                <rect id="Rectangle" stroke="#666666" stroke-width="1" fill="#FFFFFF" x="0.5" y="0.5" width="79" height="99" rx="4"></rect>
                <rect id="Rectangle" fill="#666666" x="1" y="10" width="78" height="1"></rect>
                <rect id="Rectangle-Copy-37" fill="#666666" x="9" y="5" width="20" height="1"></rect>
                <rect id="Rectangle-Copy-38" fill="#666666" x="59" y="5" width="12" height="1"></rect>
                <rect id="Rectangle-Copy-39" fill="#666666" x="43" y="5" width="12" height="1"></rect>
                <rect id="Rectangle-Copy-40" fill="#666666" x="33" y="5" width="6" height="1"></rect>
            </g>
            <rect id="Rectangle-Copy-56" fill="#666666" fill-rule="evenodd" x="15" y="19" width="18" height="1"></rect>
            <rect id="Rectangle" stroke="#666666" stroke-width="1" fill="#FFFFFF" fill-rule="evenodd" x="15.5" y="24.5" width="49" height="37"></rect>
            <rect id="Rectangle-Copy-59" fill="#666666" fill-rule="evenodd" x="20" y="56" width="18" height="1"></rect>
            <rect id="Rectangle-Copy-61" fill="#666666" fill-rule="evenodd" x="20" y="35" width="18" height="1"></rect>
            <rect id="Rectangle-Copy-62" fill="#666666" fill-rule="evenodd" x="20" y="38" width="18" height="1"></rect>
            <rect id="Rectangle-Copy-64" fill="#666666" fill-rule="evenodd" x="20" y="44" width="18" height="1"></rect>
            <rect id="Rectangle-Copy-60" fill="#666666" fill-rule="evenodd" x="54" y="56" width="6" height="1"></rect>
            <rect id="Rectangle-Copy-65" fill="#666666" fill-rule="evenodd" x="57" y="35" width="3" height="1"></rect>
            <rect id="Rectangle-Copy-66" fill="#666666" fill-rule="evenodd" x="57" y="44" width="3" height="1"></rect>
            <rect id="Rectangle-Copy-57" fill="#666666" fill-rule="evenodd" x="16" y="31" width="48" height="1"></rect>
            <rect id="Rectangle-Copy-58" fill="#666666" fill-rule="evenodd" x="16" y="51" width="48" height="1"></rect>
            <rect id="Rectangle-Copy-7" fill="#666666" fill-rule="evenodd" x="51" y="64" width="14" height="2"></rect>
            <rect id="Rectangle-Copy-2" stroke="#666666" stroke-width="1" x="15.5" y="74.5" width="49" height="5" rx="2"></rect>
            <rect id="Rectangle-Copy-3" stroke="#666666" stroke-width="1" x="15.5" y="82.5" width="49" height="5" rx="2"></rect>
        </g>
        <g id="code-doc" transform="translate(83.014357, 157.000000)">
            <rect id="Rectangle-path" x="0" y="0" width="72" height="72"></rect>
            <g id="Group" stroke-width="1" fill-rule="evenodd" transform="translate(16.000000, 6.000000)" stroke="#4A4D4E">
                <path d="M39.5,14.2071068 L25.7928932,0.5 L4,0.5 C2.06700338,0.5 0.5,2.06700338 0.5,4 L0.5,54 C0.5,55.9329966 2.06700338,57.5 4,57.5 L36,57.5 C37.9329966,57.5 39.5,55.9329966 39.5,54 L39.5,14.2071068 Z" id="Rectangle" fill="#FFFFFF"></path>
                <path d="M26,0 L26,12 C26,12.8284271 26.6715729,13.5 27.5,13.5 L39.5,13.5" id="Shape"></path>
            </g>
            <g id="Group-2" stroke-width="1" fill-rule="evenodd" transform="translate(24.000000, 24.000000)"></g>
            <g id="IC-HTML" stroke-width="1" fill-rule="evenodd" transform="translate(19.000000, 19.000000)" stroke-linecap="round" stroke-linejoin="round">
                <g id="Group-4" transform="translate(3.150000, 10.850000)" stroke-width="1.39999998">
                    <polyline id="Stroke-1" stroke="#666666" points="7.77367487 10.9374998 0.0736749987 6.0413499 7.77367487 1.83749997"></polyline>
                    <polyline id="Stroke-2" stroke="#666666" points="19.6736747 10.9374998 27.3736745 6.0413499 19.6736747 1.83749997"></polyline>
                    <line x1="16.5236747" y1="0.0874999985" x2="10.9236748" y2="11.9874998" id="Stroke-3" stroke="#E60000"></line>
                </g>
            </g>
        </g>
        <g id="code-doc" transform="translate(27.014357, 157.000000)">
            <rect id="Rectangle-path" x="0" y="0" width="72" height="72"></rect>
            <g id="Group" stroke-width="1" fill-rule="evenodd" transform="translate(16.000000, 6.000000)" stroke="#4A4D4E">
                <path d="M39.5,14.2071068 L25.7928932,0.5 L4,0.5 C2.06700338,0.5 0.5,2.06700338 0.5,4 L0.5,54 C0.5,55.9329966 2.06700338,57.5 4,57.5 L36,57.5 C37.9329966,57.5 39.5,55.9329966 39.5,54 L39.5,14.2071068 Z" id="Rectangle" fill="#FFFFFF"></path>
                <path d="M26,0 L26,12 C26,12.8284271 26.6715729,13.5 27.5,13.5 L39.5,13.5" id="Shape"></path>
            </g>
            <g id="Group-2" stroke-width="1" fill-rule="evenodd" transform="translate(24.000000, 24.000000)"></g>
            <g id="IC-HTML" stroke-width="1" fill-rule="evenodd" transform="translate(19.000000, 19.000000)" stroke-linecap="round" stroke-linejoin="round">
                <g id="Group-4" transform="translate(3.150000, 10.850000)" stroke-width="1.39999998">
                    <polyline id="Stroke-1" stroke="#666666" points="7.77367487 10.9374998 0.0736749987 6.0413499 7.77367487 1.83749997"></polyline>
                    <polyline id="Stroke-2" stroke="#666666" points="19.6736747 10.9374998 27.3736745 6.0413499 19.6736747 1.83749997"></polyline>
                    <line x1="16.5236747" y1="0.0874999985" x2="10.9236748" y2="11.9874998" id="Stroke-3" stroke="#E60000"></line>
                </g>
            </g>
        </g>
        <g id="code-doc" transform="translate(-28.985643, 157.000000)">
            <rect id="Rectangle-path" x="0" y="0" width="72" height="72"></rect>
            <g id="Group" stroke-width="1" fill-rule="evenodd" transform="translate(16.000000, 6.000000)" stroke="#4A4D4E">
                <path d="M39.5,14.2071068 L25.7928932,0.5 L4,0.5 C2.06700338,0.5 0.5,2.06700338 0.5,4 L0.5,54 C0.5,55.9329966 2.06700338,57.5 4,57.5 L36,57.5 C37.9329966,57.5 39.5,55.9329966 39.5,54 L39.5,14.2071068 Z" id="Rectangle" fill="#FFFFFF"></path>
                <path d="M26,0 L26,12 C26,12.8284271 26.6715729,13.5 27.5,13.5 L39.5,13.5" id="Shape"></path>
            </g>
            <g id="Group-2" stroke-width="1" fill-rule="evenodd" transform="translate(24.000000, 24.000000)"></g>
            <g id="IC-HTML" stroke-width="1" fill-rule="evenodd" transform="translate(19.000000, 19.000000)" stroke-linecap="round" stroke-linejoin="round">
                <g id="Group-4" transform="translate(3.150000, 10.850000)" stroke-width="1.39999998">
                    <polyline id="Stroke-1" stroke="#666666" points="7.77367487 10.9374998 0.0736749987 6.0413499 7.77367487 1.83749997"></polyline>
                    <polyline id="Stroke-2" stroke="#666666" points="19.6736747 10.9374998 27.3736745 6.0413499 19.6736747 1.83749997"></polyline>
                    <line x1="16.5236747" y1="0.0874999985" x2="10.9236748" y2="11.9874998" id="Stroke-3" stroke="#E60000"></line>
                </g>
            </g>
        </g>
        <rect id="Rectangle" fill="#E60000" x="328.014357" y="141" width="2" height="104" rx="1"></rect>
        <rect id="Rectangle-Copy" fill="#FFFFFF" x="316.014357" y="135" width="12" height="118" rx="1"></rect>
        <rect id="Rectangle-Copy-3" fill="#E60000" transform="translate(128.014357, 193.000000) scale(-1, 1) translate(-128.014357, -193.000000) " x="127.014357" y="141" width="2" height="104" rx="1"></rect>
        <rect id="Rectangle-Copy-2" fill="#FFFFFF" transform="translate(135.014357, 194.000000) scale(-1, 1) translate(-135.014357, -194.000000) " x="129.014357" y="135" width="12" height="118" rx="1"></rect>
    </g>
</svg>