<?xml version="1.0" encoding="UTF-8"?>
<svg width="192px" height="192px" viewBox="0 0 192 192" version="1.1" xmlns="http://www.w3.org/2000/svg" xmlns:xlink="http://www.w3.org/1999/xlink">
    <!-- Generator: Sketch 61.2 (89653) - https://sketch.com -->
    <title>voice-tone-hero</title>
    <desc>Created with Sketch.</desc>
    <g id="voice-tone-hero" stroke="none" stroke-width="1" fill="none" fill-rule="evenodd">
        <g id="Group">
            <g id="chat-mid">
                <g id="40a37978-e3f5-49cf-be36-7a10fd183684">
                    <g id="17c63036-36c6-41a8-b34b-fc836be0ebbd">
                        <g id="3cb6ac63-dc5a-424f-bfe6-02fd49028159">
                            <path d="M142.65,73.59 C142.65,73.59 142.93,72.14 143.01,71.65 C144.6,62.04 138.13,52.87 138.13,52.87 C134.445399,47.0066664 129.578447,41.9762338 123.84,38.1 C117.576556,33.8444838 110.623999,30.7048377 103.29,28.82 C95.2274871,26.7265822 86.8825469,25.9332727 78.57,26.47 C70.2311219,26.9609769 62.0226946,28.770071 54.25,31.83 C47.1314487,34.6095571 40.5374425,38.5794871 34.75,43.57 C29.4252835,48.1210725 25.0865582,53.7120731 22,60 C19.0665746,66.0308431 17.691349,72.7006875 18,79.4 C18.2108569,83.6249691 19.1128139,87.7868084 20.67,91.72 C22.2380748,95.6515314 24.3814662,99.3283238 27.03,102.63 C29.7937171,106.06714 32.9902111,109.132547 36.54,111.75 C40.17,114.45 47.76,117.75 52.17,119.67 C46.5,133.12 33.12,141 33.12,141 C38.6162936,141.456187 44.1478332,141.234523 49.59,140.34 C53.4410209,139.698685 57.2263542,138.711353 60.9,137.39 C60.9,137.39 65.43,135.78 78.39,128.64 L80.06,127.73" id="75f91a88-c298-4eda-bf4f-a061cc3d3e62" stroke="#666666" stroke-width="4" stroke-linecap="round" stroke-linejoin="round"></path>
                            <rect id="Rectangle-path" x="0" y="0" width="192" height="192"></rect>
                            <path d="M144.41,74.1 L142.12,73.44 C135.822676,71.8006399 129.303607,71.1794546 122.81,71.6 C116.293602,71.9877271 109.880253,73.4087901 103.81,75.81 C98.2417129,77.9851771 93.0846248,81.0929567 88.56,85 C84.4073332,88.5801136 81.028475,92.9695667 78.63,97.9 C76.3387842,102.634356 75.2663298,107.866009 75.51,113.12 C75.7833523,118.347265 77.3724935,123.420822 80.13,127.87 C83.0068934,132.468028 86.8112433,136.415424 91.3,139.46 C96.191443,142.798234 101.625535,145.261509 107.36,146.74 C113.656903,148.381742 120.176357,149.002964 126.67,148.58 L127.3,148.53 C129.492272,150.030035 131.791796,151.366967 134.18,152.53 C137.068805,153.938281 140.081627,155.076458 143.18,155.93 C146.771078,156.911625 150.460677,157.488544 154.18,157.65 C158.487766,157.825047 162.800624,157.465642 167.02,156.58 C167.02,156.58 153.54,148.76 153.16,140.68 C156.350455,138.817647 159.322309,136.603851 162.02,134.08 C164.571102,131.704619 166.81215,129.016705 168.69,126.08 C170.485312,123.254072 171.859721,120.181864 172.77,116.96 C175.110752,108.627939 173.836756,99.6954519 169.26,92.35 C167.393664,89.3288454 165.103685,86.5909731 162.46,84.22 C157.034736,79.8860008 150.937738,76.4676285 144.41,74.1" id="60360907-3bd8-4f51-b364-005d4b8c1a05" stroke="#E60000" stroke-width="4" stroke-linecap="round" stroke-linejoin="round"></path>
                        </g>
                    </g>
                </g>
            </g>
        </g>
    </g>
</svg>