<?xml version="1.0" encoding="UTF-8"?>
<svg width="30px" height="28px" viewBox="0 0 30 28" version="1.1" xmlns="http://www.w3.org/2000/svg" xmlns:xlink="http://www.w3.org/1999/xlink">
    <!-- Generator: Sketch 61.2 (89653) - https://sketch.com -->
    <title>icon-arrow-right</title>
    <desc>Created with Sketch.</desc>
    <defs>
        <path d="M17.0303301,0.719669914 L29.7803301,13.4696699 C29.8049299,13.4942698 29.8278288,13.5205706 29.8488352,13.5483807 L29.7803301,13.4696699 C29.8147711,13.5041109 29.8451622,13.5410682 29.8715034,13.57995 C29.8825387,13.5963419 29.893187,13.6134919 29.903145,13.6310842 C29.9112981,13.6453756 29.9189416,13.6600091 29.9260696,13.6748285 C29.934555,13.6924861 29.9425505,13.7109058 29.9498114,13.7296911 C29.9539715,13.7405435 29.957697,13.7509087 29.9611871,13.7613353 C29.9684207,13.7827165 29.9748291,13.8051728 29.980192,13.8280319 C29.9829853,13.8402739 29.9854242,13.8519672 29.9875819,13.863702 C29.9912529,13.8832199 29.9941946,13.9038837 29.996277,13.9248004 C29.9978395,13.9409019 29.9988867,13.9562378 29.999465,13.9715881 C29.9998115,13.9804163 30,13.9901861 30,14 L29.9994268,14.0294084 C29.9988542,14.0440905 29.9978527,14.0587591 29.9964221,14.0733936 L30,14 C30,14.0468456 29.9957051,14.092688 29.9874876,14.1371551 C29.9854242,14.1480328 29.9829853,14.1597261 29.9802653,14.171367 C29.9748291,14.1948272 29.9684207,14.2172835 29.9610197,14.2392836 C29.957697,14.2490913 29.9539715,14.2594565 29.9500107,14.2697519 C29.9425505,14.2890942 29.934555,14.3075139 29.9258602,14.3255328 C29.9189416,14.3399909 29.9112981,14.3546244 29.9031392,14.3690453 C29.893187,14.3865081 29.8825387,14.4036581 29.8712371,14.4203291 C29.8643147,14.4306612 29.8568243,14.4411291 29.8490323,14.4514416 C29.8471451,14.4538569 29.8454427,14.4560847 29.8437281,14.4583026 L29.7803301,14.5303301 L29.7803301,14.5303301 L17.0303301,27.2803301 C16.7374369,27.5732233 16.2625631,27.5732233 15.9696699,27.2803301 C15.6767767,26.9874369 15.6767767,26.5125631 15.9696699,26.2196699 L27.439,14.75 L0.75,14.75 C0.335786438,14.75 0,14.4142136 0,14 C0,13.5857864 0.335786438,13.25 0.75,13.25 L27.439,13.25 L15.9696699,1.78033009 C15.6767767,1.48743687 15.6767767,1.01256313 15.9696699,0.719669914 C16.2625631,0.426776695 16.7374369,0.426776695 17.0303301,0.719669914 Z" id="path-1"></path>
    </defs>
    <g id="Symbols" stroke="none" stroke-width="1" fill="none" fill-rule="evenodd">
        <g id="UI-Components/Button/Button-Links/Default" transform="translate(-74.000000, -4.000000)">
            <g id="Basics/Icons/01-system-icon/arrow-left" transform="translate(74.000000, 4.000000)">
                <mask id="mask-2" fill="white">
                    <use xlink:href="#path-1"></use>
                </mask>
                <use id="icon-arrow-right" fill="#E60000" xlink:href="#path-1"></use>
            </g>
        </g>
    </g>
</svg>