<?xml version="1.0" encoding="UTF-8"?>
<svg width="1218px" height="599px" viewBox="0 0 1218 599" version="1.1" xmlns="http://www.w3.org/2000/svg" xmlns:xlink="http://www.w3.org/1999/xlink">
    <!-- Generator: Sketch 61.2 (89653) - https://sketch.com -->
    <title>intro-home</title>
    <desc>Created with Sketch.</desc>
    <defs>
        <rect id="path-1" x="0" y="0" width="258.5" height="140" rx="4"></rect>
        <filter x="-16.8%" y="-26.8%" width="133.7%" height="162.1%" filterUnits="objectBoundingBox" id="filter-3">
            <feMorphology radius="3" operator="dilate" in="SourceAlpha" result="shadowSpreadOuter1"></feMorphology>
            <feOffset dx="0" dy="6" in="shadowSpreadOuter1" result="shadowOffsetOuter1"></feOffset>
            <feGaussianBlur stdDeviation="10.5" in="shadowOffsetOuter1" result="shadowBlurOuter1"></feGaussianBlur>
            <feComposite in="shadowBlurOuter1" in2="SourceAlpha" operator="out" result="shadowBlurOuter1"></feComposite>
            <feColorMatrix values="0 0 0 0 0   0 0 0 0 0   0 0 0 0 0  0 0 0 0.2 0" type="matrix" in="shadowBlurOuter1"></feColorMatrix>
        </filter>
        <rect id="path-4" x="0" y="0" width="258.5" height="140" rx="4"></rect>
        <filter x="-16.8%" y="-26.8%" width="133.7%" height="162.1%" filterUnits="objectBoundingBox" id="filter-6">
            <feMorphology radius="3" operator="dilate" in="SourceAlpha" result="shadowSpreadOuter1"></feMorphology>
            <feOffset dx="0" dy="6" in="shadowSpreadOuter1" result="shadowOffsetOuter1"></feOffset>
            <feGaussianBlur stdDeviation="10.5" in="shadowOffsetOuter1" result="shadowBlurOuter1"></feGaussianBlur>
            <feComposite in="shadowBlurOuter1" in2="SourceAlpha" operator="out" result="shadowBlurOuter1"></feComposite>
            <feColorMatrix values="0 0 0 0 0   0 0 0 0 0   0 0 0 0 0  0 0 0 0.2 0" type="matrix" in="shadowBlurOuter1"></feColorMatrix>
        </filter>
        <rect id="path-7" x="216" y="78" width="258.5" height="140" rx="4"></rect>
        <filter x="-16.8%" y="-26.8%" width="133.7%" height="162.1%" filterUnits="objectBoundingBox" id="filter-9">
            <feMorphology radius="3" operator="dilate" in="SourceAlpha" result="shadowSpreadOuter1"></feMorphology>
            <feOffset dx="0" dy="6" in="shadowSpreadOuter1" result="shadowOffsetOuter1"></feOffset>
            <feGaussianBlur stdDeviation="10.5" in="shadowOffsetOuter1" result="shadowBlurOuter1"></feGaussianBlur>
            <feComposite in="shadowBlurOuter1" in2="SourceAlpha" operator="out" result="shadowBlurOuter1"></feComposite>
            <feColorMatrix values="0 0 0 0 0   0 0 0 0 0   0 0 0 0 0  0 0 0 0.2 0" type="matrix" in="shadowBlurOuter1"></feColorMatrix>
        </filter>
    </defs>
    <g id="intro-home" stroke="none" stroke-width="1" fill="none" fill-rule="evenodd">
        <path d="M196.823945,24.2716058 C368.92917,0.391840319 421.371315,38.1396379 568.800507,62.2716058 C716.2297,86.4035738 825.892168,-29.504033 959.128632,7.27160583 C1092.3651,44.0472447 1102.67551,135.764655 1073.87863,216.271606 C1045.08176,296.778556 915.898135,424.659807 802.628632,452.271606 C689.35913,479.883405 752.277842,375.397796 605.378632,378.271606 C458.479423,381.145415 405.878632,550.271606 274.878632,463.099731 C143.878632,375.927856 119.289818,651.139707 29.5817574,483.201293 C-60.1263031,315.262879 82.0531974,53.1741666 90.0348824,31.2716058 C98.0165673,9.36904511 24.7187195,48.1513713 196.823945,24.2716058 Z" id="Path-3" fill="#F4F4F4" opacity="0.5" transform="translate(543.515626, 269.342122) scale(1, -1) translate(-543.515626, -269.342122) "></path>
        <path d="M326.823945,84.2716058 C498.92917,60.3918403 551.371315,98.1396379 698.800507,122.271606 C846.2297,146.403574 955.892168,30.495967 1089.12863,67.2716058 C1222.3651,104.047245 1232.67551,195.764655 1203.87863,276.271606 C1175.08176,356.778556 1045.89813,484.659807 932.628632,512.271606 C819.35913,539.883405 882.277842,435.397796 735.378632,438.271606 C588.479423,441.145415 535.878632,610.271606 404.878632,523.099731 C273.878632,435.927856 249.289818,711.139707 159.581757,543.201293 C69.8736969,375.262879 212.053197,113.174167 220.034882,91.2716058 C228.016567,69.3690451 154.71872,108.151371 326.823945,84.2716058 Z" id="Path-3-Copy" fill="#F4F4F4" opacity="0.900000036"></path>
        <g id="OutlnTablet" transform="translate(807.878632, 180.271606)" fill-rule="nonzero">
            <path d="M8.86516854,8.52651283e-14 C3.96907115,8.52651283e-14 1.70530257e-13,3.97103961 1.70530257e-13,8.86956522 L1.70530257e-13,128.717391 C1.70530257e-13,133.615917 3.96907115,137.586957 8.86516854,137.586957 L183.224719,137.586957 C188.120816,137.586957 192.089888,133.615917 192.089888,128.717391 L192.089888,8.86956522 C192.089888,3.97103961 188.120816,8.52651283e-14 183.224719,8.52651283e-14 L8.86516854,8.52651283e-14 Z" id="Tablet" fill="#FFFFFF"></path>
            <path d="M8.86516854,-2 C2.8642796,-2 -2,2.86669204 -2,8.86956522 L-2,128.717391 C-2,134.720264 2.8642796,139.586957 8.86516854,139.586957 L183.224719,139.586957 C189.225608,139.586957 194.089888,134.720264 194.089888,128.717391 L194.089888,8.86956522 C194.089888,2.86669204 189.225608,-2 183.224719,-2 L8.86516854,-2 Z M8.86516854,8.54871729e-14 L183.224719,8.54871729e-14 C188.120816,8.54871729e-14 192.089888,3.97103961 192.089888,8.86956522 L192.089888,128.717391 C192.089888,133.615917 188.120816,137.586957 183.224719,137.586957 L8.86516854,137.586957 C3.96907115,137.586957 1.70530257e-13,133.615917 1.70530257e-13,128.717391 L1.70530257e-13,8.86956522 C1.70530257e-13,3.97103961 3.96907115,8.54871729e-14 8.86516854,8.54871729e-14 Z" id="Tablet-Copy" fill="#666666"></path>
            <path d="M179,75 C182.313708,75 185,72.3137085 185,69 C185,65.6862915 182.313708,63 179,63 C175.686292,63 173,65.6862915 173,69 C173,72.3137085 175.686292,75 179,75 Z M179,73 C176.790861,73 175,71.209139 175,69 C175,66.790861 176.790861,65 179,65 C181.209139,65 183,66.790861 183,69 C183,71.209139 181.209139,73 179,73 Z" id="Oval-Copy-2" fill="#666666"></path>
        </g>
        <g id="OutlnMobile" opacity="0.900000036" transform="translate(1032.878632, 176.271606)">
            <path d="M8.86516854,8.52651283e-14 C3.96907115,8.52651283e-14 -3.69482223e-13,3.97103961 -3.69482223e-13,8.86956522 L-3.69482223e-13,125.217391 C-3.69482223e-13,130.115917 3.96907115,134.086957 8.86516854,134.086957 L63.2247191,134.086957 C68.1208165,134.086957 72.0898876,130.115917 72.0898876,125.217391 L72.0898876,8.86956522 C72.0898876,3.97103961 68.1208165,8.52651283e-14 63.2247191,8.52651283e-14 L8.86516854,8.52651283e-14 Z" id="Mobile" fill="#FFFFFF" fill-rule="nonzero"></path>
            <path d="M8.86516854,-2 C2.8642796,-2 -2,2.86669204 -2,8.86956522 L-2,125.217391 C-2,131.220264 2.8642796,136.086957 8.86516854,136.086957 L63.2247191,136.086957 C69.225608,136.086957 74.0898876,131.220264 74.0898876,125.217391 L74.0898876,8.86956522 C74.0898876,2.86669204 69.225608,-2 63.2247191,-2 L8.86516854,-2 Z M8.86516854,8.54871729e-14 L63.2247191,8.54871729e-14 C68.1208165,8.54871729e-14 72.0898876,3.97103961 72.0898876,8.86956522 L72.0898876,125.217391 C72.0898876,130.115917 68.1208165,134.086957 63.2247191,134.086957 L8.86516854,134.086957 C3.96907115,134.086957 -3.69482223e-13,130.115917 -3.69482223e-13,125.217391 L-3.69482223e-13,8.86956522 C-3.69482223e-13,3.97103961 3.96907115,8.54871729e-14 8.86516854,8.54871729e-14 Z" id="Mobile-Copy" fill="#666666" fill-rule="nonzero"></path>
            <rect id="Rectangle-Copy-11" fill="#666666" fill-rule="evenodd" x="21.5" y="4" width="29.5" height="2" rx="1"></rect>
        </g>
        <g id="OutlnBrowser" transform="translate(384.878632, 107.271606)">
            <g id="Browser">
                <path d="M11.3651685,2 L250.724719,2 C255.620816,2 259.589888,5.97103961 259.589888,10.8695652 L259.589888,157.217391 C259.589888,162.115917 255.620816,166.086957 250.724719,166.086957 L11.3651685,166.086957 C6.46907115,166.086957 2.5,162.115917 2.5,157.217391 L2.5,10.8695652 C2.5,5.97103961 6.46907115,2 11.3651685,2 Z" id="Path" fill="#FFFFFF" fill-rule="nonzero"></path>
                <path d="M11.3202247,0 C5.31933578,0 0.45505618,4.86669204 0.45505618,10.8695652 L0.45505618,157.217391 C0.45505618,163.220264 5.31933578,168.086957 11.3202247,168.086957 L250.679775,168.086957 C256.680664,168.086957 261.544944,163.220264 261.544944,157.217391 L261.544944,10.8695652 C261.544944,4.86669204 256.680664,0 250.679775,0 L11.3202247,0 Z M11.3202247,2 L250.679775,2 C255.575873,2 259.544944,5.97103961 259.544944,10.8695652 L259.544944,157.217391 C259.544944,162.115917 255.575873,166.086957 250.679775,166.086957 L11.3202247,166.086957 C6.42412733,166.086957 2.45505618,162.115917 2.45505618,157.217391 L2.45505618,10.8695652 C2.45505618,5.97103961 6.42412733,2 11.3202247,2 Z" id="Path" fill="#666666" fill-rule="nonzero"></path>
                <path d="M11.3202247,2 C6.42412733,2 2.45505618,5.97103961 2.45505618,10.8695652 L2.45505618,29.0434783 L259.544944,29.0434783 L259.544944,10.8695652 C259.544944,5.97103961 255.575873,2 250.679775,2 L11.3202247,2 Z" id="Path-Copy" fill="#FFFFFF" fill-rule="nonzero"></path>
                <rect id="Rectangle" fill="#666666" x="1" y="27.0434783" width="260" height="2"></rect>
                <path d="M19.5,21.0434783 C22.8137085,21.0434783 25.5,18.3571868 25.5,15.0434783 C25.5,11.7297698 22.8137085,9.04347826 19.5,9.04347826 C16.1862915,9.04347826 13.5,11.7297698 13.5,15.0434783 C13.5,18.3571868 16.1862915,21.0434783 19.5,21.0434783 Z M19.5,19.0434783 C17.290861,19.0434783 15.5,17.2526173 15.5,15.0434783 C15.5,12.8343393 17.290861,11.0434783 19.5,11.0434783 C21.709139,11.0434783 23.5,12.8343393 23.5,15.0434783 C23.5,17.2526173 21.709139,19.0434783 19.5,19.0434783 Z" id="Oval" fill="#666666" fill-rule="nonzero"></path>
                <path d="M35.75,21.0434783 C39.1911616,21.0434783 42,18.3683941 42,15.0434783 C42,11.7185624 39.1911616,9.04347826 35.75,9.04347826 C32.3088384,9.04347826 29.5,11.7185624 29.5,15.0434783 C29.5,18.3683941 32.3088384,21.0434783 35.75,21.0434783 Z M35.75,19.0434783 C33.3921717,19.0434783 31.5,17.2414099 31.5,15.0434783 C31.5,12.8455466 33.3921717,11.0434783 35.75,11.0434783 C38.1078283,11.0434783 40,12.8455466 40,15.0434783 C40,17.2414099 38.1078283,19.0434783 35.75,19.0434783 Z" id="Oval-Copy" fill="#666666" fill-rule="nonzero"></path>
                <path d="M52,21.0434783 C55.3137085,21.0434783 58,18.3571868 58,15.0434783 C58,11.7297698 55.3137085,9.04347826 52,9.04347826 C48.6862915,9.04347826 46,11.7297698 46,15.0434783 C46,18.3571868 48.6862915,21.0434783 52,21.0434783 Z M52,19.0434783 C49.790861,19.0434783 48,17.2526173 48,15.0434783 C48,12.8343393 49.790861,11.0434783 52,11.0434783 C54.209139,11.0434783 56,12.8343393 56,15.0434783 C56,17.2526173 54.209139,19.0434783 52,19.0434783 Z" id="Oval-Copy-2" fill="#666666" fill-rule="nonzero"></path>
            </g>
        </g>
        <g id="OutlnPage-Copy" transform="translate(477.878632, 188.271606)">
            <mask id="mask-2" fill="white">
                <use xlink:href="#path-1"></use>
            </mask>
            <g id="Mask">
                <use fill="black" fill-opacity="1" filter="url(#filter-3)" xlink:href="#path-1"></use>
                <rect stroke="#E60000" stroke-width="2" stroke-linejoin="square" fill="#FFFFFF" fill-rule="evenodd" x="1" y="1" width="256.5" height="138" rx="4"></rect>
            </g>
            <g id="OutlnPage" mask="url(#mask-2)">
                <g transform="translate(0.000000, 8.000000)" id="Page-Copy">
                    <g>
                        <g id="OutlnNavi" fill="#E60000">
                            <g>
                                <rect id="Rectangle" x="41.5000503" y="9.50016305" width="31" height="2" rx="1"></rect>
                                <rect id="Rectangle-Copy-2" x="87.5000503" y="9.50016305" width="46" height="2" rx="1"></rect>
                                <rect id="Rectangle-Copy-8" x="148.50005" y="9.50016305" width="21.5" height="2" rx="1"></rect>
                                <rect id="Rectangle-Copy-9" x="185.00005" y="9.50016305" width="30.5" height="2" rx="1"></rect>
                                <rect id="Rectangle-Copy" x="5.0330118e-05" y="28.0001631" width="257" height="2"></rect>
                                <path d="M27.0000446,13.4120106 C27.0146432,17.7090368 23.4849493,21.4844962 18.6586326,21.5003283 C14.0251663,21.5151099 10.0179236,17.626299 10.0000561,12.4068702 C9.98835559,8.95931098 11.8082332,5.44886077 14.531243,3.25273257 C17.0130847,1.25109779 20.3633419,0.0100304938 23.4000639,2.98218685e-05 C23.7950491,-0.00106020322 24.1654634,0.0276823984 24.4695302,0.0942656741 C24.4698281,0.0943301754 24.4687012,0.0940861861 24.4631865,0.0928921388 C24.8563587,0.176395208 25.2167056,0.420738359 25.2923303,0.963579982 C25.3469992,1.35599893 25.1762618,1.70022763 24.9047374,1.91023065 C24.7649329,2.01835852 24.6203262,2.07778257 24.4696631,2.10990718 L24.4767856,2.10830609 C24.4838408,2.10680057 24.4852469,2.10644703 24.4886392,2.10559412 L24.4765972,2.10841249 C22.6499588,2.52503561 21.2179864,4.08482044 20.9759413,5.85774951 C24.9160365,7.03980894 26.9872597,9.67861778 27.0000446,13.4120106 Z M15.7868028,4.80951441 C13.5184673,6.63894426 11.9904951,9.58632402 12.0000445,12.4000531 C12.014095,16.5044577 15.1128076,19.5115897 18.6521606,19.500265 C22.3457445,19.4881824 25.0109908,16.6373604 25.0001561,13.4188324 C24.9897236,10.4015551 23.3078356,8.44237737 19.7255735,7.59256967 C19.346258,7.50258596 19.0538135,7.20037078 18.9763399,6.81830384 C18.9525234,6.70085077 18.940327,6.54724213 18.939846,6.40675243 C18.9348732,4.94743524 19.4722362,3.56209273 20.3694025,2.45538557 C18.7209531,2.92760094 17.1056128,3.74587841 15.7868028,4.80951441 Z" id="Speechmark-Red" fill-rule="nonzero"></path>
                            </g>
                        </g>
                        <g id="OutlnMultiDivider" transform="translate(0.000050, 410.000163)" fill="#E60000">
                            <rect id="Rectangle-Copy-16" x="0" y="0" width="257" height="2"></rect>
                            <rect id="Rectangle-Copy-17" x="0" y="38" width="257" height="2"></rect>
                            <g id="Group" stroke-width="1" transform="translate(53.500000, 8.500000)">
                                <path d="M8,16 C12.418278,16 16,12.418278 16,8 C16,3.581722 12.418278,0 8,0 C3.581722,0 0,3.581722 0,8 C0,12.418278 3.581722,16 8,16 Z M8,14 C4.6862915,14 2,11.3137085 2,8 C2,4.6862915 4.6862915,2 8,2 C11.3137085,2 14,4.6862915 14,8 C14,11.3137085 11.3137085,14 8,14 Z" id="Oval" fill-rule="nonzero"></path>
                                <path d="M52.5,16 C56.918278,16 60.5,12.418278 60.5,8 C60.5,3.581722 56.918278,0 52.5,0 C48.081722,0 44.5,3.581722 44.5,8 C44.5,12.418278 48.081722,16 52.5,16 Z M52.5,14 C49.1862915,14 46.5,11.3137085 46.5,8 C46.5,4.6862915 49.1862915,2 52.5,2 C55.8137085,2 58.5,4.6862915 58.5,8 C58.5,11.3137085 55.8137085,14 52.5,14 Z" id="Oval-Copy-3" fill-rule="nonzero"></path>
                                <path d="M97,16 C101.418278,16 105,12.418278 105,8 C105,3.581722 101.418278,0 97,0 C92.581722,0 89,3.581722 89,8 C89,12.418278 92.581722,16 97,16 Z M97,14 C93.6862915,14 91,11.3137085 91,8 C91,4.6862915 93.6862915,2 97,2 C100.313708,2 103,4.6862915 103,8 C103,11.3137085 100.313708,14 97,14 Z" id="Oval-Copy-4" fill-rule="nonzero"></path>
                                <path d="M141.5,16 C145.918278,16 149.5,12.418278 149.5,8 C149.5,3.581722 145.918278,0 141.5,0 C137.081722,0 133.5,3.581722 133.5,8 C133.5,12.418278 137.081722,16 141.5,16 Z M141.5,14 C138.186292,14 135.5,11.3137085 135.5,8 C135.5,4.6862915 138.186292,2 141.5,2 C144.813708,2 147.5,4.6862915 147.5,8 C147.5,11.3137085 144.813708,14 141.5,14 Z" id="Oval-Copy-5" fill-rule="nonzero"></path>
                            </g>
                            <rect id="Rectangle" x="42" y="29" width="39.5" height="2" rx="1"></rect>
                            <rect id="Rectangle-Copy-18" x="96" y="29" width="19.5" height="2" rx="1"></rect>
                            <rect id="Rectangle-Copy-19" x="137" y="29" width="26.5" height="2" rx="1"></rect>
                            <rect id="Rectangle-Copy-20" x="185" y="29" width="19.5" height="2" rx="1"></rect>
                        </g>
                        <g id="OutlnAB50" transform="translate(41.500050, 140.000163)" fill="#E60000">
                            <path d="M3.5,0 L78,0 C79.9329966,0 81.5,0.0417867567 81.5,0.0933333333 L81.5,0.906666667 C81.5,0.958213243 79.9329966,1 78,1 L3.5,1 C1.56700338,1 0,0.958213243 0,0.906666667 L0,0.0933333333 C0,0.0417867567 1.56700338,0 3.5,0 Z M3.5,0.0533333333 C2.67157288,0.0533333333 2,0.0712419433 2,0.0933333333 L2,0.906666667 C2,0.928758057 2.67157288,0.946666667 3.5,0.946666667 L78,0.946666667 C78.8284271,0.946666667 79.5,0.928758057 79.5,0.906666667 L79.5,0.0933333333 C79.5,0.0712419433 78.8284271,0.0533333333 78,0.0533333333 L3.5,0.0533333333 Z" id="Rectangle" fill-rule="nonzero"></path>
                            <g id="OutlnBtn" transform="translate(25.000000, 73.500000)" fill-rule="nonzero">
                                <path d="M2.5,0 L29.5,0 C30.8807119,0 32,1.11928813 32,2.5 L32,6.5 C32,7.88071187 30.8807119,9 29.5,9 L2.5,9 C1.11928813,9 0,7.88071187 0,6.5 L0,2.5 C0,1.11928813 1.11928813,0 2.5,0 Z M2.5,2 C2.22385763,2 2,2.22385763 2,2.5 L2,6.5 C2,6.77614237 2.22385763,7 2.5,7 L29.5,7 C29.7761424,7 30,6.77614237 30,6.5 L30,2.5 C30,2.22385763 29.7761424,2 29.5,2 L2.5,2 Z" id="Rectangle-Copy-7"></path>
                            </g>
                            <rect id="Rectangle" fill-rule="evenodd" x="21" y="42.5" width="39.5" height="2" rx="1"></rect>
                            <rect id="Rectangle-Copy-3" fill-rule="evenodd" x="2.5" y="48" width="76.5" height="2" rx="1"></rect>
                            <rect id="Rectangle-Copy-4" fill-rule="evenodd" x="16.5" y="53.5" width="48.5" height="2" rx="1"></rect>
                            <rect id="Rectangle-Copy-5" fill-rule="evenodd" x="2.5" y="59" width="76.5" height="2" rx="1"></rect>
                            <rect id="Rectangle-Copy-6" fill-rule="evenodd" x="2.5" y="64.5" width="76.5" height="2" rx="1"></rect>
                        </g>
                        <g id="OutlnAB50" transform="translate(134.000050, 140.000163)" fill="#E60000">
                            <path d="M3.5,0 L78,0 C79.9329966,0 81.5,0.0417867567 81.5,0.0933333333 L81.5,0.906666667 C81.5,0.958213243 79.9329966,1 78,1 L3.5,1 C1.56700338,1 0,0.958213243 0,0.906666667 L0,0.0933333333 C0,0.0417867567 1.56700338,0 3.5,0 Z M3.5,0.0533333333 C2.67157288,0.0533333333 2,0.0712419433 2,0.0933333333 L2,0.906666667 C2,0.928758057 2.67157288,0.946666667 3.5,0.946666667 L78,0.946666667 C78.8284271,0.946666667 79.5,0.928758057 79.5,0.906666667 L79.5,0.0933333333 C79.5,0.0712419433 78.8284271,0.0533333333 78,0.0533333333 L3.5,0.0533333333 Z" id="Rectangle" fill-rule="nonzero"></path>
                            <g id="OutlnBtn" transform="translate(25.000000, 73.500000)" fill-rule="nonzero">
                                <path d="M2.5,0 L29.5,0 C30.8807119,0 32,1.11928813 32,2.5 L32,6.5 C32,7.88071187 30.8807119,9 29.5,9 L2.5,9 C1.11928813,9 0,7.88071187 0,6.5 L0,2.5 C0,1.11928813 1.11928813,0 2.5,0 Z M2.5,2 C2.22385763,2 2,2.22385763 2,2.5 L2,6.5 C2,6.77614237 2.22385763,7 2.5,7 L29.5,7 C29.7761424,7 30,6.77614237 30,6.5 L30,2.5 C30,2.22385763 29.7761424,2 29.5,2 L2.5,2 Z" id="Rectangle-Copy-7"></path>
                            </g>
                            <rect id="Rectangle" fill-rule="evenodd" x="21" y="42.5" width="39.5" height="2" rx="1"></rect>
                            <rect id="Rectangle-Copy-3" fill-rule="evenodd" x="2.5" y="48" width="76.5" height="2" rx="1"></rect>
                            <rect id="Rectangle-Copy-4" fill-rule="evenodd" x="16.5" y="53.5" width="48.5" height="2" rx="1"></rect>
                            <rect id="Rectangle-Copy-5" fill-rule="evenodd" x="2.5" y="59" width="76.5" height="2" rx="1"></rect>
                            <rect id="Rectangle-Copy-6" fill-rule="evenodd" x="2.5" y="64.5" width="76.5" height="2" rx="1"></rect>
                        </g>
                        <g id="OutlnImageText" transform="translate(41.500050, 252.500163)" fill="#E60000">
                            <g id="Image-Text">
                                <path d="M60,9.5 C60,8.3954305 60.8954305,7.5 62,7.5 L170.5,7.5 C172.432997,7.5 174,9.06700338 174,11 L174,55.5 C174,57.4329966 172.432997,59 170.5,59 L62,59 C60.8954305,59 60,58.1045695 60,57 L60,9.5 Z M62,9.5 L62,57 L170.5,57 C171.328427,57 172,56.3284271 172,55.5 L172,11 C172,10.1715729 171.328427,9.5 170.5,9.5 L62,9.5 Z" id="Rectangle" fill-rule="nonzero"></path>
                                <path d="M3.5,0 L58.5,0 C60.4329966,0 62,1.56700338 62,3.5 L62,62.5 C62,64.4329966 60.4329966,66 58.5,66 L3.5,66 C1.56700338,66 0,64.4329966 0,62.5 L0,3.5 C0,1.56700338 1.56700338,0 3.5,0 Z M3.5,2 C2.67157288,2 2,2.67157288 2,3.5 L2,62.5 C2,63.3284271 2.67157288,64 3.5,64 L58.5,64 C59.3284271,64 60,63.3284271 60,62.5 L60,3.5 C60,2.67157288 59.3284271,2 58.5,2 L3.5,2 Z" id="Rectangle-Copy-10" fill-rule="nonzero"></path>
                                <g id="OutlnBtn" transform="translate(68.000000, 41.000000)" fill-rule="nonzero">
                                    <path d="M2.5,0 L29.5,0 C30.8807119,0 32,1.11928813 32,2.5 L32,6.5 C32,7.88071187 30.8807119,9 29.5,9 L2.5,9 C1.11928813,9 0,7.88071187 0,6.5 L0,2.5 C0,1.11928813 1.11928813,0 2.5,0 Z M2.5,2 C2.22385763,2 2,2.22385763 2,2.5 L2,6.5 C2,6.77614237 2.22385763,7 2.5,7 L29.5,7 C29.7761424,7 30,6.77614237 30,6.5 L30,2.5 C30,2.22385763 29.7761424,2 29.5,2 L2.5,2 Z" id="Rectangle-Copy-7"></path>
                                </g>
                                <rect id="Rectangle" x="69" y="17" width="39.5" height="2" rx="1"></rect>
                                <rect id="Rectangle-Copy-3" x="69" y="23" width="76.5" height="2" rx="1"></rect>
                                <rect id="Rectangle-Copy-4" x="69" y="29" width="48.5" height="2" rx="1"></rect>
                                <rect id="Rectangle-Copy-5" x="69" y="35" width="76.5" height="2" rx="1"></rect>
                            </g>
                        </g>
                        <g id="OutlnNotifiation" transform="translate(43.500050, 480.000163)" fill="#E60000">
                            <path d="M-0.41954023,-4 L170.41954,-4 C172.396974,-4 174,-2.31128762 174,-0.22815534 L174,47.7281553 C174,49.8112876 172.396974,51.5 170.41954,51.5 L-0.41954023,51.5 C-2.39697356,51.5 -4,49.8112876 -4,47.7281553 L-4,-0.22815534 C-4,-2.31128762 -2.39697356,-4 -0.41954023,-4 Z M-0.41954023,-1.84466019 C-1.26701166,-1.84466019 -1.95402299,-1.12092632 -1.95402299,-0.22815534 L-1.95402299,47.7281553 C-1.95402299,48.6209263 -1.26701166,49.3446602 -0.41954023,49.3446602 L170.41954,49.3446602 C171.267012,49.3446602 171.954023,48.6209263 171.954023,47.7281553 L171.954023,-0.22815534 C171.954023,-1.12092632 171.267012,-1.84466019 170.41954,-1.84466019 L-0.41954023,-1.84466019 Z" id="Rectangle" fill-rule="nonzero"></path>
                            <g id="Group" stroke-width="1" fill-rule="evenodd" transform="translate(26.000000, 7.500000)">
                                <path d="M0.078125,24 L0.921875,24 C0.965022246,24 1,25.1192881 1,26.5 L1,30.5 C1,31.8807119 0.965022246,33 0.921875,33 L0.078125,33 C0.0349777539,33 0,31.8807119 0,30.5 L0,26.5 C0,25.1192881 0.0349777539,24 0.078125,24 Z M0.078125,26 C0.0694955508,26 0.0625,26.2238576 0.0625,26.5 L0.0625,30.5 C0.0625,30.7761424 0.0694955508,31 0.078125,31 L0.921875,31 C0.930504449,31 0.9375,30.7761424 0.9375,30.5 L0.9375,26.5 C0.9375,26.2238576 0.930504449,26 0.921875,26 L0.078125,26 Z" id="Rectangle-Copy-7" fill-rule="nonzero"></path>
                                <path d="M121.102389,18 C121.654674,18 122.102389,18.4477153 122.102389,19 C122.102389,19.5522847 121.654674,20 121.102389,20 L3,20 C2.44771525,20 2,19.5522847 2,19 C2,18.4477153 2.44771525,18 3,18 L121.102389,18 Z M227.075085,12 C227.62737,12 228.075085,12.4477153 228.075085,13 C228.075085,13.5522847 227.62737,14 227.075085,14 L3,14 C2.44771525,14 2,13.5522847 2,13 C2,12.4477153 2.44771525,12 3,12 L227.075085,12 Z M231,6 C231.552285,6 232,6.44771525 232,7 C232,7.55228475 231.552285,8 231,8 L3,8 C2.44771525,8 2,7.55228475 2,7 C2,6.44771525 2.44771525,6 3,6 L231,6 Z M63.0136519,0 C63.5659366,-1.01453063e-16 64.0136519,0.44771525 64.0136519,1 C64.0136519,1.55228475 63.5659366,2 63.0136519,2 L3,2 C2.44771525,2 2,1.55228475 2,1 C2,0.44771525 2.44771525,1.01453063e-16 3,0 L63.0136519,0 Z" id="Combined-Shape"></path>
                            </g>
                        </g>
                        <g id="OutlnHero" transform="translate(0.000050, 28.000163)" fill="#E60000">
                            <g id="Hero">
                                <rect id="Rectangle-Copy-16" x="0" y="0" width="257" height="2"></rect>
                                <rect id="Rectangle-Copy-17" x="0" y="80.5" width="257" height="2"></rect>
                                <g id="Group-4" transform="translate(41.500000, 21.000000)">
                                    <rect id="Rectangle" x="0" y="0" width="67.5" height="2" rx="1"></rect>
                                    <rect id="Rectangle-Copy-21" x="0" y="10" width="55.5" height="2" rx="1"></rect>
                                    <rect id="Rectangle-Copy-22" x="0" y="16" width="53" height="2" rx="1"></rect>
                                    <rect id="Rectangle-Copy-23" x="0" y="22" width="49.5" height="2" rx="1"></rect>
                                    <g id="OutlnBtn" transform="translate(0.000000, 32.000000)" fill-rule="nonzero">
                                        <path d="M2.5,0 L29.5,0 C30.8807119,0 32,1.11928813 32,2.5 L32,6.5 C32,7.88071187 30.8807119,9 29.5,9 L2.5,9 C1.11928813,9 0,7.88071187 0,6.5 L0,2.5 C0,1.11928813 1.11928813,0 2.5,0 Z M2.5,2 C2.22385763,2 2,2.22385763 2,2.5 L2,6.5 C2,6.77614237 2.22385763,7 2.5,7 L29.5,7 C29.7761424,7 30,6.77614237 30,6.5 L30,2.5 C30,2.22385763 29.7761424,2 29.5,2 L2.5,2 Z" id="Rectangle-Copy-7"></path>
                                    </g>
                                </g>
                            </g>
                        </g>
                        <g id="OutlnTextOnly" transform="translate(58.000050, 348.500163)" fill="#E60000">
                            <g id="Text-only">
                                <path d="M69,0 C69.5522847,-1.01453063e-16 70,0.44771525 70,1 C70,1.55228475 69.5522847,2 69,2 L31.5,2 C30.9477153,2 30.5,1.55228475 30.5,1 C30.5,0.44771525 30.9477153,1.01453063e-16 31.5,0 L69,0 Z M112,0 C112.552285,-1.01453063e-16 113,0.44771525 113,1 C113,1.55228475 112.552285,2 112,2 L74.5,2 C73.9477153,2 73.5,1.55228475 73.5,1 C73.5,0.44771525 73.9477153,1.01453063e-16 74.5,0 L112,0 Z" id="Combined-Shape"></path>
                                <rect id="Rectangle-Copy-3" x="6" y="6" width="131.5" height="2" rx="1"></rect>
                                <rect id="Rectangle-Copy-4" x="14" y="12" width="115" height="2" rx="1"></rect>
                                <rect id="Rectangle-Copy-5" x="2.5" y="18" width="138" height="2" rx="1"></rect>
                                <path d="M41.5,24 C42.0522847,24 42.5,24.4477153 42.5,25 C42.5,25.5522847 42.0522847,26 41.5,26 L14,26 C13.4477153,26 13,25.5522847 13,25 C13,24.4477153 13.4477153,24 14,24 L41.5,24 Z M129.5,24 C130.052285,24 130.5,24.4477153 130.5,25 C130.5,25.5522847 130.052285,26 129.5,26 L47,26 C46.4477153,26 46,25.5522847 46,25 C46,24.4477153 46.4477153,24 47,24 L129.5,24 Z" id="Combined-Shape"></path>
                                <path d="M72.5,30 C73.0522847,30 73.5,30.4477153 73.5,31 C73.5,31.5522847 73.0522847,32 72.5,32 L1,32 C0.44771525,32 6.76353751e-17,31.5522847 0,31 C-6.76353751e-17,30.4477153 0.44771525,30 1,30 L72.5,30 Z M142,30 C142.552285,30 143,30.4477153 143,31 C143,31.5522847 142.552285,32 142,32 L78,32 C77.4477153,32 77,31.5522847 77,31 C77,30.4477153 77.4477153,30 78,30 L142,30 Z" id="Combined-Shape"></path>
                            </g>
                        </g>
                    </g>
                </g>
            </g>
        </g>
        <g id="OutlnPage-Copy-2" transform="translate(530.878632, 240.271606)">
            <mask id="mask-5" fill="white">
                <use xlink:href="#path-4"></use>
            </mask>
            <g id="Mask">
                <use fill="black" fill-opacity="1" filter="url(#filter-6)" xlink:href="#path-4"></use>
                <rect stroke="#E60000" stroke-width="2" stroke-linejoin="square" fill="#FFFFFF" fill-rule="evenodd" x="1" y="1" width="256.5" height="138" rx="4"></rect>
            </g>
            <g id="OutlnPage" mask="url(#mask-5)">
                <g transform="translate(0.000000, -156.000000)" id="Page-Copy">
                    <g>
                        <g id="OutlnNavi" fill="#E60000">
                            <g>
                                <rect id="Rectangle" x="41.5000503" y="9.50016305" width="31" height="2" rx="1"></rect>
                                <rect id="Rectangle-Copy-2" x="87.5000503" y="9.50016305" width="46" height="2" rx="1"></rect>
                                <rect id="Rectangle-Copy-8" x="148.50005" y="9.50016305" width="21.5" height="2" rx="1"></rect>
                                <rect id="Rectangle-Copy-9" x="185.00005" y="9.50016305" width="30.5" height="2" rx="1"></rect>
                                <rect id="Rectangle-Copy" x="5.0330118e-05" y="28.0001631" width="257" height="2"></rect>
                                <path d="M27.0000446,13.4120106 C27.0146432,17.7090368 23.4849493,21.4844962 18.6586326,21.5003283 C14.0251663,21.5151099 10.0179236,17.626299 10.0000561,12.4068702 C9.98835559,8.95931098 11.8082332,5.44886077 14.531243,3.25273257 C17.0130847,1.25109779 20.3633419,0.0100304938 23.4000639,2.98218685e-05 C23.7950491,-0.00106020322 24.1654634,0.0276823984 24.4695302,0.0942656741 C24.4698281,0.0943301754 24.4687012,0.0940861861 24.4631865,0.0928921388 C24.8563587,0.176395208 25.2167056,0.420738359 25.2923303,0.963579982 C25.3469992,1.35599893 25.1762618,1.70022763 24.9047374,1.91023065 C24.7649329,2.01835852 24.6203262,2.07778257 24.4696631,2.10990718 L24.4767856,2.10830609 C24.4838408,2.10680057 24.4852469,2.10644703 24.4886392,2.10559412 L24.4765972,2.10841249 C22.6499588,2.52503561 21.2179864,4.08482044 20.9759413,5.85774951 C24.9160365,7.03980894 26.9872597,9.67861778 27.0000446,13.4120106 Z M15.7868028,4.80951441 C13.5184673,6.63894426 11.9904951,9.58632402 12.0000445,12.4000531 C12.014095,16.5044577 15.1128076,19.5115897 18.6521606,19.500265 C22.3457445,19.4881824 25.0109908,16.6373604 25.0001561,13.4188324 C24.9897236,10.4015551 23.3078356,8.44237737 19.7255735,7.59256967 C19.346258,7.50258596 19.0538135,7.20037078 18.9763399,6.81830384 C18.9525234,6.70085077 18.940327,6.54724213 18.939846,6.40675243 C18.9348732,4.94743524 19.4722362,3.56209273 20.3694025,2.45538557 C18.7209531,2.92760094 17.1056128,3.74587841 15.7868028,4.80951441 Z" id="Speechmark-Red" fill-rule="nonzero"></path>
                            </g>
                        </g>
                        <g id="OutlnMultiDivider" transform="translate(0.000050, 410.000163)" fill="#E60000">
                            <rect id="Rectangle-Copy-16" x="0" y="0" width="257" height="2"></rect>
                            <rect id="Rectangle-Copy-17" x="0" y="38" width="257" height="2"></rect>
                            <g id="Group" stroke-width="1" transform="translate(53.500000, 8.500000)">
                                <path d="M8,16 C12.418278,16 16,12.418278 16,8 C16,3.581722 12.418278,0 8,0 C3.581722,0 0,3.581722 0,8 C0,12.418278 3.581722,16 8,16 Z M8,14 C4.6862915,14 2,11.3137085 2,8 C2,4.6862915 4.6862915,2 8,2 C11.3137085,2 14,4.6862915 14,8 C14,11.3137085 11.3137085,14 8,14 Z" id="Oval" fill-rule="nonzero"></path>
                                <path d="M52.5,16 C56.918278,16 60.5,12.418278 60.5,8 C60.5,3.581722 56.918278,0 52.5,0 C48.081722,0 44.5,3.581722 44.5,8 C44.5,12.418278 48.081722,16 52.5,16 Z M52.5,14 C49.1862915,14 46.5,11.3137085 46.5,8 C46.5,4.6862915 49.1862915,2 52.5,2 C55.8137085,2 58.5,4.6862915 58.5,8 C58.5,11.3137085 55.8137085,14 52.5,14 Z" id="Oval-Copy-3" fill-rule="nonzero"></path>
                                <path d="M97,16 C101.418278,16 105,12.418278 105,8 C105,3.581722 101.418278,0 97,0 C92.581722,0 89,3.581722 89,8 C89,12.418278 92.581722,16 97,16 Z M97,14 C93.6862915,14 91,11.3137085 91,8 C91,4.6862915 93.6862915,2 97,2 C100.313708,2 103,4.6862915 103,8 C103,11.3137085 100.313708,14 97,14 Z" id="Oval-Copy-4" fill-rule="nonzero"></path>
                                <path d="M141.5,16 C145.918278,16 149.5,12.418278 149.5,8 C149.5,3.581722 145.918278,0 141.5,0 C137.081722,0 133.5,3.581722 133.5,8 C133.5,12.418278 137.081722,16 141.5,16 Z M141.5,14 C138.186292,14 135.5,11.3137085 135.5,8 C135.5,4.6862915 138.186292,2 141.5,2 C144.813708,2 147.5,4.6862915 147.5,8 C147.5,11.3137085 144.813708,14 141.5,14 Z" id="Oval-Copy-5" fill-rule="nonzero"></path>
                            </g>
                            <rect id="Rectangle" x="42" y="29" width="39.5" height="2" rx="1"></rect>
                            <rect id="Rectangle-Copy-18" x="96" y="29" width="19.5" height="2" rx="1"></rect>
                            <rect id="Rectangle-Copy-19" x="137" y="29" width="26.5" height="2" rx="1"></rect>
                            <rect id="Rectangle-Copy-20" x="185" y="29" width="19.5" height="2" rx="1"></rect>
                        </g>
                        <g id="OutlnAB50" transform="translate(41.500050, 140.000163)" fill="#E60000">
                            <path d="M3.5,0 L78,0 C79.9329966,0 81.5,0.0417867567 81.5,0.0933333333 L81.5,0.906666667 C81.5,0.958213243 79.9329966,1 78,1 L3.5,1 C1.56700338,1 0,0.958213243 0,0.906666667 L0,0.0933333333 C0,0.0417867567 1.56700338,0 3.5,0 Z M3.5,0.0533333333 C2.67157288,0.0533333333 2,0.0712419433 2,0.0933333333 L2,0.906666667 C2,0.928758057 2.67157288,0.946666667 3.5,0.946666667 L78,0.946666667 C78.8284271,0.946666667 79.5,0.928758057 79.5,0.906666667 L79.5,0.0933333333 C79.5,0.0712419433 78.8284271,0.0533333333 78,0.0533333333 L3.5,0.0533333333 Z" id="Rectangle" fill-rule="nonzero"></path>
                            <g id="OutlnBtn" transform="translate(25.000000, 73.500000)" fill-rule="nonzero">
                                <path d="M2.5,0 L29.5,0 C30.8807119,0 32,1.11928813 32,2.5 L32,6.5 C32,7.88071187 30.8807119,9 29.5,9 L2.5,9 C1.11928813,9 0,7.88071187 0,6.5 L0,2.5 C0,1.11928813 1.11928813,0 2.5,0 Z M2.5,2 C2.22385763,2 2,2.22385763 2,2.5 L2,6.5 C2,6.77614237 2.22385763,7 2.5,7 L29.5,7 C29.7761424,7 30,6.77614237 30,6.5 L30,2.5 C30,2.22385763 29.7761424,2 29.5,2 L2.5,2 Z" id="Rectangle-Copy-7"></path>
                            </g>
                            <rect id="Rectangle" fill-rule="evenodd" x="21" y="42.5" width="39.5" height="2" rx="1"></rect>
                            <rect id="Rectangle-Copy-3" fill-rule="evenodd" x="2.5" y="48" width="76.5" height="2" rx="1"></rect>
                            <rect id="Rectangle-Copy-4" fill-rule="evenodd" x="16.5" y="53.5" width="48.5" height="2" rx="1"></rect>
                            <rect id="Rectangle-Copy-5" fill-rule="evenodd" x="2.5" y="59" width="76.5" height="2" rx="1"></rect>
                            <rect id="Rectangle-Copy-6" fill-rule="evenodd" x="2.5" y="64.5" width="76.5" height="2" rx="1"></rect>
                        </g>
                        <g id="OutlnAB50" transform="translate(134.000050, 140.000163)" fill="#E60000">
                            <path d="M3.5,0 L78,0 C79.9329966,0 81.5,0.0417867567 81.5,0.0933333333 L81.5,0.906666667 C81.5,0.958213243 79.9329966,1 78,1 L3.5,1 C1.56700338,1 0,0.958213243 0,0.906666667 L0,0.0933333333 C0,0.0417867567 1.56700338,0 3.5,0 Z M3.5,0.0533333333 C2.67157288,0.0533333333 2,0.0712419433 2,0.0933333333 L2,0.906666667 C2,0.928758057 2.67157288,0.946666667 3.5,0.946666667 L78,0.946666667 C78.8284271,0.946666667 79.5,0.928758057 79.5,0.906666667 L79.5,0.0933333333 C79.5,0.0712419433 78.8284271,0.0533333333 78,0.0533333333 L3.5,0.0533333333 Z" id="Rectangle" fill-rule="nonzero"></path>
                            <g id="OutlnBtn" transform="translate(25.000000, 73.500000)" fill-rule="nonzero">
                                <path d="M2.5,0 L29.5,0 C30.8807119,0 32,1.11928813 32,2.5 L32,6.5 C32,7.88071187 30.8807119,9 29.5,9 L2.5,9 C1.11928813,9 0,7.88071187 0,6.5 L0,2.5 C0,1.11928813 1.11928813,0 2.5,0 Z M2.5,2 C2.22385763,2 2,2.22385763 2,2.5 L2,6.5 C2,6.77614237 2.22385763,7 2.5,7 L29.5,7 C29.7761424,7 30,6.77614237 30,6.5 L30,2.5 C30,2.22385763 29.7761424,2 29.5,2 L2.5,2 Z" id="Rectangle-Copy-7"></path>
                            </g>
                            <rect id="Rectangle" fill-rule="evenodd" x="21" y="42.5" width="39.5" height="2" rx="1"></rect>
                            <rect id="Rectangle-Copy-3" fill-rule="evenodd" x="2.5" y="48" width="76.5" height="2" rx="1"></rect>
                            <rect id="Rectangle-Copy-4" fill-rule="evenodd" x="16.5" y="53.5" width="48.5" height="2" rx="1"></rect>
                            <rect id="Rectangle-Copy-5" fill-rule="evenodd" x="2.5" y="59" width="76.5" height="2" rx="1"></rect>
                            <rect id="Rectangle-Copy-6" fill-rule="evenodd" x="2.5" y="64.5" width="76.5" height="2" rx="1"></rect>
                        </g>
                        <g id="OutlnImageText" transform="translate(41.500050, 252.500163)" fill="#E60000">
                            <g id="Image-Text">
                                <path d="M60,9.5 C60,8.3954305 60.8954305,7.5 62,7.5 L170.5,7.5 C172.432997,7.5 174,9.06700338 174,11 L174,55.5 C174,57.4329966 172.432997,59 170.5,59 L62,59 C60.8954305,59 60,58.1045695 60,57 L60,9.5 Z M62,9.5 L62,57 L170.5,57 C171.328427,57 172,56.3284271 172,55.5 L172,11 C172,10.1715729 171.328427,9.5 170.5,9.5 L62,9.5 Z" id="Rectangle" fill-rule="nonzero"></path>
                                <path d="M3.5,0 L58.5,0 C60.4329966,0 62,1.56700338 62,3.5 L62,62.5 C62,64.4329966 60.4329966,66 58.5,66 L3.5,66 C1.56700338,66 0,64.4329966 0,62.5 L0,3.5 C0,1.56700338 1.56700338,0 3.5,0 Z M3.5,2 C2.67157288,2 2,2.67157288 2,3.5 L2,62.5 C2,63.3284271 2.67157288,64 3.5,64 L58.5,64 C59.3284271,64 60,63.3284271 60,62.5 L60,3.5 C60,2.67157288 59.3284271,2 58.5,2 L3.5,2 Z" id="Rectangle-Copy-10" fill-rule="nonzero"></path>
                                <g id="OutlnBtn" transform="translate(68.000000, 41.000000)" fill-rule="nonzero">
                                    <path d="M2.5,0 L29.5,0 C30.8807119,0 32,1.11928813 32,2.5 L32,6.5 C32,7.88071187 30.8807119,9 29.5,9 L2.5,9 C1.11928813,9 0,7.88071187 0,6.5 L0,2.5 C0,1.11928813 1.11928813,0 2.5,0 Z M2.5,2 C2.22385763,2 2,2.22385763 2,2.5 L2,6.5 C2,6.77614237 2.22385763,7 2.5,7 L29.5,7 C29.7761424,7 30,6.77614237 30,6.5 L30,2.5 C30,2.22385763 29.7761424,2 29.5,2 L2.5,2 Z" id="Rectangle-Copy-7"></path>
                                </g>
                                <rect id="Rectangle" x="69" y="17" width="39.5" height="2" rx="1"></rect>
                                <rect id="Rectangle-Copy-3" x="69" y="23" width="76.5" height="2" rx="1"></rect>
                                <rect id="Rectangle-Copy-4" x="69" y="29" width="48.5" height="2" rx="1"></rect>
                                <rect id="Rectangle-Copy-5" x="69" y="35" width="76.5" height="2" rx="1"></rect>
                            </g>
                        </g>
                        <g id="OutlnNotifiation" transform="translate(43.500050, 480.000163)" fill="#E60000">
                            <path d="M-0.41954023,-4 L170.41954,-4 C172.396974,-4 174,-2.31128762 174,-0.22815534 L174,47.7281553 C174,49.8112876 172.396974,51.5 170.41954,51.5 L-0.41954023,51.5 C-2.39697356,51.5 -4,49.8112876 -4,47.7281553 L-4,-0.22815534 C-4,-2.31128762 -2.39697356,-4 -0.41954023,-4 Z M-0.41954023,-1.84466019 C-1.26701166,-1.84466019 -1.95402299,-1.12092632 -1.95402299,-0.22815534 L-1.95402299,47.7281553 C-1.95402299,48.6209263 -1.26701166,49.3446602 -0.41954023,49.3446602 L170.41954,49.3446602 C171.267012,49.3446602 171.954023,48.6209263 171.954023,47.7281553 L171.954023,-0.22815534 C171.954023,-1.12092632 171.267012,-1.84466019 170.41954,-1.84466019 L-0.41954023,-1.84466019 Z" id="Rectangle" fill-rule="nonzero"></path>
                            <g id="Group" stroke-width="1" fill-rule="evenodd" transform="translate(26.000000, 7.500000)">
                                <path d="M0.078125,24 L0.921875,24 C0.965022246,24 1,25.1192881 1,26.5 L1,30.5 C1,31.8807119 0.965022246,33 0.921875,33 L0.078125,33 C0.0349777539,33 0,31.8807119 0,30.5 L0,26.5 C0,25.1192881 0.0349777539,24 0.078125,24 Z M0.078125,26 C0.0694955508,26 0.0625,26.2238576 0.0625,26.5 L0.0625,30.5 C0.0625,30.7761424 0.0694955508,31 0.078125,31 L0.921875,31 C0.930504449,31 0.9375,30.7761424 0.9375,30.5 L0.9375,26.5 C0.9375,26.2238576 0.930504449,26 0.921875,26 L0.078125,26 Z" id="Rectangle-Copy-7" fill-rule="nonzero"></path>
                                <path d="M121.102389,18 C121.654674,18 122.102389,18.4477153 122.102389,19 C122.102389,19.5522847 121.654674,20 121.102389,20 L3,20 C2.44771525,20 2,19.5522847 2,19 C2,18.4477153 2.44771525,18 3,18 L121.102389,18 Z M227.075085,12 C227.62737,12 228.075085,12.4477153 228.075085,13 C228.075085,13.5522847 227.62737,14 227.075085,14 L3,14 C2.44771525,14 2,13.5522847 2,13 C2,12.4477153 2.44771525,12 3,12 L227.075085,12 Z M231,6 C231.552285,6 232,6.44771525 232,7 C232,7.55228475 231.552285,8 231,8 L3,8 C2.44771525,8 2,7.55228475 2,7 C2,6.44771525 2.44771525,6 3,6 L231,6 Z M63.0136519,0 C63.5659366,-1.01453063e-16 64.0136519,0.44771525 64.0136519,1 C64.0136519,1.55228475 63.5659366,2 63.0136519,2 L3,2 C2.44771525,2 2,1.55228475 2,1 C2,0.44771525 2.44771525,1.01453063e-16 3,0 L63.0136519,0 Z" id="Combined-Shape"></path>
                            </g>
                        </g>
                        <g id="OutlnHero" transform="translate(0.000050, 28.000163)" fill="#E60000">
                            <g id="Hero">
                                <rect id="Rectangle-Copy-16" x="0" y="0" width="257" height="2"></rect>
                                <rect id="Rectangle-Copy-17" x="0" y="80.5" width="257" height="2"></rect>
                                <g id="Group-4" transform="translate(41.500000, 21.000000)">
                                    <rect id="Rectangle" x="0" y="0" width="67.5" height="2" rx="1"></rect>
                                    <rect id="Rectangle-Copy-21" x="0" y="10" width="55.5" height="2" rx="1"></rect>
                                    <rect id="Rectangle-Copy-22" x="0" y="16" width="53" height="2" rx="1"></rect>
                                    <rect id="Rectangle-Copy-23" x="0" y="22" width="49.5" height="2" rx="1"></rect>
                                    <g id="OutlnBtn" transform="translate(0.000000, 32.000000)" fill-rule="nonzero">
                                        <path d="M2.5,0 L29.5,0 C30.8807119,0 32,1.11928813 32,2.5 L32,6.5 C32,7.88071187 30.8807119,9 29.5,9 L2.5,9 C1.11928813,9 0,7.88071187 0,6.5 L0,2.5 C0,1.11928813 1.11928813,0 2.5,0 Z M2.5,2 C2.22385763,2 2,2.22385763 2,2.5 L2,6.5 C2,6.77614237 2.22385763,7 2.5,7 L29.5,7 C29.7761424,7 30,6.77614237 30,6.5 L30,2.5 C30,2.22385763 29.7761424,2 29.5,2 L2.5,2 Z" id="Rectangle-Copy-7"></path>
                                    </g>
                                </g>
                            </g>
                        </g>
                        <g id="OutlnTextOnly" transform="translate(58.000050, 348.500163)" fill="#E60000">
                            <g id="Text-only">
                                <path d="M69,0 C69.5522847,-1.01453063e-16 70,0.44771525 70,1 C70,1.55228475 69.5522847,2 69,2 L31.5,2 C30.9477153,2 30.5,1.55228475 30.5,1 C30.5,0.44771525 30.9477153,1.01453063e-16 31.5,0 L69,0 Z M112,0 C112.552285,-1.01453063e-16 113,0.44771525 113,1 C113,1.55228475 112.552285,2 112,2 L74.5,2 C73.9477153,2 73.5,1.55228475 73.5,1 C73.5,0.44771525 73.9477153,1.01453063e-16 74.5,0 L112,0 Z" id="Combined-Shape"></path>
                                <rect id="Rectangle-Copy-3" x="6" y="6" width="131.5" height="2" rx="1"></rect>
                                <rect id="Rectangle-Copy-4" x="14" y="12" width="115" height="2" rx="1"></rect>
                                <rect id="Rectangle-Copy-5" x="2.5" y="18" width="138" height="2" rx="1"></rect>
                                <path d="M41.5,24 C42.0522847,24 42.5,24.4477153 42.5,25 C42.5,25.5522847 42.0522847,26 41.5,26 L14,26 C13.4477153,26 13,25.5522847 13,25 C13,24.4477153 13.4477153,24 14,24 L41.5,24 Z M129.5,24 C130.052285,24 130.5,24.4477153 130.5,25 C130.5,25.5522847 130.052285,26 129.5,26 L47,26 C46.4477153,26 46,25.5522847 46,25 C46,24.4477153 46.4477153,24 47,24 L129.5,24 Z" id="Combined-Shape"></path>
                                <path d="M72.5,30 C73.0522847,30 73.5,30.4477153 73.5,31 C73.5,31.5522847 73.0522847,32 72.5,32 L1,32 C0.44771525,32 6.76353751e-17,31.5522847 0,31 C-6.76353751e-17,30.4477153 0.44771525,30 1,30 L72.5,30 Z M142,30 C142.552285,30 143,30.4477153 143,31 C143,31.5522847 142.552285,32 142,32 L78,32 C77.4477153,32 77,31.5522847 77,31 C77,30.4477153 77.4477153,30 78,30 L142,30 Z" id="Combined-Shape"></path>
                            </g>
                        </g>
                    </g>
                </g>
            </g>
        </g>
        <g id="OutlnPage-Copy-3" transform="translate(370.878632, 198.271606)">
            <path id="Path" d="M450.435479,238.25 L450.435479,240.25 L445.435479,240.25 L445.435479,238.25 L450.435479,238.25 Z M520.435479,238.25 L520.435479,240.25 L515.435479,240.25 L515.435479,238.25 L520.435479,238.25 Z M410.435479,238.25 L410.435479,240.25 L405.435479,240.25 L405.435479,238.25 L410.435479,238.25 Z M420.435479,238.25 L420.435479,240.25 L415.435479,240.25 L415.435479,238.25 L420.435479,238.25 Z M430.435479,238.25 L430.435479,240.25 L425.435479,240.25 L425.435479,238.25 L430.435479,238.25 Z M440.435479,238.25 L440.435479,240.25 L435.435479,240.25 L435.435479,238.25 L440.435479,238.25 Z M460.435479,238.25 L460.435479,240.25 L455.435479,240.25 L455.435479,238.25 L460.435479,238.25 Z M510.435479,238.25 L510.435479,240.25 L505.435479,240.25 L505.435479,238.25 L510.435479,238.25 Z M500.435479,238.25 L500.435479,240.25 L495.435479,240.25 L495.435479,238.25 L500.435479,238.25 Z M490.435479,238.25 L490.435479,240.25 L485.435479,240.25 L485.435479,238.25 L490.435479,238.25 Z M480.435479,238.25 L480.435479,240.25 L475.435479,240.25 L475.435479,238.25 L480.435479,238.25 Z M470.435479,238.25 L470.435479,240.25 L465.435479,240.25 L465.435479,238.25 L470.435479,238.25 Z M398.056515,234.28335 C398.661292,235.538925 399.63136,236.588704 400.830376,237.292267 L401.090763,237.437681 L400.153118,239.204266 C398.557641,238.35744 397.250024,237.046442 396.407188,235.453248 L396.254647,235.151262 L398.056515,234.28335 Z M524.601563,232.53866 L526.601562,232.539377 L526.600312,235.362736 C526.580408,236.259001 526.323125,237.118133 525.863535,237.865601 L525.719624,238.086416 L524.073329,236.950762 C524.361746,236.532659 524.53921,236.049942 524.587717,235.553586 L524.600558,235.340176 L524.601563,232.53866 Z M397.367187,224.805613 L397.367187,229.805613 L395.367187,229.805613 L395.367187,224.805613 L397.367187,224.805613 Z M526.601562,222.539018 L526.601562,227.539018 L524.601562,227.539018 L524.601562,222.539018 L526.601562,222.539018 Z M397.367187,214.805613 L397.367187,219.805613 L395.367187,219.805613 L395.367187,214.805613 L397.367187,214.805613 Z M526.601562,212.539018 L526.601562,217.539018 L524.601562,217.539018 L524.601562,212.539018 L526.601562,212.539018 Z M397.367187,204.805613 L397.367187,209.805613 L395.367187,209.805613 L395.367187,204.805613 L397.367187,204.805613 Z M526.601562,202.539018 L526.601562,207.539018 L524.601562,207.539018 L524.601562,202.539018 L526.601562,202.539018 Z M397.367187,194.805613 L397.367187,199.805613 L395.367187,199.805613 L395.367187,194.805613 L397.367187,194.805613 Z M526.601562,192.539018 L526.601562,197.539018 L524.601562,197.539018 L524.601562,192.539018 L526.601562,192.539018 Z M397.367187,184.805613 L397.367187,189.805613 L395.367187,189.805613 L395.367187,184.805613 L397.367187,184.805613 Z M526.601562,182.539018 L526.601562,187.539018 L524.601562,187.539018 L524.601562,182.539018 L526.601562,182.539018 Z M397.367187,174.805613 L397.367187,179.805613 L395.367187,179.805613 L395.367187,174.805613 L397.367187,174.805613 Z M526.601562,172.539018 L526.601562,177.539018 L524.601562,177.539018 L524.601562,172.539018 L526.601562,172.539018 Z M397.367187,164.805613 L397.367187,169.805613 L395.367187,169.805613 L395.367187,164.805613 L397.367187,164.805613 Z M526.601562,162.539018 L526.601562,167.539018 L524.601562,167.539018 L524.601562,162.539018 L526.601562,162.539018 Z M397.367187,154.805613 L397.367187,159.805613 L395.367187,159.805613 L395.367187,154.805613 L397.367187,154.805613 Z M526.601562,152.539018 L526.601562,157.539018 L524.601562,157.539018 L524.601562,152.539018 L526.601562,152.539018 Z M397.367187,144.805613 L397.367187,149.805613 L395.367187,149.805613 L395.367187,144.805613 L397.367187,144.805613 Z M526.601562,142.539018 L526.601562,147.539018 L524.601562,147.539018 L524.601562,142.539018 L526.601562,142.539018 Z M397.367187,134.805613 L397.367187,139.805613 L395.367187,139.805613 L395.367187,134.805613 L397.367187,134.805613 Z M526.601562,132.539018 L526.601562,137.539018 L524.601562,137.539018 L524.601562,132.539018 L526.601562,132.539018 Z M397.367187,124.805613 L397.367187,129.805613 L395.367187,129.805613 L395.367187,124.805613 L397.367187,124.805613 Z M526.601562,122.539018 L526.601562,127.539018 L524.601562,127.539018 L524.601562,122.539018 L526.601562,122.539018 Z M397.367187,114.805613 L397.367187,119.805613 L395.367187,119.805613 L395.367187,114.805613 L397.367187,114.805613 Z M526.601562,112.539018 L526.601562,117.539018 L524.601562,117.539018 L524.601562,112.539018 L526.601562,112.539018 Z M396.319207,104.514124 C396.94687,105.695162 397.304412,107.003475 397.359644,108.36102 L397.367187,108.732422 L397.367187,109.805613 L395.367187,109.805613 L395.367187,108.732422 C395.367187,107.687766 395.138753,106.677833 394.705203,105.756475 L394.553122,105.45271 L396.319207,104.514124 Z M526.601562,102.539018 L526.601562,107.539018 L524.601562,107.539018 L524.601562,102.539018 L526.601562,102.539018 Z M388.367187,99.7324219 C389.612316,99.7324219 390.823046,99.9860314 391.940638,100.47002 L392.273062,100.622104 L391.404121,102.423477 C390.569779,102.021009 389.662308,101.788021 388.721483,101.741214 L388.367187,101.732422 L386.9277,101.732422 L386.9277,99.7324219 L388.367187,99.7324219 Z M241.9277,99.7324219 L241.9277,101.732422 L236.9277,101.732422 L236.9277,99.7324219 L241.9277,99.7324219 Z M381.9277,99.7324219 L381.9277,101.732422 L376.9277,101.732422 L376.9277,99.7324219 L381.9277,99.7324219 Z M261.9277,99.7324219 L261.9277,101.732422 L256.9277,101.732422 L256.9277,99.7324219 L261.9277,99.7324219 Z M251.9277,99.7324219 L251.9277,101.732422 L246.9277,101.732422 L246.9277,99.7324219 L251.9277,99.7324219 Z M231.9277,99.7324219 L231.9277,101.732422 L226.9277,101.732422 L226.9277,99.7324219 L231.9277,99.7324219 Z M271.9277,99.7324219 L271.9277,101.732422 L266.9277,101.732422 L266.9277,99.7324219 L271.9277,99.7324219 Z M281.9277,99.7324219 L281.9277,101.732422 L276.9277,101.732422 L276.9277,99.7324219 L281.9277,99.7324219 Z M291.9277,99.7324219 L291.9277,101.732422 L286.9277,101.732422 L286.9277,99.7324219 L291.9277,99.7324219 Z M301.9277,99.7324219 L301.9277,101.732422 L296.9277,101.732422 L296.9277,99.7324219 L301.9277,99.7324219 Z M311.9277,99.7324219 L311.9277,101.732422 L306.9277,101.732422 L306.9277,99.7324219 L311.9277,99.7324219 Z M321.9277,99.7324219 L321.9277,101.732422 L316.9277,101.732422 L316.9277,99.7324219 L321.9277,99.7324219 Z M331.9277,99.7324219 L331.9277,101.732422 L326.9277,101.732422 L326.9277,99.7324219 L331.9277,99.7324219 Z M341.9277,99.7324219 L341.9277,101.732422 L336.9277,101.732422 L336.9277,99.7324219 L341.9277,99.7324219 Z M351.9277,99.7324219 L351.9277,101.732422 L346.9277,101.732422 L346.9277,99.7324219 L351.9277,99.7324219 Z M361.9277,99.7324219 L361.9277,101.732422 L356.9277,101.732422 L356.9277,99.7324219 L361.9277,99.7324219 Z M371.9277,99.7324219 L371.9277,101.732422 L366.9277,101.732422 L366.9277,99.7324219 L371.9277,99.7324219 Z M7.29477117,99.5402347 C7.71990957,99.6420296 8.15571032,99.7039524 8.59839522,99.7246498 L8.93164062,99.7324219 L11.9277004,99.7324219 L11.9277004,101.732422 L8.93164062,101.732422 C8.36002972,101.732422 7.79490099,101.679005 7.24166709,101.573823 L6.82905653,101.485257 L7.29477117,99.5402347 Z M221.9277,99.7324219 L221.9277,101.732422 L216.9277,101.732422 L216.9277,99.7324219 L221.9277,99.7324219 Z M211.9277,99.7324219 L211.9277,101.732422 L206.9277,101.732422 L206.9277,99.7324219 L211.9277,99.7324219 Z M201.9277,99.7324219 L201.9277,101.732422 L196.9277,101.732422 L196.9277,99.7324219 L201.9277,99.7324219 Z M191.9277,99.7324219 L191.9277,101.732422 L186.9277,101.732422 L186.9277,99.7324219 L191.9277,99.7324219 Z M181.9277,99.7324219 L181.9277,101.732422 L176.9277,101.732422 L176.9277,99.7324219 L181.9277,99.7324219 Z M171.9277,99.7324219 L171.9277,101.732422 L166.9277,101.732422 L166.9277,99.7324219 L171.9277,99.7324219 Z M161.9277,99.7324219 L161.9277,101.732422 L156.9277,101.732422 L156.9277,99.7324219 L161.9277,99.7324219 Z M151.9277,99.7324219 L151.9277,101.732422 L146.9277,101.732422 L146.9277,99.7324219 L151.9277,99.7324219 Z M141.9277,99.7324219 L141.9277,101.732422 L136.9277,101.732422 L136.9277,99.7324219 L141.9277,99.7324219 Z M131.9277,99.7324219 L131.9277,101.732422 L126.9277,101.732422 L126.9277,99.7324219 L131.9277,99.7324219 Z M121.9277,99.7324219 L121.9277,101.732422 L116.9277,101.732422 L116.9277,99.7324219 L121.9277,99.7324219 Z M111.9277,99.7324219 L111.9277,101.732422 L106.9277,101.732422 L106.9277,99.7324219 L111.9277,99.7324219 Z M101.9277,99.7324219 L101.9277,101.732422 L96.9277004,101.732422 L96.9277004,99.7324219 L101.9277,99.7324219 Z M91.9277004,99.7324219 L91.9277004,101.732422 L86.9277004,101.732422 L86.9277004,99.7324219 L91.9277004,99.7324219 Z M81.9277004,99.7324219 L81.9277004,101.732422 L76.9277004,101.732422 L76.9277004,99.7324219 L81.9277004,99.7324219 Z M71.9277004,99.7324219 L71.9277004,101.732422 L66.9277004,101.732422 L66.9277004,99.7324219 L71.9277004,99.7324219 Z M61.9277004,99.7324219 L61.9277004,101.732422 L56.9277004,101.732422 L56.9277004,99.7324219 L61.9277004,99.7324219 Z M51.9277004,99.7324219 L51.9277004,101.732422 L46.9277004,101.732422 L46.9277004,99.7324219 L51.9277004,99.7324219 Z M41.9277004,99.7324219 L41.9277004,101.732422 L36.9277004,101.732422 L36.9277004,99.7324219 L41.9277004,99.7324219 Z M31.9277004,99.7324219 L31.9277004,101.732422 L26.9277004,101.732422 L26.9277004,99.7324219 L31.9277004,99.7324219 Z M21.9277004,99.7324219 L21.9277004,101.732422 L16.9277004,101.732422 L16.9277004,99.7324219 L21.9277004,99.7324219 Z M1.94421812,93.1560654 C2.02806698,94.5637879 2.53047457,95.8896696 3.37367406,96.9885965 L3.55954753,97.2205542 L2.02547927,98.5037668 C0.870020955,97.1224275 0.151407201,95.4276684 -0.0254559011,93.6159929 L-0.0522434805,93.2749816 L1.94421812,93.1560654 Z M526.601562,92.5390185 L526.601562,97.5390185 L524.601562,97.5390185 L524.601562,92.5390185 L526.601562,92.5390185 Z M1.93164062,83.2158033 L1.93164062,88.2158033 L-0.068359375,88.2158033 L-0.068359375,83.2158033 L1.93164062,83.2158033 Z M526.601562,82.5390185 L526.601562,87.5390185 L524.601562,87.5390185 L524.601562,82.5390185 L526.601562,82.5390185 Z M1.93164062,73.2158033 L1.93164062,78.2158033 L-0.068359375,78.2158033 L-0.068359375,73.2158033 L1.93164062,73.2158033 Z M526.601562,72.5390185 L526.601562,77.5390185 L524.601562,77.5390185 L524.601562,72.5390185 L526.601562,72.5390185 Z M1.93164062,63.2158033 L1.93164062,68.2158033 L-0.068359375,68.2158033 L-0.068359375,63.2158033 L1.93164062,63.2158033 Z M526.601562,62.5390185 L526.601562,67.5390185 L524.601562,67.5390185 L524.601562,62.5390185 L526.601562,62.5390185 Z M642.753906,53 L656.753906,60 L642.753906,67 L642.753,61 L638.062544,61 L638.062544,59 L642.753,59 L642.753906,53 Z M533.062544,59 L533.062544,61 L528.062544,61 L528.062544,59 L533.062544,59 Z M543.062544,59 L543.062544,61 L538.062544,61 L538.062544,59 L543.062544,59 Z M553.062544,59 L553.062544,61 L548.062544,61 L548.062544,59 L553.062544,59 Z M563.062544,59 L563.062544,61 L558.062544,61 L558.062544,59 L563.062544,59 Z M573.062544,59 L573.062544,61 L568.062544,61 L568.062544,59 L573.062544,59 Z M583.062544,59 L583.062544,61 L578.062544,61 L578.062544,59 L583.062544,59 Z M593.062544,59 L593.062544,61 L588.062544,61 L588.062544,59 L593.062544,59 Z M603.062544,59 L603.062544,61 L598.062544,61 L598.062544,59 L603.062544,59 Z M613.062544,59 L613.062544,61 L608.062544,61 L608.062544,59 L613.062544,59 Z M623.062544,59 L623.062544,61 L618.062544,61 L618.062544,59 L623.062544,59 Z M633.062544,59 L633.062544,61 L628.062544,61 L628.062544,59 L633.062544,59 Z M1.93164062,53.2158033 L1.93164062,58.2158033 L-0.068359375,58.2158033 L-0.068359375,53.2158033 L1.93164062,53.2158033 Z M1.93164062,43.2158033 L1.93164062,48.2158033 L-0.068359375,48.2158033 L-0.068359375,43.2158033 L1.93164062,43.2158033 Z M1.93164062,33.2158033 L1.93164062,38.2158033 L-0.068359375,38.2158033 L-0.068359375,33.2158033 L1.93164062,33.2158033 Z M1.93164062,23.2158033 L1.93164062,28.2158033 L-0.068359375,28.2158033 L-0.068359375,23.2158033 L1.93164062,23.2158033 Z M1.93164062,13.2158033 L1.93164062,18.2158033 L-0.068359375,18.2158033 L-0.068359375,13.2158033 L1.93164062,13.2158033 Z M1.54179404,2.93193929 L3.18296117,4.07499241 C2.43035733,5.15556223 1.99650158,6.42392993 1.938362,7.76067374 L1.93164062,8.0703125 L1.93164062,8.21580333 L-0.068359375,8.21580333 L-0.068359375,8.0703125 C-0.068359375,6.20811439 0.499541117,4.42838003 1.54179404,2.93193929 Z M87.2988281,-6.9296875 C91.1648214,-6.9296875 94.2988281,-3.79568075 94.2988281,0.0703125 C94.2988281,3.93630575 91.1648214,7.0703125 87.2988281,7.0703125 C83.7724342,7.0703125 80.8550757,4.46272199 80.3697492,1.07053758 L76.2988281,1.0703125 L76.2988281,-0.9296875 L80.3697182,-0.92969573 C80.8549514,-4.32198586 83.7723591,-6.9296875 87.2988281,-6.9296875 Z M11.2988281,-0.9296875 L11.2988281,1.0703125 L8.93164062,1.0703125 C8.25999574,1.0703125 7.60218517,1.16464095 6.97168498,1.34812921 L6.65877313,1.44727939 L6.00973564,-0.444479134 C6.82586955,-0.724483957 7.68127669,-0.885967995 8.55575532,-0.921963929 L8.93164062,-0.9296875 L11.2988281,-0.9296875 Z M21.2988281,-0.9296875 L21.2988281,1.0703125 L16.2988281,1.0703125 L16.2988281,-0.9296875 L21.2988281,-0.9296875 Z M31.2988281,-0.9296875 L31.2988281,1.0703125 L26.2988281,1.0703125 L26.2988281,-0.9296875 L31.2988281,-0.9296875 Z M41.2988281,-0.9296875 L41.2988281,1.0703125 L36.2988281,1.0703125 L36.2988281,-0.9296875 L41.2988281,-0.9296875 Z M51.2988281,-0.9296875 L51.2988281,1.0703125 L46.2988281,1.0703125 L46.2988281,-0.9296875 L51.2988281,-0.9296875 Z M61.2988281,-0.9296875 L61.2988281,1.0703125 L56.2988281,1.0703125 L56.2988281,-0.9296875 L61.2988281,-0.9296875 Z M71.2988281,-0.9296875 L71.2988281,1.0703125 L66.2988281,1.0703125 L66.2988281,-0.9296875 L71.2988281,-0.9296875 Z" fill="#4A4D4E" fill-rule="nonzero"></path>
            <mask id="mask-8" fill="white">
                <use xlink:href="#path-7"></use>
            </mask>
            <g id="Mask">
                <use fill="black" fill-opacity="1" filter="url(#filter-9)" xlink:href="#path-7"></use>
                <rect stroke="#E60000" stroke-width="2" stroke-linejoin="square" fill="#FFFFFF" fill-rule="evenodd" x="217" y="79" width="256.5" height="138" rx="4"></rect>
            </g>
            <g id="OutlnPage" mask="url(#mask-8)">
                <g transform="translate(216.000000, -247.000000)" id="Page-Copy">
                    <g>
                        <g id="OutlnNavi" fill="#E60000">
                            <g>
                                <rect id="Rectangle" x="41.5000503" y="9.50016305" width="31" height="2" rx="1"></rect>
                                <rect id="Rectangle-Copy-2" x="87.5000503" y="9.50016305" width="46" height="2" rx="1"></rect>
                                <rect id="Rectangle-Copy-8" x="148.50005" y="9.50016305" width="21.5" height="2" rx="1"></rect>
                                <rect id="Rectangle-Copy-9" x="185.00005" y="9.50016305" width="30.5" height="2" rx="1"></rect>
                                <rect id="Rectangle-Copy" x="5.0330118e-05" y="28.0001631" width="257" height="2"></rect>
                                <path d="M27.0000446,13.4120106 C27.0146432,17.7090368 23.4849493,21.4844962 18.6586326,21.5003283 C14.0251663,21.5151099 10.0179236,17.626299 10.0000561,12.4068702 C9.98835559,8.95931098 11.8082332,5.44886077 14.531243,3.25273257 C17.0130847,1.25109779 20.3633419,0.0100304938 23.4000639,2.98218685e-05 C23.7950491,-0.00106020322 24.1654634,0.0276823984 24.4695302,0.0942656741 C24.4698281,0.0943301754 24.4687012,0.0940861861 24.4631865,0.0928921388 C24.8563587,0.176395208 25.2167056,0.420738359 25.2923303,0.963579982 C25.3469992,1.35599893 25.1762618,1.70022763 24.9047374,1.91023065 C24.7649329,2.01835852 24.6203262,2.07778257 24.4696631,2.10990718 L24.4767856,2.10830609 C24.4838408,2.10680057 24.4852469,2.10644703 24.4886392,2.10559412 L24.4765972,2.10841249 C22.6499588,2.52503561 21.2179864,4.08482044 20.9759413,5.85774951 C24.9160365,7.03980894 26.9872597,9.67861778 27.0000446,13.4120106 Z M15.7868028,4.80951441 C13.5184673,6.63894426 11.9904951,9.58632402 12.0000445,12.4000531 C12.014095,16.5044577 15.1128076,19.5115897 18.6521606,19.500265 C22.3457445,19.4881824 25.0109908,16.6373604 25.0001561,13.4188324 C24.9897236,10.4015551 23.3078356,8.44237737 19.7255735,7.59256967 C19.346258,7.50258596 19.0538135,7.20037078 18.9763399,6.81830384 C18.9525234,6.70085077 18.940327,6.54724213 18.939846,6.40675243 C18.9348732,4.94743524 19.4722362,3.56209273 20.3694025,2.45538557 C18.7209531,2.92760094 17.1056128,3.74587841 15.7868028,4.80951441 Z" id="Speechmark-Red" fill-rule="nonzero"></path>
                            </g>
                        </g>
                        <g id="OutlnMultiDivider" transform="translate(0.000050, 410.000163)" fill="#E60000">
                            <rect id="Rectangle-Copy-16" x="0" y="0" width="257" height="2"></rect>
                            <rect id="Rectangle-Copy-17" x="0" y="38" width="257" height="2"></rect>
                            <g id="Group" stroke-width="1" transform="translate(53.500000, 8.500000)">
                                <path d="M8,16 C12.418278,16 16,12.418278 16,8 C16,3.581722 12.418278,0 8,0 C3.581722,0 0,3.581722 0,8 C0,12.418278 3.581722,16 8,16 Z M8,14 C4.6862915,14 2,11.3137085 2,8 C2,4.6862915 4.6862915,2 8,2 C11.3137085,2 14,4.6862915 14,8 C14,11.3137085 11.3137085,14 8,14 Z" id="Oval" fill-rule="nonzero"></path>
                                <path d="M52.5,16 C56.918278,16 60.5,12.418278 60.5,8 C60.5,3.581722 56.918278,0 52.5,0 C48.081722,0 44.5,3.581722 44.5,8 C44.5,12.418278 48.081722,16 52.5,16 Z M52.5,14 C49.1862915,14 46.5,11.3137085 46.5,8 C46.5,4.6862915 49.1862915,2 52.5,2 C55.8137085,2 58.5,4.6862915 58.5,8 C58.5,11.3137085 55.8137085,14 52.5,14 Z" id="Oval-Copy-3" fill-rule="nonzero"></path>
                                <path d="M97,16 C101.418278,16 105,12.418278 105,8 C105,3.581722 101.418278,0 97,0 C92.581722,0 89,3.581722 89,8 C89,12.418278 92.581722,16 97,16 Z M97,14 C93.6862915,14 91,11.3137085 91,8 C91,4.6862915 93.6862915,2 97,2 C100.313708,2 103,4.6862915 103,8 C103,11.3137085 100.313708,14 97,14 Z" id="Oval-Copy-4" fill-rule="nonzero"></path>
                                <path d="M141.5,16 C145.918278,16 149.5,12.418278 149.5,8 C149.5,3.581722 145.918278,0 141.5,0 C137.081722,0 133.5,3.581722 133.5,8 C133.5,12.418278 137.081722,16 141.5,16 Z M141.5,14 C138.186292,14 135.5,11.3137085 135.5,8 C135.5,4.6862915 138.186292,2 141.5,2 C144.813708,2 147.5,4.6862915 147.5,8 C147.5,11.3137085 144.813708,14 141.5,14 Z" id="Oval-Copy-5" fill-rule="nonzero"></path>
                            </g>
                            <rect id="Rectangle" x="42" y="29" width="39.5" height="2" rx="1"></rect>
                            <rect id="Rectangle-Copy-18" x="96" y="29" width="19.5" height="2" rx="1"></rect>
                            <rect id="Rectangle-Copy-19" x="137" y="29" width="26.5" height="2" rx="1"></rect>
                            <rect id="Rectangle-Copy-20" x="185" y="29" width="19.5" height="2" rx="1"></rect>
                        </g>
                        <g id="OutlnAB50" transform="translate(41.500050, 140.000163)" fill="#E60000">
                            <path d="M3.5,0 L78,0 C79.9329966,0 81.5,0.0417867567 81.5,0.0933333333 L81.5,0.906666667 C81.5,0.958213243 79.9329966,1 78,1 L3.5,1 C1.56700338,1 0,0.958213243 0,0.906666667 L0,0.0933333333 C0,0.0417867567 1.56700338,0 3.5,0 Z M3.5,0.0533333333 C2.67157288,0.0533333333 2,0.0712419433 2,0.0933333333 L2,0.906666667 C2,0.928758057 2.67157288,0.946666667 3.5,0.946666667 L78,0.946666667 C78.8284271,0.946666667 79.5,0.928758057 79.5,0.906666667 L79.5,0.0933333333 C79.5,0.0712419433 78.8284271,0.0533333333 78,0.0533333333 L3.5,0.0533333333 Z" id="Rectangle" fill-rule="nonzero"></path>
                            <g id="OutlnBtn" transform="translate(25.000000, 73.500000)" fill-rule="nonzero">
                                <path d="M2.5,0 L29.5,0 C30.8807119,0 32,1.11928813 32,2.5 L32,6.5 C32,7.88071187 30.8807119,9 29.5,9 L2.5,9 C1.11928813,9 0,7.88071187 0,6.5 L0,2.5 C0,1.11928813 1.11928813,0 2.5,0 Z M2.5,2 C2.22385763,2 2,2.22385763 2,2.5 L2,6.5 C2,6.77614237 2.22385763,7 2.5,7 L29.5,7 C29.7761424,7 30,6.77614237 30,6.5 L30,2.5 C30,2.22385763 29.7761424,2 29.5,2 L2.5,2 Z" id="Rectangle-Copy-7"></path>
                            </g>
                            <rect id="Rectangle" fill-rule="evenodd" x="21" y="42.5" width="39.5" height="2" rx="1"></rect>
                            <rect id="Rectangle-Copy-3" fill-rule="evenodd" x="2.5" y="48" width="76.5" height="2" rx="1"></rect>
                            <rect id="Rectangle-Copy-4" fill-rule="evenodd" x="16.5" y="53.5" width="48.5" height="2" rx="1"></rect>
                            <rect id="Rectangle-Copy-5" fill-rule="evenodd" x="2.5" y="59" width="76.5" height="2" rx="1"></rect>
                            <rect id="Rectangle-Copy-6" fill-rule="evenodd" x="2.5" y="64.5" width="76.5" height="2" rx="1"></rect>
                        </g>
                        <g id="OutlnAB50" transform="translate(134.000050, 140.000163)" fill="#E60000">
                            <path d="M3.5,0 L78,0 C79.9329966,0 81.5,0.0417867567 81.5,0.0933333333 L81.5,0.906666667 C81.5,0.958213243 79.9329966,1 78,1 L3.5,1 C1.56700338,1 0,0.958213243 0,0.906666667 L0,0.0933333333 C0,0.0417867567 1.56700338,0 3.5,0 Z M3.5,0.0533333333 C2.67157288,0.0533333333 2,0.0712419433 2,0.0933333333 L2,0.906666667 C2,0.928758057 2.67157288,0.946666667 3.5,0.946666667 L78,0.946666667 C78.8284271,0.946666667 79.5,0.928758057 79.5,0.906666667 L79.5,0.0933333333 C79.5,0.0712419433 78.8284271,0.0533333333 78,0.0533333333 L3.5,0.0533333333 Z" id="Rectangle" fill-rule="nonzero"></path>
                            <g id="OutlnBtn" transform="translate(25.000000, 73.500000)" fill-rule="nonzero">
                                <path d="M2.5,0 L29.5,0 C30.8807119,0 32,1.11928813 32,2.5 L32,6.5 C32,7.88071187 30.8807119,9 29.5,9 L2.5,9 C1.11928813,9 0,7.88071187 0,6.5 L0,2.5 C0,1.11928813 1.11928813,0 2.5,0 Z M2.5,2 C2.22385763,2 2,2.22385763 2,2.5 L2,6.5 C2,6.77614237 2.22385763,7 2.5,7 L29.5,7 C29.7761424,7 30,6.77614237 30,6.5 L30,2.5 C30,2.22385763 29.7761424,2 29.5,2 L2.5,2 Z" id="Rectangle-Copy-7"></path>
                            </g>
                            <rect id="Rectangle" fill-rule="evenodd" x="21" y="42.5" width="39.5" height="2" rx="1"></rect>
                            <rect id="Rectangle-Copy-3" fill-rule="evenodd" x="2.5" y="48" width="76.5" height="2" rx="1"></rect>
                            <rect id="Rectangle-Copy-4" fill-rule="evenodd" x="16.5" y="53.5" width="48.5" height="2" rx="1"></rect>
                            <rect id="Rectangle-Copy-5" fill-rule="evenodd" x="2.5" y="59" width="76.5" height="2" rx="1"></rect>
                            <rect id="Rectangle-Copy-6" fill-rule="evenodd" x="2.5" y="64.5" width="76.5" height="2" rx="1"></rect>
                        </g>
                        <g id="OutlnImageText" transform="translate(41.500050, 252.500163)" fill="#E60000">
                            <g id="Image-Text">
                                <path d="M60,9.5 C60,8.3954305 60.8954305,7.5 62,7.5 L170.5,7.5 C172.432997,7.5 174,9.06700338 174,11 L174,55.5 C174,57.4329966 172.432997,59 170.5,59 L62,59 C60.8954305,59 60,58.1045695 60,57 L60,9.5 Z M62,9.5 L62,57 L170.5,57 C171.328427,57 172,56.3284271 172,55.5 L172,11 C172,10.1715729 171.328427,9.5 170.5,9.5 L62,9.5 Z" id="Rectangle" fill-rule="nonzero"></path>
                                <path d="M3.5,0 L58.5,0 C60.4329966,0 62,1.56700338 62,3.5 L62,62.5 C62,64.4329966 60.4329966,66 58.5,66 L3.5,66 C1.56700338,66 0,64.4329966 0,62.5 L0,3.5 C0,1.56700338 1.56700338,0 3.5,0 Z M3.5,2 C2.67157288,2 2,2.67157288 2,3.5 L2,62.5 C2,63.3284271 2.67157288,64 3.5,64 L58.5,64 C59.3284271,64 60,63.3284271 60,62.5 L60,3.5 C60,2.67157288 59.3284271,2 58.5,2 L3.5,2 Z" id="Rectangle-Copy-10" fill-rule="nonzero"></path>
                                <g id="OutlnBtn" transform="translate(68.000000, 41.000000)" fill-rule="nonzero">
                                    <path d="M2.5,0 L29.5,0 C30.8807119,0 32,1.11928813 32,2.5 L32,6.5 C32,7.88071187 30.8807119,9 29.5,9 L2.5,9 C1.11928813,9 0,7.88071187 0,6.5 L0,2.5 C0,1.11928813 1.11928813,0 2.5,0 Z M2.5,2 C2.22385763,2 2,2.22385763 2,2.5 L2,6.5 C2,6.77614237 2.22385763,7 2.5,7 L29.5,7 C29.7761424,7 30,6.77614237 30,6.5 L30,2.5 C30,2.22385763 29.7761424,2 29.5,2 L2.5,2 Z" id="Rectangle-Copy-7"></path>
                                </g>
                                <rect id="Rectangle" x="69" y="17" width="39.5" height="2" rx="1"></rect>
                                <rect id="Rectangle-Copy-3" x="69" y="23" width="76.5" height="2" rx="1"></rect>
                                <rect id="Rectangle-Copy-4" x="69" y="29" width="48.5" height="2" rx="1"></rect>
                                <rect id="Rectangle-Copy-5" x="69" y="35" width="76.5" height="2" rx="1"></rect>
                            </g>
                        </g>
                        <g id="OutlnNotifiation" transform="translate(43.500050, 480.000163)" fill="#E60000">
                            <path d="M-0.41954023,-4 L170.41954,-4 C172.396974,-4 174,-2.31128762 174,-0.22815534 L174,47.7281553 C174,49.8112876 172.396974,51.5 170.41954,51.5 L-0.41954023,51.5 C-2.39697356,51.5 -4,49.8112876 -4,47.7281553 L-4,-0.22815534 C-4,-2.31128762 -2.39697356,-4 -0.41954023,-4 Z M-0.41954023,-1.84466019 C-1.26701166,-1.84466019 -1.95402299,-1.12092632 -1.95402299,-0.22815534 L-1.95402299,47.7281553 C-1.95402299,48.6209263 -1.26701166,49.3446602 -0.41954023,49.3446602 L170.41954,49.3446602 C171.267012,49.3446602 171.954023,48.6209263 171.954023,47.7281553 L171.954023,-0.22815534 C171.954023,-1.12092632 171.267012,-1.84466019 170.41954,-1.84466019 L-0.41954023,-1.84466019 Z" id="Rectangle" fill-rule="nonzero"></path>
                            <g id="Group" stroke-width="1" fill-rule="evenodd" transform="translate(26.000000, 7.500000)">
                                <path d="M0.078125,24 L0.921875,24 C0.965022246,24 1,25.1192881 1,26.5 L1,30.5 C1,31.8807119 0.965022246,33 0.921875,33 L0.078125,33 C0.0349777539,33 0,31.8807119 0,30.5 L0,26.5 C0,25.1192881 0.0349777539,24 0.078125,24 Z M0.078125,26 C0.0694955508,26 0.0625,26.2238576 0.0625,26.5 L0.0625,30.5 C0.0625,30.7761424 0.0694955508,31 0.078125,31 L0.921875,31 C0.930504449,31 0.9375,30.7761424 0.9375,30.5 L0.9375,26.5 C0.9375,26.2238576 0.930504449,26 0.921875,26 L0.078125,26 Z" id="Rectangle-Copy-7" fill-rule="nonzero"></path>
                                <path d="M121.102389,18 C121.654674,18 122.102389,18.4477153 122.102389,19 C122.102389,19.5522847 121.654674,20 121.102389,20 L3,20 C2.44771525,20 2,19.5522847 2,19 C2,18.4477153 2.44771525,18 3,18 L121.102389,18 Z M227.075085,12 C227.62737,12 228.075085,12.4477153 228.075085,13 C228.075085,13.5522847 227.62737,14 227.075085,14 L3,14 C2.44771525,14 2,13.5522847 2,13 C2,12.4477153 2.44771525,12 3,12 L227.075085,12 Z M231,6 C231.552285,6 232,6.44771525 232,7 C232,7.55228475 231.552285,8 231,8 L3,8 C2.44771525,8 2,7.55228475 2,7 C2,6.44771525 2.44771525,6 3,6 L231,6 Z M63.0136519,0 C63.5659366,-1.01453063e-16 64.0136519,0.44771525 64.0136519,1 C64.0136519,1.55228475 63.5659366,2 63.0136519,2 L3,2 C2.44771525,2 2,1.55228475 2,1 C2,0.44771525 2.44771525,1.01453063e-16 3,0 L63.0136519,0 Z" id="Combined-Shape"></path>
                            </g>
                        </g>
                        <g id="OutlnHero" transform="translate(0.000050, 28.000163)" fill="#E60000">
                            <g id="Hero">
                                <rect id="Rectangle-Copy-16" x="0" y="0" width="257" height="2"></rect>
                                <rect id="Rectangle-Copy-17" x="0" y="80.5" width="257" height="2"></rect>
                                <g id="Group-4" transform="translate(41.500000, 21.000000)">
                                    <rect id="Rectangle" x="0" y="0" width="67.5" height="2" rx="1"></rect>
                                    <rect id="Rectangle-Copy-21" x="0" y="10" width="55.5" height="2" rx="1"></rect>
                                    <rect id="Rectangle-Copy-22" x="0" y="16" width="53" height="2" rx="1"></rect>
                                    <rect id="Rectangle-Copy-23" x="0" y="22" width="49.5" height="2" rx="1"></rect>
                                    <g id="OutlnBtn" transform="translate(0.000000, 32.000000)" fill-rule="nonzero">
                                        <path d="M2.5,0 L29.5,0 C30.8807119,0 32,1.11928813 32,2.5 L32,6.5 C32,7.88071187 30.8807119,9 29.5,9 L2.5,9 C1.11928813,9 0,7.88071187 0,6.5 L0,2.5 C0,1.11928813 1.11928813,0 2.5,0 Z M2.5,2 C2.22385763,2 2,2.22385763 2,2.5 L2,6.5 C2,6.77614237 2.22385763,7 2.5,7 L29.5,7 C29.7761424,7 30,6.77614237 30,6.5 L30,2.5 C30,2.22385763 29.7761424,2 29.5,2 L2.5,2 Z" id="Rectangle-Copy-7"></path>
                                    </g>
                                </g>
                            </g>
                        </g>
                        <g id="OutlnTextOnly" transform="translate(58.000050, 348.500163)" fill="#E60000">
                            <g id="Text-only">
                                <path d="M69,0 C69.5522847,-1.01453063e-16 70,0.44771525 70,1 C70,1.55228475 69.5522847,2 69,2 L31.5,2 C30.9477153,2 30.5,1.55228475 30.5,1 C30.5,0.44771525 30.9477153,1.01453063e-16 31.5,0 L69,0 Z M112,0 C112.552285,-1.01453063e-16 113,0.44771525 113,1 C113,1.55228475 112.552285,2 112,2 L74.5,2 C73.9477153,2 73.5,1.55228475 73.5,1 C73.5,0.44771525 73.9477153,1.01453063e-16 74.5,0 L112,0 Z" id="Combined-Shape"></path>
                                <rect id="Rectangle-Copy-3" x="6" y="6" width="131.5" height="2" rx="1"></rect>
                                <rect id="Rectangle-Copy-4" x="14" y="12" width="115" height="2" rx="1"></rect>
                                <rect id="Rectangle-Copy-5" x="2.5" y="18" width="138" height="2" rx="1"></rect>
                                <path d="M41.5,24 C42.0522847,24 42.5,24.4477153 42.5,25 C42.5,25.5522847 42.0522847,26 41.5,26 L14,26 C13.4477153,26 13,25.5522847 13,25 C13,24.4477153 13.4477153,24 14,24 L41.5,24 Z M129.5,24 C130.052285,24 130.5,24.4477153 130.5,25 C130.5,25.5522847 130.052285,26 129.5,26 L47,26 C46.4477153,26 46,25.5522847 46,25 C46,24.4477153 46.4477153,24 47,24 L129.5,24 Z" id="Combined-Shape"></path>
                                <path d="M72.5,30 C73.0522847,30 73.5,30.4477153 73.5,31 C73.5,31.5522847 73.0522847,32 72.5,32 L1,32 C0.44771525,32 6.76353751e-17,31.5522847 0,31 C-6.76353751e-17,30.4477153 0.44771525,30 1,30 L72.5,30 Z M142,30 C142.552285,30 143,30.4477153 143,31 C143,31.5522847 142.552285,32 142,32 L78,32 C77.4477153,32 77,31.5522847 77,31 C77,30.4477153 77.4477153,30 78,30 L142,30 Z" id="Combined-Shape"></path>
                            </g>
                        </g>
                    </g>
                </g>
            </g>
        </g>
    </g>
</svg>